# MagicaVoxel @ Ephtracy

# material
mtllib Cannon.mtl
usemtl palette

# normals
vn -1 0 0
vn 1 0 0
vn 0 0 1
vn 0 0 -1
vn 0 -1 0
vn 0 1 0

# texcoords
vt 0.533203 0.5
vt 0.548828 0.5
vt 0.556641 0.5

# verts
v -2 0 4.5
v -2 0 2.5
v -2 0 1.5
v -2 4 4.5
v -2 4 2.5
v -2 4 1.5
v -1 1 1.5
v -1 1 -4.5
v -1 3 1.5
v -1 3 -4.5
v 1 1 4.5
v 1 1 3.5
v 1 3 4.5
v 1 3 3.5
v -1 1 4.5
v -1 1 3.5
v -1 3 4.5
v -1 3 3.5
v 1 1 1.5
v 1 1 -4.5
v 1 3 1.5
v 1 3 -4.5
v 2 0 4.5
v 2 0 2.5
v 2 0 1.5
v 2 4 4.5
v 2 4 2.5
v 2 4 1.5
v -2 0 4.5
v -2 4 4.5
v -1 1 4.5
v -1 3 4.5
v 1 1 4.5
v 1 3 4.5
v 2 0 4.5
v 2 4 4.5
v -1 1 3.5
v -1 3 3.5
v 1 1 3.5
v 1 3 3.5
v -2 0 1.5
v -2 4 1.5
v -1 1 1.5
v -1 3 1.5
v 1 1 1.5
v 1 3 1.5
v 2 0 1.5
v 2 4 1.5
v -1 1 -4.5
v -1 3 -4.5
v 1 1 -4.5
v 1 3 -4.5
v -2 0 4.5
v 2 0 4.5
v -2 0 2.5
v 2 0 2.5
v -2 0 1.5
v 2 0 1.5
v -1 1 1.5
v 1 1 1.5
v -1 1 -4.5
v 1 1 -4.5
v -1 3 4.5
v 1 3 4.5
v -1 3 3.5
v 1 3 3.5
v -1 1 4.5
v 1 1 4.5
v -1 1 3.5
v 1 1 3.5
v -1 3 1.5
v 1 3 1.5
v -1 3 -4.5
v 1 3 -4.5
v -2 4 4.5
v 2 4 4.5
v -2 4 2.5
v 2 4 2.5
v -2 4 1.5
v 2 4 1.5

# faces
f 4/2/1 2/2/1 1/2/1
f 5/3/1 3/3/1 2/3/1
f 5/2/1 2/2/1 4/2/1
f 6/3/1 3/3/1 5/3/1
f 9/2/1 8/2/1 7/2/1
f 10/2/1 8/2/1 9/2/1
f 13/2/1 12/2/1 11/2/1
f 14/2/1 12/2/1 13/2/1
f 15/2/2 16/2/2 17/2/2
f 17/2/2 16/2/2 18/2/2
f 19/2/2 20/2/2 21/2/2
f 21/2/2 20/2/2 22/2/2
f 23/2/2 24/2/2 26/2/2
f 24/3/2 25/3/2 27/3/2
f 26/2/2 24/2/2 27/2/2
f 27/3/2 25/3/2 28/3/2
f 31/2/3 30/2/3 29/2/3
f 32/2/3 30/2/3 31/2/3
f 33/2/3 31/2/3 29/2/3
f 34/2/3 30/2/3 32/2/3
f 35/2/3 33/2/3 29/2/3
f 35/2/3 34/2/3 33/2/3
f 36/2/3 30/2/3 34/2/3
f 36/2/3 34/2/3 35/2/3
f 39/1/3 38/1/3 37/1/3
f 40/1/3 38/1/3 39/1/3
f 41/3/4 42/3/4 43/3/4
f 43/3/4 42/3/4 44/3/4
f 41/3/4 43/3/4 45/3/4
f 44/3/4 42/3/4 46/3/4
f 41/3/4 45/3/4 47/3/4
f 45/3/4 46/3/4 47/3/4
f 46/3/4 42/3/4 48/3/4
f 47/3/4 46/3/4 48/3/4
f 49/2/4 50/2/4 51/2/4
f 51/2/4 50/2/4 52/2/4
f 55/2/5 54/2/5 53/2/5
f 56/2/5 54/2/5 55/2/5
f 57/3/5 56/3/5 55/3/5
f 58/3/5 56/3/5 57/3/5
f 61/2/5 60/2/5 59/2/5
f 62/2/5 60/2/5 61/2/5
f 65/2/5 64/2/5 63/2/5
f 66/2/5 64/2/5 65/2/5
f 67/2/6 68/2/6 69/2/6
f 69/2/6 68/2/6 70/2/6
f 71/2/6 72/2/6 73/2/6
f 73/2/6 72/2/6 74/2/6
f 75/2/6 76/2/6 77/2/6
f 77/2/6 76/2/6 78/2/6
f 77/3/6 78/3/6 79/3/6
f 79/3/6 78/3/6 80/3/6
