# MagicaVoxel @ Ephtracy

# material
mtllib Base.mtl
usemtl palette

# normals
vn -1 0 0
vn 1 0 0
vn 0 0 1
vn 0 0 -1
vn 0 -1 0
vn 0 1 0

# texcoords
vt 0.548828 0.5
vt 0.822266 0.5
vt 0.826172 0.5
vt 0.833984 0.5

# verts
v -5 0 5
v -5 0 -5
v -5 1 4
v -5 1 -4
v -5 2 3
v -5 2 -3
v -5 3 3
v -5 3 2
v -5 3 -2
v -5 3 -3
v -5 4 4
v -5 4 3
v -5 4 2
v -5 4 1
v -5 4 -1
v -5 4 -2
v -5 4 -3
v -5 4 -4
v -5 5 5
v -5 5 3
v -5 5 -3
v -5 5 -5
v -5 10 1
v -5 10 -1
v -4 4 3
v -4 4 2
v -4 4 1
v -4 4 -1
v -4 4 -2
v -4 4 -3
v -4 5 4
v -4 5 3
v -4 5 -3
v -4 5 -4
v -4 9 4
v -4 9 1
v -4 9 -1
v -4 9 -4
v -2 9 2
v -2 9 1
v -2 9 -1
v -2 9 -2
v -2 10 2
v -2 10 1
v -2 10 -1
v -2 10 -2
v -1 4 5
v -1 4 4
v -1 4 -4
v -1 4 -5
v -1 9 4
v -1 9 3
v -1 9 2
v -1 9 -2
v -1 9 -3
v -1 9 -4
v -1 10 5
v -1 10 3
v -1 10 2
v -1 10 -2
v -1 10 -3
v -1 10 -5
v 3 4 5
v 3 4 4
v 3 4 -4
v 3 4 -5
v 3 5 5
v 3 5 4
v 3 5 -4
v 3 5 -5
v -3 4 5
v -3 4 4
v -3 4 -4
v -3 4 -5
v -3 5 5
v -3 5 4
v -3 5 -4
v -3 5 -5
v 1 4 5
v 1 4 4
v 1 4 -4
v 1 4 -5
v 1 9 4
v 1 9 3
v 1 9 2
v 1 9 -2
v 1 9 -3
v 1 9 -4
v 1 10 5
v 1 10 3
v 1 10 2
v 1 10 -2
v 1 10 -3
v 1 10 -5
v 2 9 2
v 2 9 1
v 2 9 -1
v 2 9 -2
v 2 10 2
v 2 10 1
v 2 10 -1
v 2 10 -2
v 4 4 3
v 4 4 2
v 4 4 1
v 4 4 -1
v 4 4 -2
v 4 4 -3
v 4 5 4
v 4 5 3
v 4 5 -3
v 4 5 -4
v 4 9 4
v 4 9 1
v 4 9 -1
v 4 9 -4
v 5 0 5
v 5 0 -5
v 5 1 4
v 5 1 -4
v 5 2 3
v 5 2 -3
v 5 3 3
v 5 3 2
v 5 3 -2
v 5 3 -3
v 5 4 4
v 5 4 3
v 5 4 2
v 5 4 1
v 5 4 -1
v 5 4 -2
v 5 4 -3
v 5 4 -4
v 5 5 5
v 5 5 3
v 5 5 -3
v 5 5 -5
v 5 10 1
v 5 10 -1
v -5 0 5
v -5 5 5
v -4 1 5
v -4 4 5
v -3 2 5
v -3 3 5
v -3 4 5
v -3 5 5
v -2 3 5
v -2 4 5
v -1 4 5
v -1 10 5
v 1 4 5
v 1 10 5
v 2 3 5
v 2 4 5
v 3 2 5
v 3 3 5
v 3 4 5
v 3 5 5
v 4 1 5
v 4 4 5
v 5 0 5
v 5 5 5
v -4 5 4
v -4 9 4
v -3 4 4
v -3 5 4
v -2 4 4
v -1 4 4
v -1 9 4
v 1 4 4
v 1 9 4
v 2 4 4
v 3 4 4
v 3 5 4
v 4 5 4
v 4 9 4
v -2 9 2
v -2 10 2
v -1 9 2
v -1 10 2
v 1 9 2
v 1 10 2
v 2 9 2
v 2 10 2
v -5 4 1
v -5 10 1
v -4 4 1
v -4 9 1
v -3 9 1
v -3 10 1
v -2 9 1
v -2 10 1
v 2 9 1
v 2 10 1
v 3 9 1
v 3 10 1
v 4 4 1
v 4 9 1
v 5 4 1
v 5 10 1
v -5 4 -3
v -5 5 -3
v -4 4 -3
v -4 5 -3
v 4 4 -3
v 4 5 -3
v 5 4 -3
v 5 5 -3
v -5 4 3
v -5 5 3
v -4 4 3
v -4 5 3
v 4 4 3
v 4 5 3
v 5 4 3
v 5 5 3
v -5 4 -1
v -5 10 -1
v -4 4 -1
v -4 9 -1
v -3 9 -1
v -3 10 -1
v -2 9 -1
v -2 10 -1
v 2 9 -1
v 2 10 -1
v 3 9 -1
v 3 10 -1
v 4 4 -1
v 4 9 -1
v 5 4 -1
v 5 10 -1
v -2 9 -2
v -2 10 -2
v -1 9 -2
v -1 10 -2
v 1 9 -2
v 1 10 -2
v 2 9 -2
v 2 10 -2
v -4 5 -4
v -4 9 -4
v -3 4 -4
v -3 5 -4
v -2 4 -4
v -1 4 -4
v -1 9 -4
v 1 4 -4
v 1 9 -4
v 2 4 -4
v 3 4 -4
v 3 5 -4
v 4 5 -4
v 4 9 -4
v -5 0 -5
v -5 5 -5
v -4 1 -5
v -4 4 -5
v -3 2 -5
v -3 3 -5
v -3 4 -5
v -3 5 -5
v -2 3 -5
v -2 4 -5
v -1 4 -5
v -1 10 -5
v 1 4 -5
v 1 10 -5
v 2 3 -5
v 2 4 -5
v 3 2 -5
v 3 3 -5
v 3 4 -5
v 3 5 -5
v 4 1 -5
v 4 4 -5
v 5 0 -5
v 5 5 -5
v -5 0 5
v 5 0 5
v -5 0 -5
v 5 0 -5
v -3 4 5
v -2 4 5
v -1 4 5
v 1 4 5
v 2 4 5
v 3 4 5
v -3 4 4
v -2 4 4
v -1 4 4
v 1 4 4
v 2 4 4
v 3 4 4
v -5 4 3
v -4 4 3
v 4 4 3
v 5 4 3
v -5 4 2
v -4 4 2
v 4 4 2
v 5 4 2
v -5 4 1
v -4 4 1
v 4 4 1
v 5 4 1
v -5 4 -1
v -4 4 -1
v 4 4 -1
v 5 4 -1
v -5 4 -2
v -4 4 -2
v 4 4 -2
v 5 4 -2
v -5 4 -3
v -4 4 -3
v 4 4 -3
v 5 4 -3
v -3 4 -4
v -2 4 -4
v -1 4 -4
v 1 4 -4
v 2 4 -4
v 3 4 -4
v -3 4 -5
v -2 4 -5
v -1 4 -5
v 1 4 -5
v 2 4 -5
v 3 4 -5
v -5 5 5
v -3 5 5
v 3 5 5
v 5 5 5
v -4 5 4
v -3 5 4
v 3 5 4
v 4 5 4
v -5 5 3
v -4 5 3
v 4 5 3
v 5 5 3
v -5 5 -3
v -4 5 -3
v 4 5 -3
v 5 5 -3
v -4 5 -4
v -3 5 -4
v 3 5 -4
v 4 5 -4
v -5 5 -5
v -3 5 -5
v 3 5 -5
v 5 5 -5
v -4 9 4
v -1 9 4
v 1 9 4
v 4 9 4
v -1 9 3
v 1 9 3
v -2 9 2
v -1 9 2
v 1 9 2
v 2 9 2
v -4 9 1
v -3 9 1
v -2 9 1
v 2 9 1
v 3 9 1
v 4 9 1
v -4 9 -1
v -3 9 -1
v -2 9 -1
v 2 9 -1
v 3 9 -1
v 4 9 -1
v -2 9 -2
v -1 9 -2
v 1 9 -2
v 2 9 -2
v -1 9 -3
v 1 9 -3
v -4 9 -4
v -1 9 -4
v 1 9 -4
v 4 9 -4
v -1 10 5
v 1 10 5
v -1 10 3
v 1 10 3
v -2 10 2
v -1 10 2
v 1 10 2
v 2 10 2
v -5 10 1
v -3 10 1
v -2 10 1
v 2 10 1
v 3 10 1
v 5 10 1
v -5 10 -1
v -3 10 -1
v -2 10 -1
v 2 10 -1
v 3 10 -1
v 5 10 -1
v -2 10 -2
v -1 10 -2
v 1 10 -2
v 2 10 -2
v -1 10 -3
v 1 10 -3
v -1 10 -5
v 1 10 -5

# faces
f 3/2/1 2/2/1 1/2/1
f 4/2/1 2/2/1 3/2/1
f 5/4/1 4/4/1 3/4/1
f 6/4/1 4/4/1 5/4/1
f 7/4/1 5/4/1 3/4/1
f 7/3/1 6/3/1 5/3/1
f 8/3/1 6/3/1 7/3/1
f 9/3/1 6/3/1 8/3/1
f 10/4/1 4/4/1 6/4/1
f 10/3/1 6/3/1 9/3/1
f 11/2/1 3/2/1 1/2/1
f 11/4/1 7/4/1 3/4/1
f 11/4/1 8/4/1 7/4/1
f 12/4/1 8/4/1 11/4/1
f 13/3/1 9/3/1 8/3/1
f 13/4/1 8/4/1 12/4/1
f 14/3/1 9/3/1 13/3/1
f 15/3/1 9/3/1 14/3/1
f 16/4/1 10/4/1 9/4/1
f 16/3/1 9/3/1 15/3/1
f 17/4/1 4/4/1 10/4/1
f 17/4/1 10/4/1 16/4/1
f 18/2/1 2/2/1 4/2/1
f 18/4/1 4/4/1 17/4/1
f 19/2/1 12/2/1 11/2/1
f 19/2/1 11/2/1 1/2/1
f 20/2/1 12/2/1 19/2/1
f 21/2/1 18/2/1 17/2/1
f 22/2/1 2/2/1 18/2/1
f 22/2/1 18/2/1 21/2/1
f 23/3/1 15/3/1 14/3/1
f 24/3/1 15/3/1 23/3/1
f 32/1/1 26/1/1 25/1/1
f 32/1/1 27/1/1 26/1/1
f 33/1/1 30/1/1 29/1/1
f 33/1/1 29/1/1 28/1/1
f 35/1/1 32/1/1 31/1/1
f 36/1/1 27/1/1 32/1/1
f 36/1/1 32/1/1 35/1/1
f 37/1/1 34/1/1 33/1/1
f 37/1/1 33/1/1 28/1/1
f 38/1/1 34/1/1 37/1/1
f 43/2/1 40/2/1 39/2/1
f 44/2/1 40/2/1 43/2/1
f 45/2/1 42/2/1 41/2/1
f 46/2/1 42/2/1 45/2/1
f 51/3/1 48/3/1 47/3/1
f 56/3/1 50/3/1 49/3/1
f 57/3/1 51/3/1 47/3/1
f 57/3/1 52/3/1 51/3/1
f 58/2/1 53/2/1 52/2/1
f 58/3/1 52/3/1 57/3/1
f 59/2/1 53/2/1 58/2/1
f 60/2/1 55/2/1 54/2/1
f 61/3/1 56/3/1 55/3/1
f 61/2/1 55/2/1 60/2/1
f 62/3/1 50/3/1 56/3/1
f 62/3/1 56/3/1 61/3/1
f 67/2/1 64/2/1 63/2/1
f 68/2/1 64/2/1 67/2/1
f 69/2/1 66/2/1 65/2/1
f 70/2/1 66/2/1 69/2/1
f 71/2/2 72/2/2 75/2/2
f 75/2/2 72/2/2 76/2/2
f 73/2/2 74/2/2 77/2/2
f 77/2/2 74/2/2 78/2/2
f 79/3/2 80/3/2 83/3/2
f 81/3/2 82/3/2 88/3/2
f 79/3/2 83/3/2 89/3/2
f 83/3/2 84/3/2 89/3/2
f 84/2/2 85/2/2 90/2/2
f 89/3/2 84/3/2 90/3/2
f 90/2/2 85/2/2 91/2/2
f 86/2/2 87/2/2 92/2/2
f 87/3/2 88/3/2 93/3/2
f 92/2/2 87/2/2 93/2/2
f 88/3/2 82/3/2 94/3/2
f 93/3/2 88/3/2 94/3/2
f 95/2/2 96/2/2 99/2/2
f 99/2/2 96/2/2 100/2/2
f 97/2/2 98/2/2 101/2/2
f 101/2/2 98/2/2 102/2/2
f 103/1/2 104/1/2 110/1/2
f 104/1/2 105/1/2 110/1/2
f 107/1/2 108/1/2 111/1/2
f 106/1/2 107/1/2 111/1/2
f 109/1/2 110/1/2 113/1/2
f 110/1/2 105/1/2 114/1/2
f 113/1/2 110/1/2 114/1/2
f 111/1/2 112/1/2 115/1/2
f 106/1/2 111/1/2 115/1/2
f 115/1/2 112/1/2 116/1/2
f 117/2/2 118/2/2 119/2/2
f 119/2/2 118/2/2 120/2/2
f 119/4/2 120/4/2 121/4/2
f 121/4/2 120/4/2 122/4/2
f 119/4/2 121/4/2 123/4/2
f 121/3/2 122/3/2 123/3/2
f 123/3/2 122/3/2 124/3/2
f 124/3/2 122/3/2 125/3/2
f 122/4/2 120/4/2 126/4/2
f 125/3/2 122/3/2 126/3/2
f 117/2/2 119/2/2 127/2/2
f 119/4/2 123/4/2 127/4/2
f 123/4/2 124/4/2 127/4/2
f 127/4/2 124/4/2 128/4/2
f 124/3/2 125/3/2 129/3/2
f 128/4/2 124/4/2 129/4/2
f 129/3/2 125/3/2 130/3/2
f 130/3/2 125/3/2 131/3/2
f 125/4/2 126/4/2 132/4/2
f 131/3/2 125/3/2 132/3/2
f 126/4/2 120/4/2 133/4/2
f 132/4/2 126/4/2 133/4/2
f 120/2/2 118/2/2 134/2/2
f 133/4/2 120/4/2 134/4/2
f 127/2/2 128/2/2 135/2/2
f 117/2/2 127/2/2 135/2/2
f 135/2/2 128/2/2 136/2/2
f 133/2/2 134/2/2 137/2/2
f 134/2/2 118/2/2 138/2/2
f 137/2/2 134/2/2 138/2/2
f 130/3/2 131/3/2 139/3/2
f 139/3/2 131/3/2 140/3/2
f 143/2/3 142/2/3 141/2/3
f 144/2/3 142/2/3 143/2/3
f 145/4/3 144/4/3 143/4/3
f 146/4/3 144/4/3 145/4/3
f 147/2/3 142/2/3 144/2/3
f 147/4/3 144/4/3 146/4/3
f 148/2/3 142/2/3 147/2/3
f 149/3/3 146/3/3 145/3/3
f 149/4/3 147/4/3 146/4/3
f 150/4/3 147/4/3 149/4/3
f 151/3/3 150/3/3 149/3/3
f 153/3/3 151/3/3 149/3/3
f 153/3/3 152/3/3 151/3/3
f 154/3/3 152/3/3 153/3/3
f 155/3/3 149/3/3 145/3/3
f 155/3/3 153/3/3 149/3/3
f 156/3/3 153/3/3 155/3/3
f 157/4/3 145/4/3 143/4/3
f 157/3/3 155/3/3 145/3/3
f 158/4/3 156/4/3 155/4/3
f 158/3/3 155/3/3 157/3/3
f 159/4/3 156/4/3 158/4/3
f 161/2/3 143/2/3 141/2/3
f 161/4/3 159/4/3 158/4/3
f 161/4/3 158/4/3 157/4/3
f 161/4/3 157/4/3 143/4/3
f 162/2/3 160/2/3 159/2/3
f 162/4/3 159/4/3 161/4/3
f 163/2/3 161/2/3 141/2/3
f 163/2/3 162/2/3 161/2/3
f 164/2/3 160/2/3 162/2/3
f 164/2/3 162/2/3 163/2/3
f 168/1/3 166/1/3 165/1/3
f 169/1/3 168/1/3 167/1/3
f 170/1/3 168/1/3 169/1/3
f 171/1/3 166/1/3 168/1/3
f 171/1/3 168/1/3 170/1/3
f 174/1/3 173/1/3 172/1/3
f 175/1/3 173/1/3 174/1/3
f 176/1/3 173/1/3 175/1/3
f 177/1/3 173/1/3 176/1/3
f 178/1/3 173/1/3 177/1/3
f 181/2/3 180/2/3 179/2/3
f 182/2/3 180/2/3 181/2/3
f 185/2/3 184/2/3 183/2/3
f 186/2/3 184/2/3 185/2/3
f 189/3/3 188/3/3 187/3/3
f 190/3/3 188/3/3 189/3/3
f 191/3/3 188/3/3 190/3/3
f 192/3/3 188/3/3 191/3/3
f 193/2/3 192/2/3 191/2/3
f 194/2/3 192/2/3 193/2/3
f 197/2/3 196/2/3 195/2/3
f 198/2/3 196/2/3 197/2/3
f 200/3/3 198/3/3 197/3/3
f 201/3/3 200/3/3 199/3/3
f 202/3/3 198/3/3 200/3/3
f 202/3/3 200/3/3 201/3/3
f 205/2/3 204/2/3 203/2/3
f 206/2/3 204/2/3 205/2/3
f 209/2/3 208/2/3 207/2/3
f 210/2/3 208/2/3 209/2/3
f 211/2/4 212/2/4 213/2/4
f 213/2/4 212/2/4 214/2/4
f 215/2/4 216/2/4 217/2/4
f 217/2/4 216/2/4 218/2/4
f 219/3/4 220/3/4 221/3/4
f 221/3/4 220/3/4 222/3/4
f 222/3/4 220/3/4 223/3/4
f 223/3/4 220/3/4 224/3/4
f 223/2/4 224/2/4 225/2/4
f 225/2/4 224/2/4 226/2/4
f 227/2/4 228/2/4 229/2/4
f 229/2/4 228/2/4 230/2/4
f 229/3/4 230/3/4 232/3/4
f 231/3/4 232/3/4 233/3/4
f 232/3/4 230/3/4 234/3/4
f 233/3/4 232/3/4 234/3/4
f 235/2/4 236/2/4 237/2/4
f 237/2/4 236/2/4 238/2/4
f 239/2/4 240/2/4 241/2/4
f 241/2/4 240/2/4 242/2/4
f 243/1/4 244/1/4 246/1/4
f 245/1/4 246/1/4 247/1/4
f 247/1/4 246/1/4 248/1/4
f 246/1/4 244/1/4 249/1/4
f 248/1/4 246/1/4 249/1/4
f 250/1/4 251/1/4 252/1/4
f 252/1/4 251/1/4 253/1/4
f 253/1/4 251/1/4 254/1/4
f 254/1/4 251/1/4 255/1/4
f 255/1/4 251/1/4 256/1/4
f 257/2/4 258/2/4 259/2/4
f 259/2/4 258/2/4 260/2/4
f 259/4/4 260/4/4 261/4/4
f 261/4/4 260/4/4 262/4/4
f 260/2/4 258/2/4 263/2/4
f 262/4/4 260/4/4 263/4/4
f 263/2/4 258/2/4 264/2/4
f 261/3/4 262/3/4 265/3/4
f 262/4/4 263/4/4 265/4/4
f 265/4/4 263/4/4 266/4/4
f 265/3/4 266/3/4 267/3/4
f 265/3/4 267/3/4 269/3/4
f 267/3/4 268/3/4 269/3/4
f 269/3/4 268/3/4 270/3/4
f 261/3/4 265/3/4 271/3/4
f 265/3/4 269/3/4 271/3/4
f 271/3/4 269/3/4 272/3/4
f 259/4/4 261/4/4 273/4/4
f 261/3/4 271/3/4 273/3/4
f 271/4/4 272/4/4 274/4/4
f 273/3/4 271/3/4 274/3/4
f 274/4/4 272/4/4 275/4/4
f 257/2/4 259/2/4 277/2/4
f 274/4/4 275/4/4 277/4/4
f 273/4/4 274/4/4 277/4/4
f 259/4/4 273/4/4 277/4/4
f 275/2/4 276/2/4 278/2/4
f 277/4/4 275/4/4 278/4/4
f 257/2/4 277/2/4 279/2/4
f 277/2/4 278/2/4 279/2/4
f 278/2/4 276/2/4 280/2/4
f 279/2/4 278/2/4 280/2/4
f 283/2/5 282/2/5 281/2/5
f 284/2/5 282/2/5 283/2/5
f 285/4/6 286/4/6 291/4/6
f 286/3/6 287/3/6 292/3/6
f 291/4/6 286/4/6 292/4/6
f 292/3/6 287/3/6 293/3/6
f 288/3/6 289/3/6 294/3/6
f 289/4/6 290/4/6 295/4/6
f 294/3/6 289/3/6 295/3/6
f 295/4/6 290/4/6 296/4/6
f 297/4/6 298/4/6 301/4/6
f 301/4/6 298/4/6 302/4/6
f 299/4/6 300/4/6 303/4/6
f 303/4/6 300/4/6 304/4/6
f 301/3/6 302/3/6 305/3/6
f 305/3/6 302/3/6 306/3/6
f 303/3/6 304/3/6 307/3/6
f 307/3/6 304/3/6 308/3/6
f 309/3/6 310/3/6 313/3/6
f 313/3/6 310/3/6 314/3/6
f 311/3/6 312/3/6 315/3/6
f 315/3/6 312/3/6 316/3/6
f 313/4/6 314/4/6 317/4/6
f 317/4/6 314/4/6 318/4/6
f 315/4/6 316/4/6 319/4/6
f 319/4/6 316/4/6 320/4/6
f 321/4/6 322/4/6 327/4/6
f 322/3/6 323/3/6 328/3/6
f 327/4/6 322/4/6 328/4/6
f 328/3/6 323/3/6 329/3/6
f 324/3/6 325/3/6 330/3/6
f 325/4/6 326/4/6 331/4/6
f 330/3/6 325/3/6 331/3/6
f 331/4/6 326/4/6 332/4/6
f 333/2/6 334/2/6 337/2/6
f 337/2/6 334/2/6 338/2/6
f 335/2/6 336/2/6 339/2/6
f 339/2/6 336/2/6 340/2/6
f 333/2/6 337/2/6 341/2/6
f 341/2/6 337/2/6 342/2/6
f 340/2/6 336/2/6 343/2/6
f 343/2/6 336/2/6 344/2/6
f 345/2/6 346/2/6 349/2/6
f 347/2/6 348/2/6 352/2/6
f 349/2/6 350/2/6 353/2/6
f 345/2/6 349/2/6 353/2/6
f 353/2/6 350/2/6 354/2/6
f 351/2/6 352/2/6 355/2/6
f 352/2/6 348/2/6 356/2/6
f 355/2/6 352/2/6 356/2/6
f 357/1/6 358/1/6 361/1/6
f 359/1/6 360/1/6 362/1/6
f 357/1/6 361/1/6 363/1/6
f 363/1/6 361/1/6 364/1/6
f 362/1/6 360/1/6 365/1/6
f 365/1/6 360/1/6 366/1/6
f 357/1/6 363/1/6 367/1/6
f 367/1/6 363/1/6 368/1/6
f 368/1/6 363/1/6 369/1/6
f 366/1/6 360/1/6 370/1/6
f 370/1/6 360/1/6 371/1/6
f 371/1/6 360/1/6 372/1/6
f 373/1/6 374/1/6 379/1/6
f 374/1/6 375/1/6 379/1/6
f 377/1/6 378/1/6 382/1/6
f 376/1/6 377/1/6 382/1/6
f 379/1/6 380/1/6 383/1/6
f 381/1/6 382/1/6 384/1/6
f 379/1/6 383/1/6 385/1/6
f 373/1/6 379/1/6 385/1/6
f 385/1/6 383/1/6 386/1/6
f 384/1/6 382/1/6 387/1/6
f 382/1/6 378/1/6 388/1/6
f 387/1/6 382/1/6 388/1/6
f 389/3/6 390/3/6 391/3/6
f 391/3/6 390/3/6 392/3/6
f 391/2/6 392/2/6 394/2/6
f 394/2/6 392/2/6 395/2/6
f 394/2/6 395/2/6 399/2/6
f 393/2/6 394/2/6 399/2/6
f 395/2/6 396/2/6 399/2/6
f 399/2/6 396/2/6 400/2/6
f 397/3/6 398/3/6 403/3/6
f 398/2/6 399/2/6 404/2/6
f 403/3/6 398/3/6 404/3/6
f 399/2/6 400/2/6 404/2/6
f 400/2/6 401/2/6 404/2/6
f 404/2/6 401/2/6 405/2/6
f 405/2/6 401/2/6 406/2/6
f 401/3/6 402/3/6 407/3/6
f 406/2/6 401/2/6 407/2/6
f 407/3/6 402/3/6 408/3/6
f 405/2/6 406/2/6 409/2/6
f 409/2/6 406/2/6 410/2/6
f 410/2/6 406/2/6 411/2/6
f 411/2/6 406/2/6 412/2/6
f 410/2/6 411/2/6 413/2/6
f 413/2/6 411/2/6 414/2/6
f 413/3/6 414/3/6 415/3/6
f 415/3/6 414/3/6 416/3/6
