# MagicaVoxel @ Ephtracy

# material
mtllib Base.mtl
usemtl palette

# normals
vn -1 0 0
vn 1 0 0
vn 0 0 1
vn 0 0 -1
vn 0 -1 0
vn 0 1 0

# texcoords
vt 0.548828 0.5
vt 0.822266 0.5
vt 0.826172 0.5
vt 0.833984 0.5

# verts
v -5 0 5
v -5 0 2
v -5 0 -2
v -5 0 -5
v -5 1 5
v -5 1 3
v -5 1 -3
v -5 1 -5
v -5 3 2
v -5 3 -2
v -5 4 3
v -5 4 -3
v -5 6 3
v -5 6 -3
v -5 7 2
v -5 7 -2
v -5 9 2
v -5 9 -2
v -5 10 3
v -5 10 -3
v -4 1 4
v -4 1 3
v -4 1 -3
v -4 1 -4
v -4 4 3
v -4 4 -3
v -4 6 3
v -4 6 -3
v -4 9 4
v -4 9 3
v -4 9 -3
v -4 9 -4
v -3 1 5
v -3 1 4
v -3 1 -4
v -3 1 -5
v -3 4 5
v -3 4 4
v -3 4 -4
v -3 4 -5
v -3 6 5
v -3 6 4
v -3 6 -4
v -3 6 -5
v -3 9 4
v -3 9 -4
v -3 10 5
v -3 10 4
v -3 10 -4
v -3 10 -5
v -2 9 4
v -2 9 3
v -2 9 -3
v -2 9 -4
v -2 10 4
v -2 10 3
v -2 10 -3
v -2 10 -4
v -1 9 1
v -1 9 -1
v -1 10 1
v -1 10 -1
v 3 9 2
v 3 9 -2
v 3 10 2
v 3 10 -2
v 4 9 3
v 4 9 2
v 4 9 -2
v 4 9 -3
v 4 10 3
v 4 10 2
v 4 10 -2
v 4 10 -3
v -4 9 3
v -4 9 2
v -4 9 -2
v -4 9 -3
v -4 10 3
v -4 10 2
v -4 10 -2
v -4 10 -3
v -3 9 2
v -3 9 -2
v -3 10 2
v -3 10 -2
v 1 9 1
v 1 9 -1
v 1 10 1
v 1 10 -1
v 2 9 4
v 2 9 3
v 2 9 -3
v 2 9 -4
v 2 10 4
v 2 10 3
v 2 10 -3
v 2 10 -4
v 3 1 5
v 3 1 4
v 3 1 -4
v 3 1 -5
v 3 4 5
v 3 4 4
v 3 4 -4
v 3 4 -5
v 3 6 5
v 3 6 4
v 3 6 -4
v 3 6 -5
v 3 9 4
v 3 9 -4
v 3 10 5
v 3 10 4
v 3 10 -4
v 3 10 -5
v 4 1 4
v 4 1 3
v 4 1 -3
v 4 1 -4
v 4 4 3
v 4 4 -3
v 4 6 3
v 4 6 -3
v 4 9 4
v 4 9 3
v 4 9 -3
v 4 9 -4
v 5 0 5
v 5 0 2
v 5 0 -2
v 5 0 -5
v 5 1 5
v 5 1 3
v 5 1 -3
v 5 1 -5
v 5 3 2
v 5 3 -2
v 5 4 3
v 5 4 -3
v 5 6 3
v 5 6 -3
v 5 7 2
v 5 7 -2
v 5 9 2
v 5 9 -2
v 5 10 3
v 5 10 -3
v -5 0 5
v -5 1 5
v -3 1 5
v -3 4 5
v -3 6 5
v -3 10 5
v -2 0 5
v -2 3 5
v -2 7 5
v -2 9 5
v 2 0 5
v 2 3 5
v 2 7 5
v 2 9 5
v 3 1 5
v 3 4 5
v 3 6 5
v 3 10 5
v 5 0 5
v 5 1 5
v -4 1 4
v -4 9 4
v -3 1 4
v -3 4 4
v -3 6 4
v -3 9 4
v 3 1 4
v 3 4 4
v 3 6 4
v 3 9 4
v 4 1 4
v 4 9 4
v -5 1 3
v -5 4 3
v -5 6 3
v -5 10 3
v -4 1 3
v -4 4 3
v -4 6 3
v -4 9 3
v -4 10 3
v 4 1 3
v 4 4 3
v 4 6 3
v 4 9 3
v 4 10 3
v 5 1 3
v 5 4 3
v 5 6 3
v 5 10 3
v -4 9 2
v -4 10 2
v -3 9 2
v -3 10 2
v 3 9 2
v 3 10 2
v 4 9 2
v 4 10 2
v -1 9 1
v -1 10 1
v 1 9 1
v 1 10 1
v -2 9 -3
v -2 10 -3
v 2 9 -3
v 2 10 -3
v -3 9 -4
v -3 10 -4
v -2 9 -4
v -2 10 -4
v 2 9 -4
v 2 10 -4
v 3 9 -4
v 3 10 -4
v -3 9 4
v -3 10 4
v -2 9 4
v -2 10 4
v 2 9 4
v 2 10 4
v 3 9 4
v 3 10 4
v -2 9 3
v -2 10 3
v 2 9 3
v 2 10 3
v -1 9 -1
v -1 10 -1
v 1 9 -1
v 1 10 -1
v -4 9 -2
v -4 10 -2
v -3 9 -2
v -3 10 -2
v 3 9 -2
v 3 10 -2
v 4 9 -2
v 4 10 -2
v -5 1 -3
v -5 4 -3
v -5 6 -3
v -5 10 -3
v -4 1 -3
v -4 4 -3
v -4 6 -3
v -4 9 -3
v -4 10 -3
v 4 1 -3
v 4 4 -3
v 4 6 -3
v 4 9 -3
v 4 10 -3
v 5 1 -3
v 5 4 -3
v 5 6 -3
v 5 10 -3
v -4 1 -4
v -4 9 -4
v -3 1 -4
v -3 4 -4
v -3 6 -4
v -3 9 -4
v 3 1 -4
v 3 4 -4
v 3 6 -4
v 3 9 -4
v 4 1 -4
v 4 9 -4
v -5 0 -5
v -5 1 -5
v -3 1 -5
v -3 4 -5
v -3 6 -5
v -3 10 -5
v -2 0 -5
v -2 3 -5
v -2 7 -5
v -2 9 -5
v 2 0 -5
v 2 3 -5
v 2 7 -5
v 2 9 -5
v 3 1 -5
v 3 4 -5
v 3 6 -5
v 3 10 -5
v 5 0 -5
v 5 1 -5
v -5 0 5
v -2 0 5
v 2 0 5
v 5 0 5
v -4 0 4
v -2 0 4
v 2 0 4
v 4 0 4
v -5 0 2
v -4 0 2
v 4 0 2
v 5 0 2
v -5 0 -2
v -4 0 -2
v 4 0 -2
v 5 0 -2
v -4 0 -4
v -2 0 -4
v 2 0 -4
v 4 0 -4
v -5 0 -5
v -2 0 -5
v 2 0 -5
v 5 0 -5
v -3 6 5
v 3 6 5
v -3 6 4
v 3 6 4
v -5 6 3
v -4 6 3
v 4 6 3
v 5 6 3
v -5 6 -3
v -4 6 -3
v 4 6 -3
v 5 6 -3
v -3 6 -4
v 3 6 -4
v -3 6 -5
v 3 6 -5
v -5 1 5
v -3 1 5
v 3 1 5
v 5 1 5
v -4 1 4
v -3 1 4
v 3 1 4
v 4 1 4
v -5 1 3
v -4 1 3
v 4 1 3
v 5 1 3
v -5 1 -3
v -4 1 -3
v 4 1 -3
v 5 1 -3
v -4 1 -4
v -3 1 -4
v 3 1 -4
v 4 1 -4
v -5 1 -5
v -3 1 -5
v 3 1 -5
v 5 1 -5
v -3 4 5
v 3 4 5
v -3 4 4
v 3 4 4
v -5 4 3
v -4 4 3
v 4 4 3
v 5 4 3
v -5 4 -3
v -4 4 -3
v 4 4 -3
v 5 4 -3
v -3 4 -4
v 3 4 -4
v -3 4 -5
v 3 4 -5
v -4 9 4
v -3 9 4
v -2 9 4
v 2 9 4
v 3 9 4
v 4 9 4
v -4 9 3
v -2 9 3
v 2 9 3
v 4 9 3
v -4 9 2
v -3 9 2
v 3 9 2
v 4 9 2
v -1 9 1
v 1 9 1
v -1 9 -1
v 1 9 -1
v -4 9 -2
v -3 9 -2
v 3 9 -2
v 4 9 -2
v -4 9 -3
v -2 9 -3
v 2 9 -3
v 4 9 -3
v -4 9 -4
v -3 9 -4
v -2 9 -4
v 2 9 -4
v 3 9 -4
v 4 9 -4
v -3 10 5
v 3 10 5
v -3 10 4
v -2 10 4
v 2 10 4
v 3 10 4
v -5 10 3
v -4 10 3
v -2 10 3
v 2 10 3
v 4 10 3
v 5 10 3
v -4 10 2
v -3 10 2
v 3 10 2
v 4 10 2
v -1 10 1
v 1 10 1
v -1 10 -1
v 1 10 -1
v -4 10 -2
v -3 10 -2
v 3 10 -2
v 4 10 -2
v -5 10 -3
v -4 10 -3
v -2 10 -3
v 2 10 -3
v 4 10 -3
v 5 10 -3
v -3 10 -4
v -2 10 -4
v 2 10 -4
v 3 10 -4
v -3 10 -5
v 3 10 -5

# faces
f 5/3/1 2/3/1 1/3/1
f 6/3/1 2/3/1 5/3/1
f 7/3/1 4/3/1 3/3/1
f 8/3/1 4/3/1 7/3/1
f 9/3/1 2/3/1 6/3/1
f 9/2/1 3/2/1 2/2/1
f 10/3/1 7/3/1 3/3/1
f 10/2/1 3/2/1 9/2/1
f 11/3/1 9/3/1 6/3/1
f 11/3/1 10/3/1 9/3/1
f 12/3/1 7/3/1 10/3/1
f 12/3/1 10/3/1 11/3/1
f 15/3/1 14/3/1 13/3/1
f 16/3/1 14/3/1 15/3/1
f 17/3/1 15/3/1 13/3/1
f 17/4/1 16/4/1 15/4/1
f 18/3/1 14/3/1 16/3/1
f 18/4/1 16/4/1 17/4/1
f 19/3/1 17/3/1 13/3/1
f 19/3/1 18/3/1 17/3/1
f 20/3/1 14/3/1 18/3/1
f 20/3/1 18/3/1 19/3/1
f 25/1/1 22/1/1 21/1/1
f 26/1/1 24/1/1 23/1/1
f 27/1/1 25/1/1 21/1/1
f 27/1/1 26/1/1 25/1/1
f 28/1/1 24/1/1 26/1/1
f 28/1/1 26/1/1 27/1/1
f 29/1/1 27/1/1 21/1/1
f 30/1/1 27/1/1 29/1/1
f 31/1/1 24/1/1 28/1/1
f 32/1/1 24/1/1 31/1/1
f 37/3/1 34/3/1 33/3/1
f 38/3/1 34/3/1 37/3/1
f 39/3/1 36/3/1 35/3/1
f 40/3/1 36/3/1 39/3/1
f 45/3/1 42/3/1 41/3/1
f 46/3/1 44/3/1 43/3/1
f 47/3/1 45/3/1 41/3/1
f 48/3/1 45/3/1 47/3/1
f 49/3/1 44/3/1 46/3/1
f 50/3/1 44/3/1 49/3/1
f 55/3/1 52/3/1 51/3/1
f 56/3/1 52/3/1 55/3/1
f 57/3/1 54/3/1 53/3/1
f 58/3/1 54/3/1 57/3/1
f 61/1/1 60/1/1 59/1/1
f 62/1/1 60/1/1 61/1/1
f 65/3/1 64/3/1 63/3/1
f 66/3/1 64/3/1 65/3/1
f 71/3/1 68/3/1 67/3/1
f 72/3/1 68/3/1 71/3/1
f 73/3/1 70/3/1 69/3/1
f 74/3/1 70/3/1 73/3/1
f 75/3/2 76/3/2 79/3/2
f 79/3/2 76/3/2 80/3/2
f 77/3/2 78/3/2 81/3/2
f 81/3/2 78/3/2 82/3/2
f 83/3/2 84/3/2 85/3/2
f 85/3/2 84/3/2 86/3/2
f 87/1/2 88/1/2 89/1/2
f 89/1/2 88/1/2 90/1/2
f 91/3/2 92/3/2 95/3/2
f 95/3/2 92/3/2 96/3/2
f 93/3/2 94/3/2 97/3/2
f 97/3/2 94/3/2 98/3/2
f 99/3/2 100/3/2 103/3/2
f 103/3/2 100/3/2 104/3/2
f 101/3/2 102/3/2 105/3/2
f 105/3/2 102/3/2 106/3/2
f 107/3/2 108/3/2 111/3/2
f 109/3/2 110/3/2 112/3/2
f 107/3/2 111/3/2 113/3/2
f 113/3/2 111/3/2 114/3/2
f 112/3/2 110/3/2 115/3/2
f 115/3/2 110/3/2 116/3/2
f 117/1/2 118/1/2 121/1/2
f 119/1/2 120/1/2 122/1/2
f 117/1/2 121/1/2 123/1/2
f 121/1/2 122/1/2 123/1/2
f 122/1/2 120/1/2 124/1/2
f 123/1/2 122/1/2 124/1/2
f 117/1/2 123/1/2 125/1/2
f 125/1/2 123/1/2 126/1/2
f 124/1/2 120/1/2 127/1/2
f 127/1/2 120/1/2 128/1/2
f 129/3/2 130/3/2 133/3/2
f 133/3/2 130/3/2 134/3/2
f 131/3/2 132/3/2 135/3/2
f 135/3/2 132/3/2 136/3/2
f 134/3/2 130/3/2 137/3/2
f 130/2/2 131/2/2 137/2/2
f 131/3/2 135/3/2 138/3/2
f 137/2/2 131/2/2 138/2/2
f 134/3/2 137/3/2 139/3/2
f 137/3/2 138/3/2 139/3/2
f 138/3/2 135/3/2 140/3/2
f 139/3/2 138/3/2 140/3/2
f 141/3/2 142/3/2 143/3/2
f 143/3/2 142/3/2 144/3/2
f 141/3/2 143/3/2 145/3/2
f 143/4/2 144/4/2 145/4/2
f 144/3/2 142/3/2 146/3/2
f 145/4/2 144/4/2 146/4/2
f 141/3/2 145/3/2 147/3/2
f 145/3/2 146/3/2 147/3/2
f 146/3/2 142/3/2 148/3/2
f 147/3/2 146/3/2 148/3/2
f 151/3/3 150/3/3 149/3/3
f 155/3/3 151/3/3 149/3/3
f 155/3/3 152/3/3 151/3/3
f 156/3/3 152/3/3 155/3/3
f 157/3/3 154/3/3 153/3/3
f 158/3/3 154/3/3 157/3/3
f 159/2/3 156/2/3 155/2/3
f 160/3/3 152/3/3 156/3/3
f 160/2/3 156/2/3 159/2/3
f 161/3/3 157/3/3 153/3/3
f 161/4/3 158/4/3 157/4/3
f 162/3/3 154/3/3 158/3/3
f 162/4/3 158/4/3 161/4/3
f 163/3/3 160/3/3 159/3/3
f 164/3/3 152/3/3 160/3/3
f 164/3/3 160/3/3 163/3/3
f 165/3/3 161/3/3 153/3/3
f 165/3/3 162/3/3 161/3/3
f 166/3/3 154/3/3 162/3/3
f 166/3/3 162/3/3 165/3/3
f 167/3/3 163/3/3 159/3/3
f 168/3/3 163/3/3 167/3/3
f 171/1/3 170/1/3 169/1/3
f 172/1/3 170/1/3 171/1/3
f 173/1/3 170/1/3 172/1/3
f 174/1/3 170/1/3 173/1/3
f 176/1/3 173/1/3 172/1/3
f 177/1/3 173/1/3 176/1/3
f 179/1/3 176/1/3 175/1/3
f 179/1/3 178/1/3 177/1/3
f 179/1/3 177/1/3 176/1/3
f 180/1/3 178/1/3 179/1/3
f 185/3/3 182/3/3 181/3/3
f 186/3/3 182/3/3 185/3/3
f 187/3/3 184/3/3 183/3/3
f 188/3/3 184/3/3 187/3/3
f 189/3/3 184/3/3 188/3/3
f 195/3/3 191/3/3 190/3/3
f 196/3/3 191/3/3 195/3/3
f 197/3/3 194/3/3 193/3/3
f 197/3/3 193/3/3 192/3/3
f 198/3/3 194/3/3 197/3/3
f 201/3/3 200/3/3 199/3/3
f 202/3/3 200/3/3 201/3/3
f 205/3/3 204/3/3 203/3/3
f 206/3/3 204/3/3 205/3/3
f 209/1/3 208/1/3 207/1/3
f 210/1/3 208/1/3 209/1/3
f 213/3/3 212/3/3 211/3/3
f 214/3/3 212/3/3 213/3/3
f 217/3/3 216/3/3 215/3/3
f 218/3/3 216/3/3 217/3/3
f 221/3/3 220/3/3 219/3/3
f 222/3/3 220/3/3 221/3/3
f 223/3/4 224/3/4 225/3/4
f 225/3/4 224/3/4 226/3/4
f 227/3/4 228/3/4 229/3/4
f 229/3/4 228/3/4 230/3/4
f 231/3/4 232/3/4 233/3/4
f 233/3/4 232/3/4 234/3/4
f 235/1/4 236/1/4 237/1/4
f 237/1/4 236/1/4 238/1/4
f 239/3/4 240/3/4 241/3/4
f 241/3/4 240/3/4 242/3/4
f 243/3/4 244/3/4 245/3/4
f 245/3/4 244/3/4 246/3/4
f 247/3/4 248/3/4 251/3/4
f 251/3/4 248/3/4 252/3/4
f 249/3/4 250/3/4 253/3/4
f 253/3/4 250/3/4 254/3/4
f 254/3/4 250/3/4 255/3/4
f 256/3/4 257/3/4 261/3/4
f 261/3/4 257/3/4 262/3/4
f 259/3/4 260/3/4 263/3/4
f 258/3/4 259/3/4 263/3/4
f 263/3/4 260/3/4 264/3/4
f 265/1/4 266/1/4 267/1/4
f 267/1/4 266/1/4 268/1/4
f 268/1/4 266/1/4 269/1/4
f 269/1/4 266/1/4 270/1/4
f 268/1/4 269/1/4 272/1/4
f 272/1/4 269/1/4 273/1/4
f 271/1/4 272/1/4 275/1/4
f 273/1/4 274/1/4 275/1/4
f 272/1/4 273/1/4 275/1/4
f 275/1/4 274/1/4 276/1/4
f 277/3/4 278/3/4 279/3/4
f 277/3/4 279/3/4 283/3/4
f 279/3/4 280/3/4 283/3/4
f 283/3/4 280/3/4 284/3/4
f 281/3/4 282/3/4 285/3/4
f 285/3/4 282/3/4 286/3/4
f 283/2/4 284/2/4 287/2/4
f 284/3/4 280/3/4 288/3/4
f 287/2/4 284/2/4 288/2/4
f 281/3/4 285/3/4 289/3/4
f 285/4/4 286/4/4 289/4/4
f 286/3/4 282/3/4 290/3/4
f 289/4/4 286/4/4 290/4/4
f 287/3/4 288/3/4 291/3/4
f 288/3/4 280/3/4 292/3/4
f 291/3/4 288/3/4 292/3/4
f 281/3/4 289/3/4 293/3/4
f 289/3/4 290/3/4 293/3/4
f 290/3/4 282/3/4 294/3/4
f 293/3/4 290/3/4 294/3/4
f 287/3/4 291/3/4 295/3/4
f 295/3/4 291/3/4 296/3/4
f 301/3/5 298/3/5 297/3/5
f 302/2/5 299/2/5 298/2/5
f 302/3/5 298/3/5 301/3/5
f 303/3/5 300/3/5 299/3/5
f 303/2/5 299/2/5 302/2/5
f 304/3/5 300/3/5 303/3/5
f 305/3/5 301/3/5 297/3/5
f 306/1/5 302/1/5 301/1/5
f 306/3/5 301/3/5 305/3/5
f 306/1/5 303/1/5 302/1/5
f 306/1/5 304/1/5 303/1/5
f 307/3/5 300/3/5 304/3/5
f 307/1/5 304/1/5 306/1/5
f 308/3/5 300/3/5 307/3/5
f 309/2/5 306/2/5 305/2/5
f 310/1/5 307/1/5 306/1/5
f 310/2/5 306/2/5 309/2/5
f 311/2/5 308/2/5 307/2/5
f 311/1/5 307/1/5 310/1/5
f 312/2/5 308/2/5 311/2/5
f 313/3/5 310/3/5 309/3/5
f 313/1/5 311/1/5 310/1/5
f 314/1/5 311/1/5 313/1/5
f 315/1/5 311/1/5 314/1/5
f 316/3/5 312/3/5 311/3/5
f 316/1/5 311/1/5 315/1/5
f 317/3/5 313/3/5 309/3/5
f 317/3/5 314/3/5 313/3/5
f 318/2/5 315/2/5 314/2/5
f 318/3/5 314/3/5 317/3/5
f 319/3/5 316/3/5 315/3/5
f 319/2/5 315/2/5 318/2/5
f 320/3/5 312/3/5 316/3/5
f 320/3/5 316/3/5 319/3/5
f 323/3/5 322/3/5 321/3/5
f 324/3/5 322/3/5 323/3/5
f 329/3/5 326/3/5 325/3/5
f 330/3/5 326/3/5 329/3/5
f 331/3/5 328/3/5 327/3/5
f 332/3/5 328/3/5 331/3/5
f 335/3/5 334/3/5 333/3/5
f 336/3/5 334/3/5 335/3/5
f 337/3/6 338/3/6 341/3/6
f 341/3/6 338/3/6 342/3/6
f 339/3/6 340/3/6 343/3/6
f 343/3/6 340/3/6 344/3/6
f 337/3/6 341/3/6 345/3/6
f 345/3/6 341/3/6 346/3/6
f 344/3/6 340/3/6 347/3/6
f 347/3/6 340/3/6 348/3/6
f 349/3/6 350/3/6 353/3/6
f 351/3/6 352/3/6 356/3/6
f 353/3/6 354/3/6 357/3/6
f 349/3/6 353/3/6 357/3/6
f 357/3/6 354/3/6 358/3/6
f 355/3/6 356/3/6 359/3/6
f 356/3/6 352/3/6 360/3/6
f 359/3/6 356/3/6 360/3/6
f 361/3/6 362/3/6 363/3/6
f 363/3/6 362/3/6 364/3/6
f 365/3/6 366/3/6 369/3/6
f 369/3/6 366/3/6 370/3/6
f 367/3/6 368/3/6 371/3/6
f 371/3/6 368/3/6 372/3/6
f 373/3/6 374/3/6 375/3/6
f 375/3/6 374/3/6 376/3/6
f 377/1/6 378/1/6 383/1/6
f 378/1/6 379/1/6 383/1/6
f 383/1/6 379/1/6 384/1/6
f 381/1/6 382/1/6 385/1/6
f 380/1/6 381/1/6 385/1/6
f 385/1/6 382/1/6 386/1/6
f 383/1/6 384/1/6 387/1/6
f 384/1/6 385/1/6 387/1/6
f 385/1/6 386/1/6 387/1/6
f 387/1/6 386/1/6 388/1/6
f 388/1/6 386/1/6 389/1/6
f 389/1/6 386/1/6 390/1/6
f 388/1/6 389/1/6 391/1/6
f 391/1/6 389/1/6 392/1/6
f 388/1/6 391/1/6 393/1/6
f 392/1/6 389/1/6 394/1/6
f 388/1/6 393/1/6 396/1/6
f 393/1/6 394/1/6 396/1/6
f 394/1/6 389/1/6 397/1/6
f 396/1/6 394/1/6 397/1/6
f 395/1/6 396/1/6 399/1/6
f 397/1/6 398/1/6 399/1/6
f 396/1/6 397/1/6 399/1/6
f 399/1/6 398/1/6 400/1/6
f 400/1/6 398/1/6 401/1/6
f 401/1/6 398/1/6 402/1/6
f 399/1/6 400/1/6 403/1/6
f 403/1/6 400/1/6 404/1/6
f 404/1/6 400/1/6 405/1/6
f 401/1/6 402/1/6 406/1/6
f 406/1/6 402/1/6 407/1/6
f 407/1/6 402/1/6 408/1/6
f 409/3/6 410/3/6 411/3/6
f 411/3/6 410/3/6 412/3/6
f 412/3/6 410/3/6 413/3/6
f 413/3/6 410/3/6 414/3/6
f 412/3/6 413/3/6 417/3/6
f 417/3/6 413/3/6 418/3/6
f 415/3/6 416/3/6 421/3/6
f 419/3/6 420/3/6 424/3/6
f 425/1/6 426/1/6 427/1/6
f 427/1/6 426/1/6 428/1/6
f 421/3/6 422/3/6 429/3/6
f 415/3/6 421/3/6 429/3/6
f 429/3/6 422/3/6 430/3/6
f 423/3/6 424/3/6 431/3/6
f 424/3/6 420/3/6 432/3/6
f 431/3/6 424/3/6 432/3/6
f 415/3/6 429/3/6 433/3/6
f 433/3/6 429/3/6 434/3/6
f 432/3/6 420/3/6 437/3/6
f 437/3/6 420/3/6 438/3/6
f 435/3/6 436/3/6 440/3/6
f 440/3/6 436/3/6 441/3/6
f 439/3/6 440/3/6 443/3/6
f 441/3/6 442/3/6 443/3/6
f 440/3/6 441/3/6 443/3/6
f 443/3/6 442/3/6 444/3/6
