# MagicaVoxel @ Ephtracy

# material
mtllib Turret.mtl
usemtl palette

# normals
vn -1 0 0
vn 1 0 0
vn 0 0 1
vn 0 0 -1
vn 0 -1 0
vn 0 1 0

# texcoords
vt 0.533203 0.5
vt 0.548828 0.5
vt 0.822266 0.5
vt 0.826172 0.5

# verts
v -5 1 2
v -5 1 -2
v -5 2 1
v -5 2 -2
v -5 4 1
v -5 4 -2
v -5 5 1
v -5 5 -2
v -5 7 1
v -5 7 -2
v -5 8 1
v -5 8 -2
v -5 10 1
v -5 10 -2
v -5 11 2
v -5 11 -2
v -2 2 2
v -2 2 1
v -2 4 2
v -2 4 1
v -2 5 2
v -2 5 1
v -2 7 2
v -2 7 1
v -2 8 2
v -2 8 1
v -2 10 2
v -2 10 1
v -1 0 1
v -1 0 -1
v -1 1 1
v -1 1 -1
v 1 1 2
v 1 1 1
v 1 1 -1
v 1 1 -2
v 1 2 -1
v 1 2 -2
v 1 10 1
v 1 10 -1
v 1 10 -2
v 1 11 2
v 1 11 -2
v 4 2 2
v 4 2 1
v 4 4 2
v 4 4 1
v 4 5 2
v 4 5 1
v 4 7 2
v 4 7 1
v 4 8 2
v 4 8 1
v 4 10 2
v 4 10 1
v -4 2 2
v -4 2 1
v -4 4 2
v -4 4 1
v -4 5 2
v -4 5 1
v -4 7 2
v -4 7 1
v -4 8 2
v -4 8 1
v -4 10 2
v -4 10 1
v -1 1 2
v -1 1 1
v -1 1 -1
v -1 1 -2
v -1 2 -1
v -1 2 -2
v -1 10 1
v -1 10 -1
v -1 10 -2
v -1 11 2
v -1 11 -2
v 1 0 1
v 1 0 -1
v 1 1 1
v 1 1 -1
v 2 2 2
v 2 2 1
v 2 4 2
v 2 4 1
v 2 5 2
v 2 5 1
v 2 7 2
v 2 7 1
v 2 8 2
v 2 8 1
v 2 10 2
v 2 10 1
v 5 1 2
v 5 1 -2
v 5 2 1
v 5 2 -2
v 5 4 1
v 5 4 -2
v 5 5 1
v 5 5 -2
v 5 7 1
v 5 7 -2
v 5 8 1
v 5 8 -2
v 5 10 1
v 5 10 -2
v 5 11 2
v 5 11 -2
v -5 1 2
v -5 11 2
v -4 2 2
v -4 4 2
v -4 5 2
v -4 7 2
v -4 8 2
v -4 10 2
v -2 2 2
v -2 4 2
v -2 5 2
v -2 7 2
v -2 8 2
v -2 10 2
v -1 1 2
v -1 11 2
v 1 1 2
v 1 11 2
v 2 2 2
v 2 4 2
v 2 5 2
v 2 7 2
v 2 8 2
v 2 10 2
v 4 2 2
v 4 4 2
v 4 5 2
v 4 7 2
v 4 8 2
v 4 10 2
v 5 1 2
v 5 11 2
v -4 2 1
v -4 4 1
v -4 5 1
v -4 7 1
v -4 8 1
v -4 10 1
v -2 2 1
v -2 4 1
v -2 5 1
v -2 7 1
v -2 8 1
v -2 10 1
v -1 0 1
v -1 1 1
v -1 10 1
v 1 0 1
v 1 1 1
v 1 10 1
v 2 2 1
v 2 4 1
v 2 5 1
v 2 7 1
v 2 8 1
v 2 10 1
v 4 2 1
v 4 4 1
v 4 5 1
v 4 7 1
v 4 8 1
v 4 10 1
v -1 0 -1
v -1 1 -1
v -1 2 -1
v 1 0 -1
v 1 1 -1
v 1 2 -1
v -5 1 -2
v -5 2 -2
v -5 4 -2
v -5 5 -2
v -5 7 -2
v -5 8 -2
v -5 10 -2
v -5 11 -2
v -1 1 -2
v -1 2 -2
v -1 10 -2
v -1 11 -2
v 1 1 -2
v 1 2 -2
v 1 10 -2
v 1 11 -2
v 5 1 -2
v 5 2 -2
v 5 4 -2
v 5 5 -2
v 5 7 -2
v 5 8 -2
v 5 10 -2
v 5 11 -2
v -1 0 1
v 1 0 1
v -1 0 -1
v 1 0 -1
v -5 1 2
v -1 1 2
v 1 1 2
v 5 1 2
v -1 1 1
v 1 1 1
v -1 1 -1
v 1 1 -1
v -5 1 -2
v -1 1 -2
v 1 1 -2
v 5 1 -2
v -1 2 -1
v 1 2 -1
v -1 2 -2
v 1 2 -2
v -4 4 2
v -2 4 2
v 2 4 2
v 4 4 2
v -4 4 1
v -2 4 1
v 2 4 1
v 4 4 1
v -4 7 2
v -2 7 2
v 2 7 2
v 4 7 2
v -4 7 1
v -2 7 1
v 2 7 1
v 4 7 1
v -4 10 2
v -2 10 2
v 2 10 2
v 4 10 2
v -4 10 1
v -2 10 1
v 2 10 1
v 4 10 1
v -4 2 2
v -2 2 2
v 2 2 2
v 4 2 2
v -4 2 1
v -2 2 1
v 2 2 1
v 4 2 1
v -4 5 2
v -2 5 2
v 2 5 2
v 4 5 2
v -4 5 1
v -2 5 1
v 2 5 1
v 4 5 1
v -4 8 2
v -2 8 2
v 2 8 2
v 4 8 2
v -4 8 1
v -2 8 1
v 2 8 1
v 4 8 1
v -1 10 1
v 1 10 1
v -1 10 -1
v 1 10 -1
v -1 10 -2
v 1 10 -2
v -5 11 2
v -1 11 2
v 1 11 2
v 5 11 2
v -5 11 -2
v -1 11 -2
v 1 11 -2
v 5 11 -2

# faces
f 3/4/1 2/4/1 1/4/1
f 4/4/1 2/4/1 3/4/1
f 5/4/1 3/4/1 1/4/1
f 5/3/1 4/3/1 3/3/1
f 6/3/1 4/3/1 5/3/1
f 7/4/1 5/4/1 1/4/1
f 7/4/1 6/4/1 5/4/1
f 8/4/1 6/4/1 7/4/1
f 9/4/1 7/4/1 1/4/1
f 9/3/1 8/3/1 7/3/1
f 10/3/1 8/3/1 9/3/1
f 11/4/1 9/4/1 1/4/1
f 11/4/1 10/4/1 9/4/1
f 12/4/1 10/4/1 11/4/1
f 13/4/1 11/4/1 1/4/1
f 13/3/1 12/3/1 11/3/1
f 14/3/1 12/3/1 13/3/1
f 15/4/1 13/4/1 1/4/1
f 15/4/1 14/4/1 13/4/1
f 16/4/1 14/4/1 15/4/1
f 19/4/1 18/4/1 17/4/1
f 20/4/1 18/4/1 19/4/1
f 23/4/1 22/4/1 21/4/1
f 24/4/1 22/4/1 23/4/1
f 27/4/1 26/4/1 25/4/1
f 28/4/1 26/4/1 27/4/1
f 31/2/1 30/2/1 29/2/1
f 32/2/1 30/2/1 31/2/1
f 37/4/1 36/4/1 35/4/1
f 38/4/1 36/4/1 37/4/1
f 39/4/1 34/4/1 33/4/1
f 42/4/1 39/4/1 33/4/1
f 42/4/1 41/4/1 40/4/1
f 42/4/1 40/4/1 39/4/1
f 43/4/1 41/4/1 42/4/1
f 46/4/1 45/4/1 44/4/1
f 47/4/1 45/4/1 46/4/1
f 50/4/1 49/4/1 48/4/1
f 51/4/1 49/4/1 50/4/1
f 54/4/1 53/4/1 52/4/1
f 55/4/1 53/4/1 54/4/1
f 56/4/2 57/4/2 58/4/2
f 58/4/2 57/4/2 59/4/2
f 60/4/2 61/4/2 62/4/2
f 62/4/2 61/4/2 63/4/2
f 64/4/2 65/4/2 66/4/2
f 66/4/2 65/4/2 67/4/2
f 70/4/2 71/4/2 72/4/2
f 72/4/2 71/4/2 73/4/2
f 68/4/2 69/4/2 74/4/2
f 68/4/2 74/4/2 77/4/2
f 75/4/2 76/4/2 77/4/2
f 74/4/2 75/4/2 77/4/2
f 77/4/2 76/4/2 78/4/2
f 79/2/2 80/2/2 81/2/2
f 81/2/2 80/2/2 82/2/2
f 83/4/2 84/4/2 85/4/2
f 85/4/2 84/4/2 86/4/2
f 87/4/2 88/4/2 89/4/2
f 89/4/2 88/4/2 90/4/2
f 91/4/2 92/4/2 93/4/2
f 93/4/2 92/4/2 94/4/2
f 95/4/2 96/4/2 97/4/2
f 97/4/2 96/4/2 98/4/2
f 95/4/2 97/4/2 99/4/2
f 97/3/2 98/3/2 99/3/2
f 99/3/2 98/3/2 100/3/2
f 95/4/2 99/4/2 101/4/2
f 99/4/2 100/4/2 101/4/2
f 101/4/2 100/4/2 102/4/2
f 95/4/2 101/4/2 103/4/2
f 101/3/2 102/3/2 103/3/2
f 103/3/2 102/3/2 104/3/2
f 95/4/2 103/4/2 105/4/2
f 103/4/2 104/4/2 105/4/2
f 105/4/2 104/4/2 106/4/2
f 95/4/2 105/4/2 107/4/2
f 105/3/2 106/3/2 107/3/2
f 107/3/2 106/3/2 108/3/2
f 95/4/2 107/4/2 109/4/2
f 107/4/2 108/4/2 109/4/2
f 109/4/2 108/4/2 110/4/2
f 113/4/3 112/4/3 111/4/3
f 114/4/3 112/4/3 113/4/3
f 115/4/3 112/4/3 114/4/3
f 116/4/3 112/4/3 115/4/3
f 117/4/3 112/4/3 116/4/3
f 118/4/3 112/4/3 117/4/3
f 119/4/3 113/4/3 111/4/3
f 120/4/3 115/4/3 114/4/3
f 121/4/3 115/4/3 120/4/3
f 122/4/3 117/4/3 116/4/3
f 123/4/3 117/4/3 122/4/3
f 124/4/3 112/4/3 118/4/3
f 125/4/3 123/4/3 122/4/3
f 125/4/3 124/4/3 123/4/3
f 125/4/3 121/4/3 120/4/3
f 125/4/3 119/4/3 111/4/3
f 125/4/3 122/4/3 121/4/3
f 125/4/3 120/4/3 119/4/3
f 126/4/3 112/4/3 124/4/3
f 126/4/3 124/4/3 125/4/3
f 129/4/3 128/4/3 127/4/3
f 130/4/3 128/4/3 129/4/3
f 131/4/3 128/4/3 130/4/3
f 132/4/3 128/4/3 131/4/3
f 133/4/3 128/4/3 132/4/3
f 134/4/3 128/4/3 133/4/3
f 135/4/3 129/4/3 127/4/3
f 136/4/3 131/4/3 130/4/3
f 137/4/3 131/4/3 136/4/3
f 138/4/3 133/4/3 132/4/3
f 139/4/3 133/4/3 138/4/3
f 140/4/3 128/4/3 134/4/3
f 141/4/3 139/4/3 138/4/3
f 141/4/3 140/4/3 139/4/3
f 141/4/3 137/4/3 136/4/3
f 141/4/3 135/4/3 127/4/3
f 141/4/3 138/4/3 137/4/3
f 141/4/3 136/4/3 135/4/3
f 142/4/3 128/4/3 140/4/3
f 142/4/3 140/4/3 141/4/3
f 149/1/3 144/1/3 143/1/3
f 150/1/3 144/1/3 149/1/3
f 151/1/3 146/1/3 145/1/3
f 152/1/3 146/1/3 151/1/3
f 153/1/3 148/1/3 147/1/3
f 154/1/3 148/1/3 153/1/3
f 158/2/3 156/2/3 155/2/3
f 158/2/3 157/2/3 156/2/3
f 159/2/3 157/2/3 158/2/3
f 160/2/3 157/2/3 159/2/3
f 167/1/3 162/1/3 161/1/3
f 168/1/3 162/1/3 167/1/3
f 169/1/3 164/1/3 163/1/3
f 170/1/3 164/1/3 169/1/3
f 171/1/3 166/1/3 165/1/3
f 172/1/3 166/1/3 171/1/3
f 173/2/4 174/2/4 176/2/4
f 174/2/4 175/2/4 176/2/4
f 176/2/4 175/2/4 177/2/4
f 177/2/4 175/2/4 178/2/4
f 179/4/4 180/4/4 187/4/4
f 180/3/4 181/3/4 188/3/4
f 187/4/4 180/4/4 188/4/4
f 185/4/4 186/4/4 189/4/4
f 184/3/4 185/3/4 189/3/4
f 189/4/4 186/4/4 190/4/4
f 188/3/4 181/3/4 192/3/4
f 184/3/4 189/3/4 193/3/4
f 191/4/4 192/4/4 195/4/4
f 192/3/4 181/3/4 196/3/4
f 195/4/4 192/4/4 196/4/4
f 181/4/4 182/4/4 197/4/4
f 196/3/4 181/3/4 197/3/4
f 182/3/4 183/3/4 198/3/4
f 197/4/4 182/4/4 198/4/4
f 183/4/4 184/4/4 199/4/4
f 198/3/4 183/3/4 199/3/4
f 184/3/4 193/3/4 200/3/4
f 199/4/4 184/4/4 200/4/4
f 193/4/4 194/4/4 201/4/4
f 200/3/4 193/3/4 201/3/4
f 201/4/4 194/4/4 202/4/4
f 205/2/5 204/2/5 203/2/5
f 206/2/5 204/2/5 205/2/5
f 211/4/5 208/4/5 207/4/5
f 212/4/5 210/4/5 209/4/5
f 213/4/5 211/4/5 207/4/5
f 214/4/5 210/4/5 212/4/5
f 215/4/5 213/4/5 207/4/5
f 216/4/5 213/4/5 215/4/5
f 217/4/5 210/4/5 214/4/5
f 218/4/5 210/4/5 217/4/5
f 221/3/5 220/3/5 219/3/5
f 222/3/5 220/3/5 221/3/5
f 227/4/5 224/4/5 223/4/5
f 228/4/5 224/4/5 227/4/5
f 229/4/5 226/4/5 225/4/5
f 230/4/5 226/4/5 229/4/5
f 235/4/5 232/4/5 231/4/5
f 236/4/5 232/4/5 235/4/5
f 237/4/5 234/4/5 233/4/5
f 238/4/5 234/4/5 237/4/5
f 243/4/5 240/4/5 239/4/5
f 244/4/5 240/4/5 243/4/5
f 245/4/5 242/4/5 241/4/5
f 246/4/5 242/4/5 245/4/5
f 247/4/6 248/4/6 251/4/6
f 251/4/6 248/4/6 252/4/6
f 249/4/6 250/4/6 253/4/6
f 253/4/6 250/4/6 254/4/6
f 255/4/6 256/4/6 259/4/6
f 259/4/6 256/4/6 260/4/6
f 257/4/6 258/4/6 261/4/6
f 261/4/6 258/4/6 262/4/6
f 263/4/6 264/4/6 267/4/6
f 267/4/6 264/4/6 268/4/6
f 265/4/6 266/4/6 269/4/6
f 269/4/6 266/4/6 270/4/6
f 271/2/6 272/2/6 273/2/6
f 273/2/6 272/2/6 274/2/6
f 273/3/6 274/3/6 275/3/6
f 275/3/6 274/3/6 276/3/6
f 277/4/6 278/4/6 281/4/6
f 281/4/6 278/4/6 282/4/6
f 279/4/6 280/4/6 283/4/6
f 283/4/6 280/4/6 284/4/6
