# MagicaVoxel @ Ephtracy

# material
mtllib Turret.mtl
usemtl palette

# normals
vn -1 0 0
vn 1 0 0
vn 0 0 1
vn 0 0 -1
vn 0 -1 0
vn 0 1 0

# texcoords
vt 0.447266 0.5
vt 0.455078 0.5
vt 0.822266 0.5
vt 0.826172 0.5

# verts
v -4 1 2
v -4 1 -2
v -4 5 2
v -4 5 -2
v -4 6 1
v -4 6 -1
v -4 9 1
v -4 9 -1
v -2 0 2
v -2 0 -2
v -2 1 2
v -2 1 -2
v -2 5 2
v -2 5 -2
v -2 6 1
v -2 6 -1
v -2 7 1
v -2 7 -1
v -2 8 1
v -2 8 -1
v -2 9 2
v -2 9 1
v -2 9 -1
v -2 9 -2
v -2 10 1
v -2 10 -1
v 2 0 2
v 2 0 -2
v 2 1 2
v 2 1 -2
v 2 5 2
v 2 5 -2
v 2 6 1
v 2 6 -1
v 2 7 1
v 2 7 -1
v 2 8 1
v 2 8 -1
v 2 9 2
v 2 9 1
v 2 9 -1
v 2 9 -2
v 2 10 1
v 2 10 -1
v 4 1 2
v 4 1 -2
v 4 5 2
v 4 5 -2
v 4 6 1
v 4 6 -1
v 4 9 1
v 4 9 -1
v -4 1 2
v -4 5 2
v -3 2 2
v -3 4 2
v -2 0 2
v -2 1 2
v -2 5 2
v -2 9 2
v -1 1 2
v -1 2 2
v -1 4 2
v -1 5 2
v -1 9 2
v 1 1 2
v 1 2 2
v 1 4 2
v 1 5 2
v 1 9 2
v 2 0 2
v 2 1 2
v 2 5 2
v 2 9 2
v 3 2 2
v 3 4 2
v 4 1 2
v 4 5 2
v -4 6 1
v -4 9 1
v -3 7 1
v -3 8 1
v -2 6 1
v -2 7 1
v -2 8 1
v -2 9 1
v -2 10 1
v -1 9 1
v -1 10 1
v 1 9 1
v 1 10 1
v 2 6 1
v 2 7 1
v 2 8 1
v 2 9 1
v 2 10 1
v 3 7 1
v 3 8 1
v 4 6 1
v 4 9 1
v -4 6 -1
v -4 9 -1
v -3 7 -1
v -3 8 -1
v -2 6 -1
v -2 7 -1
v -2 8 -1
v -2 9 -1
v -2 10 -1
v -1 9 -1
v -1 10 -1
v 1 9 -1
v 1 10 -1
v 2 6 -1
v 2 7 -1
v 2 8 -1
v 2 9 -1
v 2 10 -1
v 3 7 -1
v 3 8 -1
v 4 6 -1
v 4 9 -1
v -4 1 -2
v -4 5 -2
v -3 2 -2
v -3 4 -2
v -2 0 -2
v -2 1 -2
v -2 5 -2
v -2 9 -2
v -1 1 -2
v -1 2 -2
v -1 4 -2
v -1 5 -2
v -1 9 -2
v 1 1 -2
v 1 2 -2
v 1 4 -2
v 1 5 -2
v 1 9 -2
v 2 0 -2
v 2 1 -2
v 2 5 -2
v 2 9 -2
v 3 2 -2
v 3 4 -2
v 4 1 -2
v 4 5 -2
v -2 0 2
v 2 0 2
v -2 0 -2
v 2 0 -2
v -4 1 2
v -2 1 2
v 2 1 2
v 4 1 2
v -4 1 -2
v -2 1 -2
v 2 1 -2
v 4 1 -2
v -4 6 1
v -2 6 1
v 2 6 1
v 4 6 1
v -4 6 -1
v -2 6 -1
v 2 6 -1
v 4 6 -1
v -4 5 2
v -2 5 2
v 2 5 2
v 4 5 2
v -4 5 -2
v -2 5 -2
v 2 5 -2
v 4 5 -2
v -2 9 2
v -1 9 2
v 1 9 2
v 2 9 2
v -4 9 1
v -2 9 1
v -1 9 1
v 1 9 1
v 2 9 1
v 4 9 1
v -4 9 -1
v -2 9 -1
v -1 9 -1
v 1 9 -1
v 2 9 -1
v 4 9 -1
v -2 9 -2
v -1 9 -2
v 1 9 -2
v 2 9 -2
v -2 10 1
v -1 10 1
v 1 10 1
v 2 10 1
v -2 10 -1
v -1 10 -1
v 1 10 -1
v 2 10 -1

# faces
f 3/2/1 2/2/1 1/2/1
f 4/2/1 2/2/1 3/2/1
f 7/2/1 6/2/1 5/2/1
f 8/2/1 6/2/1 7/2/1
f 11/4/1 10/4/1 9/4/1
f 12/4/1 10/4/1 11/4/1
f 15/4/1 14/4/1 13/4/1
f 16/4/1 14/4/1 15/4/1
f 17/4/1 15/4/1 13/4/1
f 18/4/1 14/4/1 16/4/1
f 19/4/1 17/4/1 13/4/1
f 20/4/1 14/4/1 18/4/1
f 21/4/1 19/4/1 13/4/1
f 22/4/1 19/4/1 21/4/1
f 23/4/1 14/4/1 20/4/1
f 24/4/1 14/4/1 23/4/1
f 25/4/1 23/4/1 22/4/1
f 26/4/1 23/4/1 25/4/1
f 27/4/2 28/4/2 29/4/2
f 29/4/2 28/4/2 30/4/2
f 31/4/2 32/4/2 33/4/2
f 33/4/2 32/4/2 34/4/2
f 31/4/2 33/4/2 35/4/2
f 34/4/2 32/4/2 36/4/2
f 31/4/2 35/4/2 37/4/2
f 36/4/2 32/4/2 38/4/2
f 31/4/2 37/4/2 39/4/2
f 39/4/2 37/4/2 40/4/2
f 38/4/2 32/4/2 41/4/2
f 41/4/2 32/4/2 42/4/2
f 40/4/2 41/4/2 43/4/2
f 43/4/2 41/4/2 44/4/2
f 45/2/2 46/2/2 47/2/2
f 47/2/2 46/2/2 48/2/2
f 49/2/2 50/2/2 51/2/2
f 51/2/2 50/2/2 52/2/2
f 55/2/3 54/2/3 53/2/3
f 56/2/3 54/2/3 55/2/3
f 58/2/3 55/2/3 53/2/3
f 59/2/3 54/2/3 56/2/3
f 61/4/3 58/4/3 57/4/3
f 61/2/3 55/2/3 58/2/3
f 62/1/3 56/1/3 55/1/3
f 62/2/3 55/2/3 61/2/3
f 63/2/3 59/2/3 56/2/3
f 63/1/3 56/1/3 62/1/3
f 64/4/3 60/4/3 59/4/3
f 64/2/3 59/2/3 63/2/3
f 65/4/3 60/4/3 64/4/3
f 66/1/3 63/1/3 62/1/3
f 66/4/3 61/4/3 57/4/3
f 66/1/3 62/1/3 61/1/3
f 66/1/3 64/1/3 63/1/3
f 67/1/3 64/1/3 66/1/3
f 68/1/3 64/1/3 67/1/3
f 69/3/3 65/3/3 64/3/3
f 69/1/3 64/1/3 68/1/3
f 70/3/3 65/3/3 69/3/3
f 71/4/3 66/4/3 57/4/3
f 72/2/3 67/2/3 66/2/3
f 72/4/3 66/4/3 71/4/3
f 73/2/3 69/2/3 68/2/3
f 73/4/3 70/4/3 69/4/3
f 74/4/3 70/4/3 73/4/3
f 75/1/3 68/1/3 67/1/3
f 75/2/3 67/2/3 72/2/3
f 76/2/3 73/2/3 68/2/3
f 76/1/3 68/1/3 75/1/3
f 77/2/3 75/2/3 72/2/3
f 77/2/3 76/2/3 75/2/3
f 78/2/3 73/2/3 76/2/3
f 78/2/3 76/2/3 77/2/3
f 81/2/3 80/2/3 79/2/3
f 82/2/3 80/2/3 81/2/3
f 83/2/3 81/2/3 79/2/3
f 84/1/3 82/1/3 81/1/3
f 84/2/3 81/2/3 83/2/3
f 85/2/3 80/2/3 82/2/3
f 85/1/3 82/1/3 84/1/3
f 86/2/3 80/2/3 85/2/3
f 88/4/3 87/4/3 86/4/3
f 89/4/3 87/4/3 88/4/3
f 90/3/3 89/3/3 88/3/3
f 91/3/3 89/3/3 90/3/3
f 95/4/3 91/4/3 90/4/3
f 96/4/3 91/4/3 95/4/3
f 97/1/3 94/1/3 93/1/3
f 97/2/3 93/2/3 92/2/3
f 98/2/3 95/2/3 94/2/3
f 98/1/3 94/1/3 97/1/3
f 99/2/3 97/2/3 92/2/3
f 99/2/3 98/2/3 97/2/3
f 100/2/3 95/2/3 98/2/3
f 100/2/3 98/2/3 99/2/3
f 101/2/4 102/2/4 103/2/4
f 103/2/4 102/2/4 104/2/4
f 101/2/4 103/2/4 105/2/4
f 103/1/4 104/1/4 106/1/4
f 105/2/4 103/2/4 106/2/4
f 104/2/4 102/2/4 107/2/4
f 106/1/4 104/1/4 107/1/4
f 107/2/4 102/2/4 108/2/4
f 108/4/4 109/4/4 110/4/4
f 110/4/4 109/4/4 111/4/4
f 110/3/4 111/3/4 112/3/4
f 112/3/4 111/3/4 113/3/4
f 112/4/4 113/4/4 117/4/4
f 117/4/4 113/4/4 118/4/4
f 115/1/4 116/1/4 119/1/4
f 114/2/4 115/2/4 119/2/4
f 116/2/4 117/2/4 120/2/4
f 119/1/4 116/1/4 120/1/4
f 114/2/4 119/2/4 121/2/4
f 119/2/4 120/2/4 121/2/4
f 120/2/4 117/2/4 122/2/4
f 121/2/4 120/2/4 122/2/4
f 123/2/4 124/2/4 125/2/4
f 125/2/4 124/2/4 126/2/4
f 123/2/4 125/2/4 128/2/4
f 126/2/4 124/2/4 129/2/4
f 127/4/4 128/4/4 131/4/4
f 128/2/4 125/2/4 131/2/4
f 125/1/4 126/1/4 132/1/4
f 131/2/4 125/2/4 132/2/4
f 126/2/4 129/2/4 133/2/4
f 132/1/4 126/1/4 133/1/4
f 129/4/4 130/4/4 134/4/4
f 133/2/4 129/2/4 134/2/4
f 134/4/4 130/4/4 135/4/4
f 132/1/4 133/1/4 136/1/4
f 127/4/4 131/4/4 136/4/4
f 131/1/4 132/1/4 136/1/4
f 133/1/4 134/1/4 136/1/4
f 136/1/4 134/1/4 137/1/4
f 137/1/4 134/1/4 138/1/4
f 134/3/4 135/3/4 139/3/4
f 138/1/4 134/1/4 139/1/4
f 139/3/4 135/3/4 140/3/4
f 127/4/4 136/4/4 141/4/4
f 136/2/4 137/2/4 142/2/4
f 141/4/4 136/4/4 142/4/4
f 138/2/4 139/2/4 143/2/4
f 139/4/4 140/4/4 143/4/4
f 143/4/4 140/4/4 144/4/4
f 137/1/4 138/1/4 145/1/4
f 142/2/4 137/2/4 145/2/4
f 138/2/4 143/2/4 146/2/4
f 145/1/4 138/1/4 146/1/4
f 142/2/4 145/2/4 147/2/4
f 145/2/4 146/2/4 147/2/4
f 146/2/4 143/2/4 148/2/4
f 147/2/4 146/2/4 148/2/4
f 151/4/5 150/4/5 149/4/5
f 152/4/5 150/4/5 151/4/5
f 157/2/5 154/2/5 153/2/5
f 158/2/5 154/2/5 157/2/5
f 159/2/5 156/2/5 155/2/5
f 160/2/5 156/2/5 159/2/5
f 165/2/5 162/2/5 161/2/5
f 166/2/5 162/2/5 165/2/5
f 167/2/5 164/2/5 163/2/5
f 168/2/5 164/2/5 167/2/5
f 169/2/6 170/2/6 173/2/6
f 173/2/6 170/2/6 174/2/6
f 171/2/6 172/2/6 175/2/6
f 175/2/6 172/2/6 176/2/6
f 177/4/6 178/4/6 182/4/6
f 178/3/6 179/3/6 183/3/6
f 182/4/6 178/4/6 183/4/6
f 179/4/6 180/4/6 184/4/6
f 183/3/6 179/3/6 184/3/6
f 184/4/6 180/4/6 185/4/6
f 181/2/6 182/2/6 187/2/6
f 187/2/6 182/2/6 188/2/6
f 185/2/6 186/2/6 191/2/6
f 191/2/6 186/2/6 192/2/6
f 188/4/6 189/4/6 193/4/6
f 189/3/6 190/3/6 194/3/6
f 193/4/6 189/4/6 194/4/6
f 190/4/6 191/4/6 195/4/6
f 194/3/6 190/3/6 195/3/6
f 195/4/6 191/4/6 196/4/6
f 197/4/6 198/4/6 201/4/6
f 198/3/6 199/3/6 202/3/6
f 201/4/6 198/4/6 202/4/6
f 199/4/6 200/4/6 203/4/6
f 202/3/6 199/3/6 203/3/6
f 203/4/6 200/4/6 204/4/6
