# MagicaVoxel @ Ephtracy

# material
mtllib Cannon.mtl
usemtl palette

# normals
vn -1 0 0
vn 1 0 0
vn 0 0 1
vn 0 0 -1
vn 0 -1 0
vn 0 1 0

# texcoords
vt 0.630859 0.5
vt 0.638672 0.5
vt 0.822266 0.5
vt 0.826172 0.5

# verts
v -5 1 1
v -5 1 -1
v -5 5 1
v -5 5 -1
v -5 7 1
v -5 7 -1
v -4 3 3
v -4 3 1
v -4 3 -1
v -4 3 -3
v -4 4 2
v -4 4 1
v -4 4 -1
v -4 4 -2
v -4 8 2
v -4 8 -2
v -4 9 3
v -4 9 -3
v -3 2 3
v -3 2 1
v -3 2 -1
v -3 2 -3
v -3 3 4
v -3 3 3
v -3 3 -3
v -3 3 -4
v -3 4 2
v -3 4 -2
v -3 5 1
v -3 5 -1
v -3 7 1
v -3 7 -1
v -3 8 2
v -3 8 -2
v -3 9 4
v -3 9 3
v -3 9 -3
v -3 9 -4
v -3 10 3
v -3 10 -3
v -2 0 1
v -2 0 -1
v -2 1 1
v -2 1 -1
v 1 1 1
v 1 1 -1
v 1 2 1
v 1 2 -1
v 4 2 1
v 4 2 -1
v 4 3 1
v 4 3 -1
v 4 4 1
v 4 4 -1
v 4 5 1
v 4 5 -1
v -4 2 1
v -4 2 -1
v -4 3 1
v -4 3 -1
v -4 4 1
v -4 4 -1
v -4 5 1
v -4 5 -1
v -1 1 1
v -1 1 -1
v -1 2 1
v -1 2 -1
v 2 0 1
v 2 0 -1
v 2 1 1
v 2 1 -1
v 3 2 3
v 3 2 1
v 3 2 -1
v 3 2 -3
v 3 3 4
v 3 3 3
v 3 3 -3
v 3 3 -4
v 3 4 2
v 3 4 -2
v 3 5 1
v 3 5 -1
v 3 7 1
v 3 7 -1
v 3 8 2
v 3 8 -2
v 3 9 4
v 3 9 3
v 3 9 -3
v 3 9 -4
v 3 10 3
v 3 10 -3
v 4 3 3
v 4 3 1
v 4 3 -1
v 4 3 -3
v 4 4 2
v 4 4 1
v 4 4 -1
v 4 4 -2
v 4 8 2
v 4 8 -2
v 4 9 3
v 4 9 -3
v 5 1 1
v 5 1 -1
v 5 5 1
v 5 5 -1
v 5 7 1
v 5 7 -1
v -3 3 4
v -3 9 4
v -2 4 4
v -2 8 4
v 2 4 4
v 2 8 4
v 3 3 4
v 3 9 4
v -4 3 3
v -4 9 3
v -3 2 3
v -3 3 3
v -3 9 3
v -3 10 3
v 3 2 3
v 3 3 3
v 3 9 3
v 3 10 3
v 4 3 3
v 4 9 3
v -5 1 1
v -5 5 1
v -5 7 1
v -4 2 1
v -4 3 1
v -4 4 1
v -4 5 1
v -3 2 1
v -3 5 1
v -3 7 1
v -2 0 1
v -2 1 1
v -2 2 1
v -1 1 1
v -1 2 1
v 1 1 1
v 1 2 1
v 2 0 1
v 2 1 1
v 2 2 1
v 3 2 1
v 3 5 1
v 3 7 1
v 4 2 1
v 4 3 1
v 4 4 1
v 4 5 1
v 5 1 1
v 5 5 1
v 5 7 1
v -4 4 -2
v -4 8 -2
v -3 4 -2
v -3 8 -2
v 3 4 -2
v 3 8 -2
v 4 4 -2
v 4 8 -2
v -4 4 2
v -4 8 2
v -3 4 2
v -3 8 2
v 3 4 2
v 3 8 2
v 4 4 2
v 4 8 2
v -5 1 -1
v -5 5 -1
v -5 7 -1
v -4 2 -1
v -4 3 -1
v -4 4 -1
v -4 5 -1
v -3 2 -1
v -3 5 -1
v -3 7 -1
v -2 0 -1
v -2 1 -1
v -2 2 -1
v -1 1 -1
v -1 2 -1
v 1 1 -1
v 1 2 -1
v 2 0 -1
v 2 1 -1
v 2 2 -1
v 3 2 -1
v 3 5 -1
v 3 7 -1
v 4 2 -1
v 4 3 -1
v 4 4 -1
v 4 5 -1
v 5 1 -1
v 5 5 -1
v 5 7 -1
v -4 3 -3
v -4 9 -3
v -3 2 -3
v -3 3 -3
v -3 9 -3
v -3 10 -3
v 3 2 -3
v 3 3 -3
v 3 9 -3
v 3 10 -3
v 4 3 -3
v 4 9 -3
v -3 3 -4
v -3 9 -4
v -2 4 -4
v -2 8 -4
v 2 4 -4
v 2 8 -4
v 3 3 -4
v 3 9 -4
v -2 0 1
v 2 0 1
v -2 0 -1
v 2 0 -1
v -5 1 1
v -2 1 1
v 2 1 1
v 5 1 1
v -5 1 -1
v -2 1 -1
v 2 1 -1
v 5 1 -1
v -3 2 3
v 3 2 3
v -2 2 2
v 2 2 2
v -3 2 1
v -2 2 1
v -1 2 1
v 1 2 1
v 2 2 1
v 3 2 1
v -3 2 -1
v -2 2 -1
v -1 2 -1
v 1 2 -1
v 2 2 -1
v 3 2 -1
v -2 2 -2
v 2 2 -2
v -3 2 -3
v 3 2 -3
v -3 3 4
v 3 3 4
v -4 3 3
v -3 3 3
v 3 3 3
v 4 3 3
v -4 3 1
v 4 3 1
v -4 3 -1
v 4 3 -1
v -4 3 -3
v -3 3 -3
v 3 3 -3
v 4 3 -3
v -3 3 -4
v 3 3 -4
v -4 5 1
v -3 5 1
v 3 5 1
v 4 5 1
v -4 5 -1
v -3 5 -1
v 3 5 -1
v 4 5 -1
v -4 8 2
v -3 8 2
v 3 8 2
v 4 8 2
v -4 8 -2
v -3 8 -2
v 3 8 -2
v 4 8 -2
v -1 1 1
v 1 1 1
v -1 1 -1
v 1 1 -1
v -4 2 1
v -3 2 1
v 3 2 1
v 4 2 1
v -4 2 -1
v -3 2 -1
v 3 2 -1
v 4 2 -1
v -4 4 2
v -3 4 2
v 3 4 2
v 4 4 2
v -4 4 1
v 4 4 1
v -4 4 -1
v 4 4 -1
v -4 4 -2
v -3 4 -2
v 3 4 -2
v 4 4 -2
v -5 7 1
v -3 7 1
v 3 7 1
v 5 7 1
v -5 7 -1
v -3 7 -1
v 3 7 -1
v 5 7 -1
v -3 9 4
v 3 9 4
v -4 9 3
v -3 9 3
v 3 9 3
v 4 9 3
v -4 9 -3
v -3 9 -3
v 3 9 -3
v 4 9 -3
v -3 9 -4
v 3 9 -4
v -3 10 3
v 3 10 3
v -2 10 2
v 2 10 2
v -2 10 -2
v 2 10 -2
v -3 10 -3
v 3 10 -3

# faces
f 3/4/1 2/4/1 1/4/1
f 4/4/1 2/4/1 3/4/1
f 5/3/1 4/3/1 3/3/1
f 6/3/1 4/3/1 5/3/1
f 11/2/1 8/2/1 7/2/1
f 12/2/1 8/2/1 11/2/1
f 13/2/1 10/2/1 9/2/1
f 14/2/1 10/2/1 13/2/1
f 15/2/1 11/2/1 7/2/1
f 16/2/1 10/2/1 14/2/1
f 17/2/1 15/2/1 7/2/1
f 17/2/1 16/2/1 15/2/1
f 18/2/1 10/2/1 16/2/1
f 18/2/1 16/2/1 17/2/1
f 24/2/1 20/2/1 19/2/1
f 24/2/1 22/2/1 21/2/1
f 24/2/1 21/2/1 20/2/1
f 25/2/1 22/2/1 24/2/1
f 29/2/1 28/2/1 27/2/1
f 30/2/1 28/2/1 29/2/1
f 31/2/1 29/2/1 27/2/1
f 32/2/1 28/2/1 30/2/1
f 33/2/1 31/2/1 27/2/1
f 33/2/1 32/2/1 31/2/1
f 34/2/1 28/2/1 32/2/1
f 34/2/1 32/2/1 33/2/1
f 35/2/1 24/2/1 23/2/1
f 36/2/1 24/2/1 35/2/1
f 37/2/1 26/2/1 25/2/1
f 38/2/1 26/2/1 37/2/1
f 39/2/1 37/2/1 36/2/1
f 40/2/1 37/2/1 39/2/1
f 43/4/1 42/4/1 41/4/1
f 44/4/1 42/4/1 43/4/1
f 47/4/1 46/4/1 45/4/1
f 48/4/1 46/4/1 47/4/1
f 51/4/1 50/4/1 49/4/1
f 52/4/1 50/4/1 51/4/1
f 55/4/1 54/4/1 53/4/1
f 56/4/1 54/4/1 55/4/1
f 57/4/2 58/4/2 59/4/2
f 59/4/2 58/4/2 60/4/2
f 61/4/2 62/4/2 63/4/2
f 63/4/2 62/4/2 64/4/2
f 65/4/2 66/4/2 67/4/2
f 67/4/2 66/4/2 68/4/2
f 69/4/2 70/4/2 71/4/2
f 71/4/2 70/4/2 72/4/2
f 73/2/2 74/2/2 78/2/2
f 75/2/2 76/2/2 78/2/2
f 74/2/2 75/2/2 78/2/2
f 78/2/2 76/2/2 79/2/2
f 81/2/2 82/2/2 83/2/2
f 83/2/2 82/2/2 84/2/2
f 81/2/2 83/2/2 85/2/2
f 84/2/2 82/2/2 86/2/2
f 81/2/2 85/2/2 87/2/2
f 85/2/2 86/2/2 87/2/2
f 86/2/2 82/2/2 88/2/2
f 87/2/2 86/2/2 88/2/2
f 77/2/2 78/2/2 89/2/2
f 89/2/2 78/2/2 90/2/2
f 79/2/2 80/2/2 91/2/2
f 91/2/2 80/2/2 92/2/2
f 90/2/2 91/2/2 93/2/2
f 93/2/2 91/2/2 94/2/2
f 95/2/2 96/2/2 99/2/2
f 99/2/2 96/2/2 100/2/2
f 97/2/2 98/2/2 101/2/2
f 101/2/2 98/2/2 102/2/2
f 95/2/2 99/2/2 103/2/2
f 102/2/2 98/2/2 104/2/2
f 95/2/2 103/2/2 105/2/2
f 103/2/2 104/2/2 105/2/2
f 104/2/2 98/2/2 106/2/2
f 105/2/2 104/2/2 106/2/2
f 107/4/2 108/4/2 109/4/2
f 109/4/2 108/4/2 110/4/2
f 109/3/2 110/3/2 111/3/2
f 111/3/2 110/3/2 112/3/2
f 115/2/3 114/2/3 113/2/3
f 116/2/3 114/2/3 115/2/3
f 117/2/3 115/2/3 113/2/3
f 117/1/3 116/1/3 115/1/3
f 118/2/3 114/2/3 116/2/3
f 118/1/3 116/1/3 117/1/3
f 119/2/3 117/2/3 113/2/3
f 119/2/3 118/2/3 117/2/3
f 120/2/3 114/2/3 118/2/3
f 120/2/3 118/2/3 119/2/3
f 124/2/3 122/2/3 121/2/3
f 125/2/3 122/2/3 124/2/3
f 127/2/3 124/2/3 123/2/3
f 128/2/3 124/2/3 127/2/3
f 129/2/3 126/2/3 125/2/3
f 130/2/3 126/2/3 129/2/3
f 131/2/3 129/2/3 128/2/3
f 132/2/3 129/2/3 131/2/3
f 136/4/3 134/4/3 133/4/3
f 137/4/3 134/4/3 136/4/3
f 138/4/3 134/4/3 137/4/3
f 139/3/3 135/3/3 134/3/3
f 139/4/3 134/4/3 138/4/3
f 140/4/3 136/4/3 133/4/3
f 141/3/3 135/3/3 139/3/3
f 142/3/3 135/3/3 141/3/3
f 144/4/3 140/4/3 133/4/3
f 145/4/3 140/4/3 144/4/3
f 146/4/3 144/4/3 143/4/3
f 146/4/3 145/4/3 144/4/3
f 147/4/3 145/4/3 146/4/3
f 148/4/3 146/4/3 143/4/3
f 150/4/3 148/4/3 143/4/3
f 150/4/3 149/4/3 148/4/3
f 151/4/3 149/4/3 150/4/3
f 152/4/3 149/4/3 151/4/3
f 153/4/3 152/4/3 151/4/3
f 156/4/3 153/4/3 151/4/3
f 159/3/3 155/3/3 154/3/3
f 160/4/3 158/4/3 157/4/3
f 160/4/3 159/4/3 158/4/3
f 160/4/3 156/4/3 151/4/3
f 160/4/3 157/4/3 156/4/3
f 161/3/3 155/3/3 159/3/3
f 161/4/3 159/4/3 160/4/3
f 162/3/3 155/3/3 161/3/3
f 165/2/3 164/2/3 163/2/3
f 166/2/3 164/2/3 165/2/3
f 169/2/3 168/2/3 167/2/3
f 170/2/3 168/2/3 169/2/3
f 171/2/4 172/2/4 173/2/4
f 173/2/4 172/2/4 174/2/4
f 175/2/4 176/2/4 177/2/4
f 177/2/4 176/2/4 178/2/4
f 179/4/4 180/4/4 182/4/4
f 182/4/4 180/4/4 183/4/4
f 183/4/4 180/4/4 184/4/4
f 180/3/4 181/3/4 185/3/4
f 184/4/4 180/4/4 185/4/4
f 179/4/4 182/4/4 186/4/4
f 185/3/4 181/3/4 187/3/4
f 187/3/4 181/3/4 188/3/4
f 179/4/4 186/4/4 190/4/4
f 190/4/4 186/4/4 191/4/4
f 189/4/4 190/4/4 192/4/4
f 190/4/4 191/4/4 192/4/4
f 192/4/4 191/4/4 193/4/4
f 189/4/4 192/4/4 194/4/4
f 189/4/4 194/4/4 196/4/4
f 194/4/4 195/4/4 196/4/4
f 196/4/4 195/4/4 197/4/4
f 197/4/4 195/4/4 198/4/4
f 197/4/4 198/4/4 199/4/4
f 197/4/4 199/4/4 202/4/4
f 200/3/4 201/3/4 205/3/4
f 203/4/4 204/4/4 206/4/4
f 204/4/4 205/4/4 206/4/4
f 197/4/4 202/4/4 206/4/4
f 202/4/4 203/4/4 206/4/4
f 205/3/4 201/3/4 207/3/4
f 206/4/4 205/4/4 207/4/4
f 207/3/4 201/3/4 208/3/4
f 209/2/4 210/2/4 212/2/4
f 212/2/4 210/2/4 213/2/4
f 211/2/4 212/2/4 215/2/4
f 215/2/4 212/2/4 216/2/4
f 213/2/4 214/2/4 217/2/4
f 217/2/4 214/2/4 218/2/4
f 216/2/4 217/2/4 219/2/4
f 219/2/4 217/2/4 220/2/4
f 221/2/4 222/2/4 223/2/4
f 223/2/4 222/2/4 224/2/4
f 221/2/4 223/2/4 225/2/4
f 223/1/4 224/1/4 225/1/4
f 224/2/4 222/2/4 226/2/4
f 225/1/4 224/1/4 226/1/4
f 221/2/4 225/2/4 227/2/4
f 225/2/4 226/2/4 227/2/4
f 226/2/4 222/2/4 228/2/4
f 227/2/4 226/2/4 228/2/4
f 231/4/5 230/4/5 229/4/5
f 232/4/5 230/4/5 231/4/5
f 237/4/5 234/4/5 233/4/5
f 238/4/5 234/4/5 237/4/5
f 239/4/5 236/4/5 235/4/5
f 240/4/5 236/4/5 239/4/5
f 243/2/5 242/2/5 241/2/5
f 244/2/5 242/2/5 243/2/5
f 245/2/5 243/2/5 241/2/5
f 246/1/5 244/1/5 243/1/5
f 246/2/5 243/2/5 245/2/5
f 247/1/5 244/1/5 246/1/5
f 248/1/5 244/1/5 247/1/5
f 249/2/5 242/2/5 244/2/5
f 249/1/5 244/1/5 248/1/5
f 250/2/5 242/2/5 249/2/5
f 253/1/5 248/1/5 247/1/5
f 254/1/5 248/1/5 253/1/5
f 257/2/5 252/2/5 251/2/5
f 257/1/5 253/1/5 252/1/5
f 257/1/5 255/1/5 254/1/5
f 257/1/5 254/1/5 253/1/5
f 258/2/5 256/2/5 255/2/5
f 258/1/5 255/1/5 257/1/5
f 259/2/5 257/2/5 251/2/5
f 259/2/5 258/2/5 257/2/5
f 260/2/5 256/2/5 258/2/5
f 260/2/5 258/2/5 259/2/5
f 264/2/5 262/2/5 261/2/5
f 265/2/5 262/2/5 264/2/5
f 267/2/5 264/2/5 263/2/5
f 268/2/5 266/2/5 265/2/5
f 269/2/5 264/2/5 267/2/5
f 270/2/5 268/2/5 265/2/5
f 271/2/5 264/2/5 269/2/5
f 272/2/5 264/2/5 271/2/5
f 273/2/5 270/2/5 265/2/5
f 274/2/5 270/2/5 273/2/5
f 275/2/5 273/2/5 272/2/5
f 276/2/5 273/2/5 275/2/5
f 281/3/5 278/3/5 277/3/5
f 282/3/5 278/3/5 281/3/5
f 283/3/5 280/3/5 279/3/5
f 284/3/5 280/3/5 283/3/5
f 289/2/5 286/2/5 285/2/5
f 290/2/5 286/2/5 289/2/5
f 291/2/5 288/2/5 287/2/5
f 292/2/5 288/2/5 291/2/5
f 293/4/6 294/4/6 295/4/6
f 295/4/6 294/4/6 296/4/6
f 297/4/6 298/4/6 301/4/6
f 301/4/6 298/4/6 302/4/6
f 299/4/6 300/4/6 303/4/6
f 303/4/6 300/4/6 304/4/6
f 305/2/6 306/2/6 309/2/6
f 307/2/6 308/2/6 310/2/6
f 309/2/6 306/2/6 311/2/6
f 307/2/6 310/2/6 312/2/6
f 311/2/6 306/2/6 313/2/6
f 313/2/6 306/2/6 314/2/6
f 307/2/6 312/2/6 315/2/6
f 315/2/6 312/2/6 316/2/6
f 317/3/6 318/3/6 321/3/6
f 321/3/6 318/3/6 322/3/6
f 319/3/6 320/3/6 323/3/6
f 323/3/6 320/3/6 324/3/6
f 325/2/6 326/2/6 328/2/6
f 328/2/6 326/2/6 329/2/6
f 327/2/6 328/2/6 331/2/6
f 331/2/6 328/2/6 332/2/6
f 329/2/6 330/2/6 333/2/6
f 333/2/6 330/2/6 334/2/6
f 332/2/6 333/2/6 335/2/6
f 335/2/6 333/2/6 336/2/6
f 337/2/6 338/2/6 339/2/6
f 339/2/6 338/2/6 340/2/6
f 337/2/6 339/2/6 341/2/6
f 339/1/6 340/1/6 341/1/6
f 340/2/6 338/2/6 342/2/6
f 341/1/6 340/1/6 342/1/6
f 337/2/6 341/2/6 343/2/6
f 341/2/6 342/2/6 343/2/6
f 342/2/6 338/2/6 344/2/6
f 343/2/6 342/2/6 344/2/6
