# MagicaVoxel @ Ephtracy

# material
mtllib Cannon.mtl
usemtl palette

# normals
vn -1 0 0
vn 1 0 0
vn 0 0 1
vn 0 0 -1
vn 0 -1 0
vn 0 1 0

# texcoords
vt 0.533203 0.5
vt 0.548828 0.5
vt 0.556641 0.5

# verts
v -3 1 5
v -3 1 4
v -3 1 3
v -3 1 2
v -3 5 5
v -3 5 4
v -3 5 3
v -3 5 2
v -2 0 5
v -2 0 4
v -2 0 3
v -2 0 2
v -2 1 5
v -2 1 4
v -2 1 3
v -2 1 2
v -2 2 2
v -2 2 -5
v -2 4 2
v -2 4 -5
v -2 5 5
v -2 5 4
v -2 5 3
v -2 5 2
v -2 6 5
v -2 6 4
v -2 6 3
v -2 6 2
v -1 1 2
v -1 1 -5
v -1 2 2
v -1 2 -5
v -1 4 2
v -1 4 -5
v -1 5 2
v -1 5 -5
v 1 1 5
v 1 1 4
v 1 2 5
v 1 2 4
v 1 4 5
v 1 4 4
v 1 5 5
v 1 5 4
v 2 2 5
v 2 2 4
v 2 4 5
v 2 4 4
v -2 2 5
v -2 2 4
v -2 4 5
v -2 4 4
v -1 1 5
v -1 1 4
v -1 2 5
v -1 2 4
v -1 4 5
v -1 4 4
v -1 5 5
v -1 5 4
v 1 1 2
v 1 1 -5
v 1 2 2
v 1 2 -5
v 1 4 2
v 1 4 -5
v 1 5 2
v 1 5 -5
v 2 0 5
v 2 0 4
v 2 0 3
v 2 0 2
v 2 1 5
v 2 1 4
v 2 1 3
v 2 1 2
v 2 2 2
v 2 2 -5
v 2 4 2
v 2 4 -5
v 2 5 5
v 2 5 4
v 2 5 3
v 2 5 2
v 2 6 5
v 2 6 4
v 2 6 3
v 2 6 2
v 3 1 5
v 3 1 4
v 3 1 3
v 3 1 2
v 3 5 5
v 3 5 4
v 3 5 3
v 3 5 2
v -3 1 5
v -3 5 5
v -2 0 5
v -2 1 5
v -2 2 5
v -2 4 5
v -2 5 5
v -2 6 5
v -1 1 5
v -1 2 5
v -1 4 5
v -1 5 5
v 1 1 5
v 1 2 5
v 1 4 5
v 1 5 5
v 2 0 5
v 2 1 5
v 2 2 5
v 2 4 5
v 2 5 5
v 2 6 5
v 3 1 5
v 3 5 5
v -2 2 4
v -2 4 4
v -1 1 4
v -1 2 4
v -1 4 4
v -1 5 4
v 1 1 4
v 1 2 4
v 1 4 4
v 1 5 4
v 2 2 4
v 2 4 4
v -3 1 2
v -3 5 2
v -2 0 2
v -2 1 2
v -2 2 2
v -2 4 2
v -2 5 2
v -2 6 2
v -1 1 2
v -1 2 2
v -1 4 2
v -1 5 2
v 1 1 2
v 1 2 2
v 1 4 2
v 1 5 2
v 2 0 2
v 2 1 2
v 2 2 2
v 2 4 2
v 2 5 2
v 2 6 2
v 3 1 2
v 3 5 2
v -2 2 -5
v -2 4 -5
v -1 1 -5
v -1 2 -5
v -1 4 -5
v -1 5 -5
v 1 1 -5
v 1 2 -5
v 1 4 -5
v 1 5 -5
v 2 2 -5
v 2 4 -5
v -2 0 5
v 2 0 5
v -2 0 4
v 2 0 4
v -2 0 3
v 2 0 3
v -2 0 2
v 2 0 2
v -3 1 5
v -2 1 5
v 2 1 5
v 3 1 5
v -3 1 4
v -2 1 4
v 2 1 4
v 3 1 4
v -3 1 3
v -2 1 3
v 2 1 3
v 3 1 3
v -3 1 2
v -2 1 2
v -1 1 2
v 1 1 2
v 2 1 2
v 3 1 2
v -1 1 -5
v 1 1 -5
v -2 2 2
v -1 2 2
v 1 2 2
v 2 2 2
v -2 2 -5
v -1 2 -5
v 1 2 -5
v 2 2 -5
v -2 4 5
v -1 4 5
v 1 4 5
v 2 4 5
v -2 4 4
v -1 4 4
v 1 4 4
v 2 4 4
v -1 5 5
v 1 5 5
v -1 5 4
v 1 5 4
v -1 1 5
v 1 1 5
v -1 1 4
v 1 1 4
v -2 2 5
v -1 2 5
v 1 2 5
v 2 2 5
v -2 2 4
v -1 2 4
v 1 2 4
v 2 2 4
v -2 4 2
v -1 4 2
v 1 4 2
v 2 4 2
v -2 4 -5
v -1 4 -5
v 1 4 -5
v 2 4 -5
v -3 5 5
v -2 5 5
v 2 5 5
v 3 5 5
v -3 5 4
v -2 5 4
v 2 5 4
v 3 5 4
v -3 5 3
v -2 5 3
v 2 5 3
v 3 5 3
v -3 5 2
v -2 5 2
v -1 5 2
v 1 5 2
v 2 5 2
v 3 5 2
v -1 5 -5
v 1 5 -5
v -2 6 5
v 2 6 5
v -2 6 4
v 2 6 4
v -2 6 3
v 2 6 3
v -2 6 2
v 2 6 2

# faces
f 5/2/1 2/2/1 1/2/1
f 6/3/1 3/3/1 2/3/1
f 6/2/1 2/2/1 5/2/1
f 7/2/1 4/2/1 3/2/1
f 7/3/1 3/3/1 6/3/1
f 8/2/1 4/2/1 7/2/1
f 13/2/1 10/2/1 9/2/1
f 14/3/1 11/3/1 10/3/1
f 14/2/1 10/2/1 13/2/1
f 15/2/1 12/2/1 11/2/1
f 15/3/1 11/3/1 14/3/1
f 16/2/1 12/2/1 15/2/1
f 19/2/1 18/2/1 17/2/1
f 20/2/1 18/2/1 19/2/1
f 25/2/1 22/2/1 21/2/1
f 26/3/1 23/3/1 22/3/1
f 26/2/1 22/2/1 25/2/1
f 27/2/1 24/2/1 23/2/1
f 27/3/1 23/3/1 26/3/1
f 28/2/1 24/2/1 27/2/1
f 31/2/1 30/2/1 29/2/1
f 32/2/1 30/2/1 31/2/1
f 35/2/1 34/2/1 33/2/1
f 36/2/1 34/2/1 35/2/1
f 39/2/1 38/2/1 37/2/1
f 40/2/1 38/2/1 39/2/1
f 43/2/1 42/2/1 41/2/1
f 44/2/1 42/2/1 43/2/1
f 47/2/1 46/2/1 45/2/1
f 48/2/1 46/2/1 47/2/1
f 49/2/2 50/2/2 51/2/2
f 51/2/2 50/2/2 52/2/2
f 53/2/2 54/2/2 55/2/2
f 55/2/2 54/2/2 56/2/2
f 57/2/2 58/2/2 59/2/2
f 59/2/2 58/2/2 60/2/2
f 61/2/2 62/2/2 63/2/2
f 63/2/2 62/2/2 64/2/2
f 65/2/2 66/2/2 67/2/2
f 67/2/2 66/2/2 68/2/2
f 69/2/2 70/2/2 73/2/2
f 70/3/2 71/3/2 74/3/2
f 73/2/2 70/2/2 74/2/2
f 71/2/2 72/2/2 75/2/2
f 74/3/2 71/3/2 75/3/2
f 75/2/2 72/2/2 76/2/2
f 77/2/2 78/2/2 79/2/2
f 79/2/2 78/2/2 80/2/2
f 81/2/2 82/2/2 85/2/2
f 82/3/2 83/3/2 86/3/2
f 85/2/2 82/2/2 86/2/2
f 83/2/2 84/2/2 87/2/2
f 86/3/2 83/3/2 87/3/2
f 87/2/2 84/2/2 88/2/2
f 89/2/2 90/2/2 93/2/2
f 90/3/2 91/3/2 94/3/2
f 93/2/2 90/2/2 94/2/2
f 91/2/2 92/2/2 95/2/2
f 94/3/2 91/3/2 95/3/2
f 95/2/2 92/2/2 96/2/2
f 100/2/3 98/2/3 97/2/3
f 101/2/3 98/2/3 100/2/3
f 102/2/3 98/2/3 101/2/3
f 103/2/3 98/2/3 102/2/3
f 105/2/3 100/2/3 99/2/3
f 105/2/3 101/2/3 100/2/3
f 106/2/3 101/2/3 105/2/3
f 107/2/3 104/2/3 103/2/3
f 107/2/3 103/2/3 102/2/3
f 108/2/3 104/2/3 107/2/3
f 109/2/3 105/2/3 99/2/3
f 112/2/3 104/2/3 108/2/3
f 113/2/3 110/2/3 109/2/3
f 113/2/3 109/2/3 99/2/3
f 114/2/3 110/2/3 113/2/3
f 115/2/3 110/2/3 114/2/3
f 116/2/3 112/2/3 111/2/3
f 117/2/3 104/2/3 112/2/3
f 117/2/3 112/2/3 116/2/3
f 118/2/3 104/2/3 117/2/3
f 119/2/3 115/2/3 114/2/3
f 119/2/3 116/2/3 115/2/3
f 119/2/3 117/2/3 116/2/3
f 120/2/3 117/2/3 119/2/3
f 124/1/3 122/1/3 121/1/3
f 125/1/3 122/1/3 124/1/3
f 127/1/3 124/1/3 123/1/3
f 127/1/3 126/1/3 125/1/3
f 127/1/3 125/1/3 124/1/3
f 128/1/3 126/1/3 127/1/3
f 129/1/3 126/1/3 128/1/3
f 130/1/3 126/1/3 129/1/3
f 131/1/3 129/1/3 128/1/3
f 132/1/3 129/1/3 131/1/3
f 133/2/4 134/2/4 136/2/4
f 136/2/4 134/2/4 137/2/4
f 137/2/4 134/2/4 138/2/4
f 138/2/4 134/2/4 139/2/4
f 135/2/4 136/2/4 141/2/4
f 136/2/4 137/2/4 141/2/4
f 141/2/4 137/2/4 142/2/4
f 139/2/4 140/2/4 143/2/4
f 138/2/4 139/2/4 143/2/4
f 143/2/4 140/2/4 144/2/4
f 135/2/4 141/2/4 145/2/4
f 144/2/4 140/2/4 148/2/4
f 145/2/4 146/2/4 149/2/4
f 135/2/4 145/2/4 149/2/4
f 149/2/4 146/2/4 150/2/4
f 150/2/4 146/2/4 151/2/4
f 147/2/4 148/2/4 152/2/4
f 148/2/4 140/2/4 153/2/4
f 152/2/4 148/2/4 153/2/4
f 153/2/4 140/2/4 154/2/4
f 150/2/4 151/2/4 155/2/4
f 151/2/4 152/2/4 155/2/4
f 152/2/4 153/2/4 155/2/4
f 155/2/4 153/2/4 156/2/4
f 157/2/4 158/2/4 160/2/4
f 160/2/4 158/2/4 161/2/4
f 159/2/4 160/2/4 163/2/4
f 161/2/4 162/2/4 163/2/4
f 160/2/4 161/2/4 163/2/4
f 163/2/4 162/2/4 164/2/4
f 164/2/4 162/2/4 165/2/4
f 165/2/4 162/2/4 166/2/4
f 164/2/4 165/2/4 167/2/4
f 167/2/4 165/2/4 168/2/4
f 171/2/5 170/2/5 169/2/5
f 172/2/5 170/2/5 171/2/5
f 173/3/5 172/3/5 171/3/5
f 174/3/5 172/3/5 173/3/5
f 175/2/5 174/2/5 173/2/5
f 176/2/5 174/2/5 175/2/5
f 181/2/5 178/2/5 177/2/5
f 182/2/5 178/2/5 181/2/5
f 183/2/5 180/2/5 179/2/5
f 184/2/5 180/2/5 183/2/5
f 185/3/5 182/3/5 181/3/5
f 186/3/5 182/3/5 185/3/5
f 187/3/5 184/3/5 183/3/5
f 188/3/5 184/3/5 187/3/5
f 189/2/5 186/2/5 185/2/5
f 190/2/5 186/2/5 189/2/5
f 193/2/5 188/2/5 187/2/5
f 194/2/5 188/2/5 193/2/5
f 195/2/5 192/2/5 191/2/5
f 196/2/5 192/2/5 195/2/5
f 201/2/5 198/2/5 197/2/5
f 202/2/5 198/2/5 201/2/5
f 203/2/5 200/2/5 199/2/5
f 204/2/5 200/2/5 203/2/5
f 209/2/5 206/2/5 205/2/5
f 210/2/5 206/2/5 209/2/5
f 211/2/5 208/2/5 207/2/5
f 212/2/5 208/2/5 211/2/5
f 215/2/5 214/2/5 213/2/5
f 216/2/5 214/2/5 215/2/5
f 217/2/6 218/2/6 219/2/6
f 219/2/6 218/2/6 220/2/6
f 221/2/6 222/2/6 225/2/6
f 225/2/6 222/2/6 226/2/6
f 223/2/6 224/2/6 227/2/6
f 227/2/6 224/2/6 228/2/6
f 229/2/6 230/2/6 233/2/6
f 233/2/6 230/2/6 234/2/6
f 231/2/6 232/2/6 235/2/6
f 235/2/6 232/2/6 236/2/6
f 237/2/6 238/2/6 241/2/6
f 241/2/6 238/2/6 242/2/6
f 239/2/6 240/2/6 243/2/6
f 243/2/6 240/2/6 244/2/6
f 241/3/6 242/3/6 245/3/6
f 245/3/6 242/3/6 246/3/6
f 243/3/6 244/3/6 247/3/6
f 247/3/6 244/3/6 248/3/6
f 245/2/6 246/2/6 249/2/6
f 249/2/6 246/2/6 250/2/6
f 247/2/6 248/2/6 253/2/6
f 253/2/6 248/2/6 254/2/6
f 251/2/6 252/2/6 255/2/6
f 255/2/6 252/2/6 256/2/6
f 257/2/6 258/2/6 259/2/6
f 259/2/6 258/2/6 260/2/6
f 259/3/6 260/3/6 261/3/6
f 261/3/6 260/3/6 262/3/6
f 261/2/6 262/2/6 263/2/6
f 263/2/6 262/2/6 264/2/6
