# MagicaVoxel @ Ephtracy

# material
mtllib Turret.mtl
usemtl palette

# normals
vn -1 0 0
vn 1 0 0
vn 0 0 1
vn 0 0 -1
vn 0 -1 0
vn 0 1 0

# texcoords
vt 0.548828 0.5
vt 0.822266 0.5
vt 0.826172 0.5

# verts
v -5 2 2
v -5 2 -2
v -5 3 2
v -5 3 -2
v -5 6 2
v -5 6 -2
v -5 7 2
v -5 7 -2
v -1 0 1
v -1 0 -1
v -1 2 1
v -1 2 -1
v 1 0 1
v 1 0 -1
v 1 2 1
v 1 2 -1
v 5 2 2
v 5 2 -2
v 5 3 2
v 5 3 -2
v 5 6 2
v 5 6 -2
v 5 7 2
v 5 7 -2
v -5 2 2
v -5 3 2
v -5 6 2
v -5 7 2
v -4 2 2
v -4 3 2
v -4 6 2
v -4 7 2
v -3 2 2
v -3 3 2
v -3 6 2
v -3 7 2
v -2 2 2
v -2 3 2
v -2 6 2
v -2 7 2
v -1 2 2
v -1 7 2
v 1 2 2
v 1 7 2
v 2 2 2
v 2 3 2
v 2 6 2
v 2 7 2
v 3 2 2
v 3 3 2
v 3 6 2
v 3 7 2
v 4 2 2
v 4 3 2
v 4 6 2
v 4 7 2
v 5 2 2
v 5 3 2
v 5 6 2
v 5 7 2
v -1 0 1
v -1 2 1
v 1 0 1
v 1 2 1
v -1 0 -1
v -1 2 -1
v 1 0 -1
v 1 2 -1
v -5 2 -2
v -5 3 -2
v -5 6 -2
v -5 7 -2
v -4 2 -2
v -4 3 -2
v -4 6 -2
v -4 7 -2
v -3 2 -2
v -3 3 -2
v -3 6 -2
v -3 7 -2
v -2 2 -2
v -2 3 -2
v -2 6 -2
v -2 7 -2
v -1 2 -2
v -1 7 -2
v 1 2 -2
v 1 7 -2
v 2 2 -2
v 2 3 -2
v 2 6 -2
v 2 7 -2
v 3 2 -2
v 3 3 -2
v 3 6 -2
v 3 7 -2
v 4 2 -2
v 4 3 -2
v 4 6 -2
v 4 7 -2
v 5 2 -2
v 5 3 -2
v 5 6 -2
v 5 7 -2
v -1 0 1
v 1 0 1
v -1 0 -1
v 1 0 -1
v -5 2 2
v -4 2 2
v -3 2 2
v -2 2 2
v -1 2 2
v 1 2 2
v 2 2 2
v 3 2 2
v 4 2 2
v 5 2 2
v -1 2 1
v 1 2 1
v -1 2 -1
v 1 2 -1
v -5 2 -2
v -4 2 -2
v -3 2 -2
v -2 2 -2
v -1 2 -2
v 1 2 -2
v 2 2 -2
v 3 2 -2
v 4 2 -2
v 5 2 -2
v -5 7 2
v -4 7 2
v -3 7 2
v -2 7 2
v -1 7 2
v 1 7 2
v 2 7 2
v 3 7 2
v 4 7 2
v 5 7 2
v -5 7 -2
v -4 7 -2
v -3 7 -2
v -2 7 -2
v -1 7 -2
v 1 7 -2
v 2 7 -2
v 3 7 -2
v 4 7 -2
v 5 7 -2

# faces
f 3/3/1 2/3/1 1/3/1
f 4/3/1 2/3/1 3/3/1
f 5/2/1 4/2/1 3/2/1
f 6/2/1 4/2/1 5/2/1
f 7/3/1 6/3/1 5/3/1
f 8/3/1 6/3/1 7/3/1
f 11/1/1 10/1/1 9/1/1
f 12/1/1 10/1/1 11/1/1
f 13/1/2 14/1/2 15/1/2
f 15/1/2 14/1/2 16/1/2
f 17/3/2 18/3/2 19/3/2
f 19/3/2 18/3/2 20/3/2
f 19/2/2 20/2/2 21/2/2
f 21/2/2 20/2/2 22/2/2
f 21/3/2 22/3/2 23/3/2
f 23/3/2 22/3/2 24/3/2
f 29/3/3 26/3/3 25/3/3
f 30/2/3 27/2/3 26/2/3
f 30/3/3 26/3/3 29/3/3
f 31/3/3 28/3/3 27/3/3
f 31/2/3 27/2/3 30/2/3
f 32/3/3 28/3/3 31/3/3
f 33/2/3 30/2/3 29/2/3
f 33/2/3 31/2/3 30/2/3
f 33/2/3 32/2/3 31/2/3
f 34/2/3 32/2/3 33/2/3
f 35/2/3 32/2/3 34/2/3
f 36/2/3 32/2/3 35/2/3
f 37/3/3 34/3/3 33/3/3
f 38/2/3 35/2/3 34/2/3
f 38/3/3 34/3/3 37/3/3
f 39/3/3 36/3/3 35/3/3
f 39/2/3 35/2/3 38/2/3
f 40/3/3 36/3/3 39/3/3
f 41/2/3 38/2/3 37/2/3
f 41/2/3 39/2/3 38/2/3
f 41/2/3 40/2/3 39/2/3
f 42/2/3 40/2/3 41/2/3
f 43/1/3 42/1/3 41/1/3
f 44/1/3 42/1/3 43/1/3
f 45/2/3 44/2/3 43/2/3
f 46/2/3 44/2/3 45/2/3
f 47/2/3 44/2/3 46/2/3
f 48/2/3 44/2/3 47/2/3
f 49/3/3 46/3/3 45/3/3
f 50/2/3 47/2/3 46/2/3
f 50/3/3 46/3/3 49/3/3
f 51/3/3 48/3/3 47/3/3
f 51/2/3 47/2/3 50/2/3
f 52/3/3 48/3/3 51/3/3
f 53/2/3 50/2/3 49/2/3
f 53/2/3 51/2/3 50/2/3
f 53/2/3 52/2/3 51/2/3
f 54/2/3 52/2/3 53/2/3
f 55/2/3 52/2/3 54/2/3
f 56/2/3 52/2/3 55/2/3
f 57/3/3 54/3/3 53/3/3
f 58/2/3 55/2/3 54/2/3
f 58/3/3 54/3/3 57/3/3
f 59/3/3 56/3/3 55/3/3
f 59/2/3 55/2/3 58/2/3
f 60/3/3 56/3/3 59/3/3
f 63/1/3 62/1/3 61/1/3
f 64/1/3 62/1/3 63/1/3
f 65/1/4 66/1/4 67/1/4
f 67/1/4 66/1/4 68/1/4
f 69/3/4 70/3/4 73/3/4
f 70/2/4 71/2/4 74/2/4
f 73/3/4 70/3/4 74/3/4
f 71/3/4 72/3/4 75/3/4
f 74/2/4 71/2/4 75/2/4
f 75/3/4 72/3/4 76/3/4
f 73/2/4 74/2/4 77/2/4
f 74/2/4 75/2/4 77/2/4
f 75/2/4 76/2/4 77/2/4
f 77/2/4 76/2/4 78/2/4
f 78/2/4 76/2/4 79/2/4
f 79/2/4 76/2/4 80/2/4
f 77/3/4 78/3/4 81/3/4
f 78/2/4 79/2/4 82/2/4
f 81/3/4 78/3/4 82/3/4
f 79/3/4 80/3/4 83/3/4
f 82/2/4 79/2/4 83/2/4
f 83/3/4 80/3/4 84/3/4
f 81/2/4 82/2/4 85/2/4
f 82/2/4 83/2/4 85/2/4
f 83/2/4 84/2/4 85/2/4
f 85/2/4 84/2/4 86/2/4
f 85/1/4 86/1/4 87/1/4
f 87/1/4 86/1/4 88/1/4
f 87/2/4 88/2/4 89/2/4
f 89/2/4 88/2/4 90/2/4
f 90/2/4 88/2/4 91/2/4
f 91/2/4 88/2/4 92/2/4
f 89/3/4 90/3/4 93/3/4
f 90/2/4 91/2/4 94/2/4
f 93/3/4 90/3/4 94/3/4
f 91/3/4 92/3/4 95/3/4
f 94/2/4 91/2/4 95/2/4
f 95/3/4 92/3/4 96/3/4
f 93/2/4 94/2/4 97/2/4
f 94/2/4 95/2/4 97/2/4
f 95/2/4 96/2/4 97/2/4
f 97/2/4 96/2/4 98/2/4
f 98/2/4 96/2/4 99/2/4
f 99/2/4 96/2/4 100/2/4
f 97/3/4 98/3/4 101/3/4
f 98/2/4 99/2/4 102/2/4
f 101/3/4 98/3/4 102/3/4
f 99/3/4 100/3/4 103/3/4
f 102/2/4 99/2/4 103/2/4
f 103/3/4 100/3/4 104/3/4
f 107/1/5 106/1/5 105/1/5
f 108/1/5 106/1/5 107/1/5
f 119/2/5 113/2/5 112/2/5
f 119/1/5 114/1/5 113/1/5
f 120/2/5 115/2/5 114/2/5
f 120/1/5 114/1/5 119/1/5
f 121/2/5 119/2/5 112/2/5
f 122/2/5 115/2/5 120/2/5
f 123/3/5 110/3/5 109/3/5
f 124/2/5 111/2/5 110/2/5
f 124/3/5 110/3/5 123/3/5
f 125/3/5 112/3/5 111/3/5
f 125/2/5 111/2/5 124/2/5
f 126/2/5 121/2/5 112/2/5
f 126/3/5 112/3/5 125/3/5
f 127/1/5 122/1/5 121/1/5
f 127/2/5 121/2/5 126/2/5
f 128/2/5 115/2/5 122/2/5
f 128/1/5 122/1/5 127/1/5
f 129/3/5 116/3/5 115/3/5
f 129/2/5 115/2/5 128/2/5
f 130/2/5 117/2/5 116/2/5
f 130/3/5 116/3/5 129/3/5
f 131/3/5 118/3/5 117/3/5
f 131/2/5 117/2/5 130/2/5
f 132/3/5 118/3/5 131/3/5
f 133/3/6 134/3/6 143/3/6
f 134/2/6 135/2/6 144/2/6
f 143/3/6 134/3/6 144/3/6
f 135/3/6 136/3/6 145/3/6
f 144/2/6 135/2/6 145/2/6
f 136/2/6 137/2/6 146/2/6
f 145/3/6 136/3/6 146/3/6
f 137/1/6 138/1/6 147/1/6
f 146/2/6 137/2/6 147/2/6
f 138/2/6 139/2/6 148/2/6
f 147/1/6 138/1/6 148/1/6
f 139/3/6 140/3/6 149/3/6
f 148/2/6 139/2/6 149/2/6
f 140/2/6 141/2/6 150/2/6
f 149/3/6 140/3/6 150/3/6
f 141/3/6 142/3/6 151/3/6
f 150/2/6 141/2/6 151/2/6
f 151/3/6 142/3/6 152/3/6
