# MagicaVoxel @ Ephtracy

# material
mtllib Turret.mtl
usemtl palette

# normals
vn -1 0 0
vn 1 0 0
vn 0 0 1
vn 0 0 -1
vn 0 -1 0
vn 0 1 0

# texcoords
vt 0.384766 0.5
vt 0.388672 0.5
vt 0.826172 0.5

# verts
v -5 3 5
v -5 3 3
v -5 3 -3
v -5 3 -5
v -5 5 5
v -5 5 3
v -5 5 -3
v -5 5 -5
v -4 2 4
v -4 2 -4
v -4 3 4
v -4 3 3
v -4 3 -3
v -4 3 -4
v -4 4 3
v -4 4 1
v -4 4 -1
v -4 4 -3
v -4 5 4
v -4 5 3
v -4 5 1
v -4 5 -1
v -4 5 -3
v -4 5 -4
v -4 6 4
v -4 6 3
v -4 6 -2
v -4 6 -3
v -4 7 4
v -4 7 1
v -4 7 -1
v -4 7 -2
v -4 7 -3
v -4 7 -4
v -3 0 3
v -3 0 -3
v -3 2 3
v -3 2 -3
v -3 5 1
v -3 5 -1
v -3 7 1
v -3 7 -1
v -3 8 1
v -3 8 -1
v -2 7 2
v -2 7 1
v -2 7 -1
v -2 7 -2
v -2 8 1
v -2 8 -1
v -2 8 -2
v -2 9 -0
v -2 9 -1
v -2 10 2
v -2 10 -0
v -2 10 -1
v -2 10 -2
v -1 7 3
v -1 7 2
v -1 7 -2
v -1 7 -3
v -1 8 3
v -1 8 2
v -1 8 -2
v -1 8 -3
v 1 5 4
v 1 5 3
v 1 5 -3
v 1 5 -4
v 1 7 4
v 1 7 3
v 1 7 -3
v 1 7 -4
v 3 3 5
v 3 3 4
v 3 3 -4
v 3 3 -5
v 3 4 4
v 3 4 -4
v 3 5 5
v 3 5 4
v 3 5 -4
v 3 5 -5
v -3 3 5
v -3 3 4
v -3 3 -4
v -3 3 -5
v -3 4 4
v -3 4 -4
v -3 5 5
v -3 5 4
v -3 5 -4
v -3 5 -5
v -1 5 4
v -1 5 3
v -1 5 -3
v -1 5 -4
v -1 7 4
v -1 7 3
v -1 7 -3
v -1 7 -4
v 1 7 3
v 1 7 2
v 1 7 -2
v 1 7 -3
v 1 8 3
v 1 8 2
v 1 8 -2
v 1 8 -3
v 2 7 2
v 2 7 1
v 2 7 -1
v 2 7 -2
v 2 8 1
v 2 8 -1
v 2 9 -0
v 2 9 -1
v 2 10 2
v 2 10 -0
v 2 10 -1
v 2 10 -2
v 3 0 3
v 3 0 -3
v 3 2 3
v 3 2 -3
v 3 5 1
v 3 5 -1
v 3 6 1
v 3 6 -1
v 3 7 1
v 3 7 -1
v 3 8 1
v 3 8 -1
v 4 2 4
v 4 2 -4
v 4 3 4
v 4 3 3
v 4 3 -3
v 4 3 -4
v 4 4 3
v 4 4 1
v 4 4 -1
v 4 4 -3
v 4 5 4
v 4 5 3
v 4 5 1
v 4 5 -1
v 4 5 -3
v 4 5 -4
v 4 6 2
v 4 6 1
v 4 6 -1
v 4 6 -2
v 4 7 4
v 4 7 2
v 4 7 1
v 4 7 -1
v 4 7 -2
v 4 7 -4
v 5 3 5
v 5 3 3
v 5 3 -3
v 5 3 -5
v 5 5 5
v 5 5 3
v 5 5 -3
v 5 5 -5
v -5 3 5
v -5 5 5
v -3 3 5
v -3 5 5
v 3 3 5
v 3 5 5
v 5 3 5
v 5 5 5
v -4 2 4
v -4 3 4
v -4 5 4
v -4 6 4
v -4 7 4
v -3 3 4
v -3 4 4
v -3 5 4
v -3 6 4
v -1 4 4
v -1 5 4
v -1 7 4
v 1 4 4
v 1 5 4
v 1 7 4
v 2 6 4
v 2 7 4
v 3 3 4
v 3 4 4
v 3 5 4
v 3 6 4
v 3 7 4
v 4 2 4
v 4 3 4
v 4 5 4
v 4 7 4
v -3 0 3
v -3 2 3
v -1 5 3
v -1 7 3
v -1 8 3
v 1 5 3
v 1 7 3
v 1 8 3
v 3 0 3
v 3 2 3
v -2 7 2
v -2 10 2
v -1 7 2
v -1 8 2
v -1 9 2
v -1 10 2
v 0 9 2
v 0 10 2
v 1 7 2
v 1 8 2
v 2 7 2
v 2 10 2
v -3 7 1
v -3 8 1
v -2 7 1
v -2 8 1
v 2 7 1
v 2 8 1
v 3 7 1
v 3 8 1
v -4 5 -1
v -4 7 -1
v -3 5 -1
v -3 7 -1
v 3 5 -1
v 3 6 -1
v 3 7 -1
v 4 5 -1
v 4 6 -1
v 4 7 -1
v -5 3 -3
v -5 5 -3
v -4 3 -3
v -4 4 -3
v -4 5 -3
v 4 3 -3
v 4 4 -3
v 4 5 -3
v 5 3 -3
v 5 5 -3
v -5 3 3
v -5 5 3
v -4 3 3
v -4 4 3
v -4 5 3
v 4 3 3
v 4 4 3
v 4 5 3
v 5 3 3
v 5 5 3
v -4 5 1
v -4 7 1
v -3 5 1
v -3 7 1
v 3 5 1
v 3 6 1
v 3 7 1
v 4 5 1
v 4 6 1
v 4 7 1
v -3 7 -1
v -3 8 -1
v -2 7 -1
v -2 8 -1
v 2 7 -1
v 2 8 -1
v 3 7 -1
v 3 8 -1
v -2 7 -2
v -2 8 -2
v -2 10 -2
v -1 7 -2
v -1 8 -2
v -1 9 -2
v 0 8 -2
v 0 9 -2
v 1 7 -2
v 1 8 -2
v 2 7 -2
v 2 10 -2
v -3 0 -3
v -3 2 -3
v -1 5 -3
v -1 7 -3
v -1 8 -3
v 1 5 -3
v 1 7 -3
v 1 8 -3
v 3 0 -3
v 3 2 -3
v -4 2 -4
v -4 3 -4
v -4 5 -4
v -4 7 -4
v -3 3 -4
v -3 4 -4
v -3 5 -4
v -1 4 -4
v -1 5 -4
v -1 7 -4
v 1 4 -4
v 1 5 -4
v 1 7 -4
v 3 3 -4
v 3 4 -4
v 3 5 -4
v 4 2 -4
v 4 3 -4
v 4 5 -4
v 4 7 -4
v -5 3 -5
v -5 5 -5
v -3 3 -5
v -3 5 -5
v 3 3 -5
v 3 5 -5
v 5 3 -5
v 5 5 -5
v -3 0 3
v 3 0 3
v -3 0 -3
v 3 0 -3
v -4 2 4
v 4 2 4
v -3 2 3
v 3 2 3
v -3 2 -3
v 3 2 -3
v -4 2 -4
v 4 2 -4
v -5 3 5
v -3 3 5
v 3 3 5
v 5 3 5
v -4 3 4
v -3 3 4
v 3 3 4
v 4 3 4
v -5 3 3
v -4 3 3
v 4 3 3
v 5 3 3
v -5 3 -3
v -4 3 -3
v 4 3 -3
v 5 3 -3
v -4 3 -4
v -3 3 -4
v 3 3 -4
v 4 3 -4
v -5 3 -5
v -3 3 -5
v 3 3 -5
v 5 3 -5
v -5 5 5
v -3 5 5
v 3 5 5
v 5 5 5
v -4 5 4
v -3 5 4
v -1 5 4
v 1 5 4
v 3 5 4
v 4 5 4
v -5 5 3
v -4 5 3
v -1 5 3
v 1 5 3
v 4 5 3
v 5 5 3
v -4 5 1
v -3 5 1
v 3 5 1
v 4 5 1
v -4 5 -1
v -3 5 -1
v 3 5 -1
v 4 5 -1
v -5 5 -3
v -4 5 -3
v -1 5 -3
v 1 5 -3
v 4 5 -3
v 5 5 -3
v -4 5 -4
v -3 5 -4
v -1 5 -4
v 1 5 -4
v 3 5 -4
v 4 5 -4
v -5 5 -5
v -3 5 -5
v 3 5 -5
v 5 5 -5
v -4 7 4
v -1 7 4
v 1 7 4
v 2 7 4
v 3 7 4
v 4 7 4
v -3 7 3
v -2 7 3
v -1 7 3
v 1 7 3
v 2 7 3
v 3 7 3
v -3 7 2
v -2 7 2
v -1 7 2
v 1 7 2
v 2 7 2
v 3 7 2
v 4 7 2
v -4 7 1
v -3 7 1
v -2 7 1
v 2 7 1
v 3 7 1
v 4 7 1
v -4 7 -1
v -3 7 -1
v -2 7 -1
v 2 7 -1
v 3 7 -1
v 4 7 -1
v -4 7 -2
v -3 7 -2
v -2 7 -2
v -1 7 -2
v 1 7 -2
v 2 7 -2
v 3 7 -2
v 4 7 -2
v -4 7 -3
v -3 7 -3
v -1 7 -3
v 1 7 -3
v -4 7 -4
v -1 7 -4
v 1 7 -4
v 4 7 -4
v -1 8 3
v 1 8 3
v -1 8 2
v 1 8 2
v -3 8 1
v -2 8 1
v 2 8 1
v 3 8 1
v -3 8 -1
v -2 8 -1
v 2 8 -1
v 3 8 -1
v -1 8 -2
v 0 8 -2
v 1 8 -2
v -1 8 -3
v 1 8 -3
v -2 10 2
v -1 10 2
v 0 10 2
v 2 10 2
v -1 10 1
v 0 10 1
v -2 10 -0
v -1 10 -0
v 1 10 -0
v 2 10 -0
v -2 10 -1
v -1 10 -1
v 1 10 -1
v 2 10 -1
v -2 10 -2
v 2 10 -2

# faces
f 5/3/1 2/3/1 1/3/1
f 6/3/1 2/3/1 5/3/1
f 7/3/1 4/3/1 3/3/1
f 8/3/1 4/3/1 7/3/1
f 11/3/1 10/3/1 9/3/1
f 12/3/1 10/3/1 11/3/1
f 13/3/1 10/3/1 12/3/1
f 14/3/1 10/3/1 13/3/1
f 15/3/1 13/3/1 12/3/1
f 16/3/1 13/3/1 15/3/1
f 17/3/1 13/3/1 16/3/1
f 18/3/1 13/3/1 17/3/1
f 20/1/1 16/1/1 15/1/1
f 21/3/1 17/3/1 16/3/1
f 21/1/1 16/1/1 20/1/1
f 22/1/1 18/1/1 17/1/1
f 22/3/1 17/3/1 21/3/1
f 23/1/1 18/1/1 22/1/1
f 25/1/1 20/1/1 19/1/1
f 26/2/1 21/2/1 20/2/1
f 26/1/1 20/1/1 25/1/1
f 27/2/1 23/2/1 22/2/1
f 27/2/1 24/2/1 23/2/1
f 28/2/1 24/2/1 27/2/1
f 29/2/1 26/2/1 25/2/1
f 30/2/1 21/2/1 26/2/1
f 30/2/1 26/2/1 29/2/1
f 31/2/1 27/2/1 22/2/1
f 32/1/1 28/1/1 27/1/1
f 32/2/1 27/2/1 31/2/1
f 33/2/1 24/2/1 28/2/1
f 33/1/1 28/1/1 32/1/1
f 34/2/1 24/2/1 33/2/1
f 37/3/1 36/3/1 35/3/1
f 38/3/1 36/3/1 37/3/1
f 41/3/1 40/3/1 39/3/1
f 42/3/1 40/3/1 41/3/1
f 43/3/1 42/3/1 41/3/1
f 44/3/1 42/3/1 43/3/1
f 49/2/1 46/2/1 45/2/1
f 50/1/1 48/1/1 47/1/1
f 51/1/1 48/1/1 50/1/1
f 52/2/1 50/2/1 49/2/1
f 52/2/1 51/2/1 50/2/1
f 53/2/1 51/2/1 52/2/1
f 54/2/1 49/2/1 45/2/1
f 54/2/1 52/2/1 49/2/1
f 55/1/1 53/1/1 52/1/1
f 55/2/1 52/2/1 54/2/1
f 56/2/1 51/2/1 53/2/1
f 56/1/1 53/1/1 55/1/1
f 57/2/1 51/2/1 56/2/1
f 62/3/1 59/3/1 58/3/1
f 63/3/1 59/3/1 62/3/1
f 64/3/1 61/3/1 60/3/1
f 65/3/1 61/3/1 64/3/1
f 70/2/1 67/2/1 66/2/1
f 71/2/1 67/2/1 70/2/1
f 72/2/1 69/2/1 68/2/1
f 73/2/1 69/2/1 72/2/1
f 78/3/1 75/3/1 74/3/1
f 79/3/1 77/3/1 76/3/1
f 80/3/1 78/3/1 74/3/1
f 81/3/1 78/3/1 80/3/1
f 82/3/1 77/3/1 79/3/1
f 83/3/1 77/3/1 82/3/1
f 84/3/2 85/3/2 88/3/2
f 86/3/2 87/3/2 89/3/2
f 84/3/2 88/3/2 90/3/2
f 90/3/2 88/3/2 91/3/2
f 89/3/2 87/3/2 92/3/2
f 92/3/2 87/3/2 93/3/2
f 94/2/2 95/2/2 98/2/2
f 98/2/2 95/2/2 99/2/2
f 96/2/2 97/2/2 100/2/2
f 100/2/2 97/2/2 101/2/2
f 102/3/2 103/3/2 106/3/2
f 106/3/2 103/3/2 107/3/2
f 104/3/2 105/3/2 108/3/2
f 108/3/2 105/3/2 109/3/2
f 110/2/2 111/2/2 114/2/2
f 112/2/2 113/2/2 115/2/2
f 114/2/2 115/2/2 116/2/2
f 115/2/2 113/2/2 117/2/2
f 116/2/2 115/2/2 117/2/2
f 110/2/2 114/2/2 118/2/2
f 114/2/2 116/2/2 118/2/2
f 116/1/2 117/1/2 119/1/2
f 118/2/2 116/2/2 119/2/2
f 117/2/2 113/2/2 120/2/2
f 119/1/2 117/1/2 120/1/2
f 120/2/2 113/2/2 121/2/2
f 122/3/2 123/3/2 124/3/2
f 124/3/2 123/3/2 125/3/2
f 126/3/2 127/3/2 128/3/2
f 128/3/2 127/3/2 129/3/2
f 128/3/2 129/3/2 130/3/2
f 130/3/2 129/3/2 131/3/2
f 130/3/2 131/3/2 132/3/2
f 132/3/2 131/3/2 133/3/2
f 134/3/2 135/3/2 136/3/2
f 136/3/2 135/3/2 137/3/2
f 137/3/2 135/3/2 138/3/2
f 138/3/2 135/3/2 139/3/2
f 137/3/2 138/3/2 140/3/2
f 140/3/2 138/3/2 141/3/2
f 141/3/2 138/3/2 142/3/2
f 142/3/2 138/3/2 143/3/2
f 140/1/2 141/1/2 145/1/2
f 141/3/2 142/3/2 146/3/2
f 145/1/2 141/1/2 146/1/2
f 142/1/2 143/1/2 147/1/2
f 146/3/2 142/3/2 147/3/2
f 147/1/2 143/1/2 148/1/2
f 144/2/2 145/2/2 150/2/2
f 145/2/2 146/2/2 150/2/2
f 150/2/2 146/2/2 151/2/2
f 147/2/2 148/2/2 152/2/2
f 148/2/2 149/2/2 152/2/2
f 152/2/2 149/2/2 153/2/2
f 144/2/2 150/2/2 154/2/2
f 150/1/2 151/1/2 155/1/2
f 154/2/2 150/2/2 155/2/2
f 155/1/2 151/1/2 156/1/2
f 152/1/2 153/1/2 157/1/2
f 153/2/2 149/2/2 158/2/2
f 157/1/2 153/1/2 158/1/2
f 158/2/2 149/2/2 159/2/2
f 160/3/2 161/3/2 164/3/2
f 164/3/2 161/3/2 165/3/2
f 162/3/2 163/3/2 166/3/2
f 166/3/2 163/3/2 167/3/2
f 170/3/3 169/3/3 168/3/3
f 171/3/3 169/3/3 170/3/3
f 174/3/3 173/3/3 172/3/3
f 175/3/3 173/3/3 174/3/3
f 181/3/3 177/3/3 176/3/3
f 183/1/3 179/1/3 178/1/3
f 184/2/3 180/2/3 179/2/3
f 184/1/3 179/1/3 183/1/3
f 185/1/3 183/1/3 182/1/3
f 185/3/3 182/3/3 181/3/3
f 186/2/3 184/2/3 183/2/3
f 186/1/3 183/1/3 185/1/3
f 187/2/3 180/2/3 184/2/3
f 187/2/3 184/2/3 186/2/3
f 188/3/3 186/3/3 185/3/3
f 188/3/3 185/3/3 181/3/3
f 189/3/3 186/3/3 188/3/3
f 191/2/3 190/2/3 189/2/3
f 192/2/3 190/2/3 191/2/3
f 193/3/3 181/3/3 176/3/3
f 193/3/3 188/3/3 181/3/3
f 194/1/3 189/1/3 188/1/3
f 194/3/3 188/3/3 193/3/3
f 195/2/3 191/2/3 189/2/3
f 195/1/3 189/1/3 194/1/3
f 196/1/3 192/1/3 191/1/3
f 196/2/3 191/2/3 195/2/3
f 197/1/3 192/1/3 196/1/3
f 198/3/3 193/3/3 176/3/3
f 199/3/3 193/3/3 198/3/3
f 200/2/3 197/2/3 196/2/3
f 200/2/3 196/2/3 195/2/3
f 201/2/3 197/2/3 200/2/3
f 207/3/3 205/3/3 204/3/3
f 207/3/3 206/3/3 205/3/3
f 208/3/3 206/3/3 207/3/3
f 209/3/3 206/3/3 208/3/3
f 210/3/3 203/3/3 202/3/3
f 211/3/3 203/3/3 210/3/3
f 214/2/3 213/2/3 212/2/3
f 215/2/3 213/2/3 214/2/3
f 216/2/3 213/2/3 215/2/3
f 217/2/3 213/2/3 216/2/3
f 218/2/3 216/2/3 215/2/3
f 218/1/3 217/1/3 216/1/3
f 219/1/3 217/1/3 218/1/3
f 221/2/3 218/2/3 215/2/3
f 221/2/3 219/2/3 218/2/3
f 222/2/3 221/2/3 220/2/3
f 223/2/3 219/2/3 221/2/3
f 223/2/3 221/2/3 222/2/3
f 226/3/3 225/3/3 224/3/3
f 227/3/3 225/3/3 226/3/3
f 230/3/3 229/3/3 228/3/3
f 231/3/3 229/3/3 230/3/3
f 234/2/3 233/2/3 232/2/3
f 235/2/3 233/2/3 234/2/3
f 239/2/3 237/2/3 236/2/3
f 240/1/3 238/1/3 237/1/3
f 240/2/3 237/2/3 239/2/3
f 241/1/3 238/1/3 240/1/3
f 244/3/3 243/3/3 242/3/3
f 245/3/3 243/3/3 244/3/3
f 246/3/3 243/3/3 245/3/3
f 250/3/3 248/3/3 247/3/3
f 250/3/3 249/3/3 248/3/3
f 251/3/3 249/3/3 250/3/3
f 252/3/4 253/3/4 254/3/4
f 254/3/4 253/3/4 255/3/4
f 255/3/4 253/3/4 256/3/4
f 257/3/4 258/3/4 260/3/4
f 258/3/4 259/3/4 260/3/4
f 260/3/4 259/3/4 261/3/4
f 262/2/4 263/2/4 264/2/4
f 264/2/4 263/2/4 265/2/4
f 266/2/4 267/2/4 269/2/4
f 267/1/4 268/1/4 270/1/4
f 269/2/4 267/2/4 270/2/4
f 270/1/4 268/1/4 271/1/4
f 272/3/4 273/3/4 274/3/4
f 274/3/4 273/3/4 275/3/4
f 276/3/4 277/3/4 278/3/4
f 278/3/4 277/3/4 279/3/4
f 280/1/4 281/1/4 283/1/4
f 281/2/4 282/2/4 284/2/4
f 283/1/4 281/1/4 284/1/4
f 284/2/4 282/2/4 285/2/4
f 284/1/4 285/1/4 286/1/4
f 285/2/4 282/2/4 287/2/4
f 286/1/4 285/1/4 287/1/4
f 286/2/4 287/2/4 289/2/4
f 288/2/4 289/2/4 290/2/4
f 287/2/4 282/2/4 291/2/4
f 290/2/4 289/2/4 291/2/4
f 289/2/4 287/2/4 291/2/4
f 294/3/4 295/3/4 297/3/4
f 295/3/4 296/3/4 297/3/4
f 297/3/4 296/3/4 298/3/4
f 298/3/4 296/3/4 299/3/4
f 292/3/4 293/3/4 300/3/4
f 300/3/4 293/3/4 301/3/4
f 302/3/4 303/3/4 306/3/4
f 304/2/4 305/2/4 308/2/4
f 306/3/4 307/3/4 309/3/4
f 307/1/4 308/1/4 309/1/4
f 308/2/4 305/2/4 310/2/4
f 309/1/4 308/1/4 310/1/4
f 310/2/4 305/2/4 311/2/4
f 306/3/4 309/3/4 312/3/4
f 309/3/4 310/3/4 312/3/4
f 312/3/4 310/3/4 313/3/4
f 302/3/4 306/3/4 315/3/4
f 306/3/4 312/3/4 315/3/4
f 312/1/4 313/1/4 316/1/4
f 315/3/4 312/3/4 316/3/4
f 313/2/4 314/2/4 317/2/4
f 316/1/4 313/1/4 317/1/4
f 302/3/4 315/3/4 318/3/4
f 318/3/4 315/3/4 319/3/4
f 317/2/4 314/2/4 320/2/4
f 320/2/4 314/2/4 321/2/4
f 322/3/4 323/3/4 324/3/4
f 324/3/4 323/3/4 325/3/4
f 326/3/4 327/3/4 328/3/4
f 328/3/4 327/3/4 329/3/4
f 332/3/5 331/3/5 330/3/5
f 333/3/5 331/3/5 332/3/5
f 336/3/5 335/3/5 334/3/5
f 337/3/5 335/3/5 336/3/5
f 338/3/5 336/3/5 334/3/5
f 339/3/5 335/3/5 337/3/5
f 340/3/5 338/3/5 334/3/5
f 340/3/5 339/3/5 338/3/5
f 341/3/5 335/3/5 339/3/5
f 341/3/5 339/3/5 340/3/5
f 346/3/5 343/3/5 342/3/5
f 347/3/5 343/3/5 346/3/5
f 348/3/5 345/3/5 344/3/5
f 349/3/5 345/3/5 348/3/5
f 350/3/5 346/3/5 342/3/5
f 351/3/5 346/3/5 350/3/5
f 352/3/5 345/3/5 349/3/5
f 353/3/5 345/3/5 352/3/5
f 358/3/5 355/3/5 354/3/5
f 361/3/5 357/3/5 356/3/5
f 362/3/5 359/3/5 358/3/5
f 362/3/5 358/3/5 354/3/5
f 363/3/5 359/3/5 362/3/5
f 364/3/5 361/3/5 360/3/5
f 365/3/5 357/3/5 361/3/5
f 365/3/5 361/3/5 364/3/5
f 366/3/6 367/3/6 370/3/6
f 370/3/6 367/3/6 371/3/6
f 368/3/6 369/3/6 374/3/6
f 374/3/6 369/3/6 375/3/6
f 366/3/6 370/3/6 376/3/6
f 376/3/6 370/3/6 377/3/6
f 372/3/6 373/3/6 378/3/6
f 378/3/6 373/3/6 379/3/6
f 375/3/6 369/3/6 380/3/6
f 380/3/6 369/3/6 381/3/6
f 382/3/6 383/3/6 386/3/6
f 386/3/6 383/3/6 387/3/6
f 384/3/6 385/3/6 388/3/6
f 388/3/6 385/3/6 389/3/6
f 390/3/6 391/3/6 396/3/6
f 392/3/6 393/3/6 398/3/6
f 398/3/6 393/3/6 399/3/6
f 394/3/6 395/3/6 401/3/6
f 396/3/6 397/3/6 402/3/6
f 390/3/6 396/3/6 402/3/6
f 402/3/6 397/3/6 403/3/6
f 400/3/6 401/3/6 404/3/6
f 401/3/6 395/3/6 405/3/6
f 404/3/6 401/3/6 405/3/6
f 406/2/6 407/2/6 412/2/6
f 412/2/6 407/2/6 413/2/6
f 413/2/6 407/2/6 414/2/6
f 408/2/6 409/2/6 415/2/6
f 409/1/6 410/1/6 416/1/6
f 415/2/6 409/2/6 416/2/6
f 410/2/6 411/2/6 417/2/6
f 416/1/6 410/1/6 417/1/6
f 406/2/6 412/2/6 418/2/6
f 412/1/6 413/1/6 418/1/6
f 413/2/6 414/2/6 419/2/6
f 418/1/6 413/1/6 419/1/6
f 419/2/6 414/2/6 420/2/6
f 415/2/6 416/2/6 421/2/6
f 416/2/6 417/2/6 421/2/6
f 421/2/6 417/2/6 422/2/6
f 417/2/6 411/2/6 423/2/6
f 422/2/6 417/2/6 423/2/6
f 423/2/6 411/2/6 424/2/6
f 406/2/6 418/2/6 425/2/6
f 418/2/6 419/2/6 425/2/6
f 425/2/6 419/2/6 426/2/6
f 426/2/6 419/2/6 427/2/6
f 422/2/6 423/2/6 428/2/6
f 423/1/6 424/1/6 429/1/6
f 428/2/6 423/2/6 429/2/6
f 429/1/6 424/1/6 430/1/6
f 431/2/6 432/2/6 437/2/6
f 432/2/6 433/2/6 437/2/6
f 437/2/6 433/2/6 438/2/6
f 438/2/6 433/2/6 439/2/6
f 434/2/6 435/2/6 442/2/6
f 435/1/6 436/1/6 443/1/6
f 442/2/6 435/2/6 443/2/6
f 443/1/6 436/1/6 444/1/6
f 437/1/6 438/1/6 445/1/6
f 439/2/6 440/2/6 446/2/6
f 445/1/6 438/1/6 446/1/6
f 438/2/6 439/2/6 446/2/6
f 446/2/6 440/2/6 447/2/6
f 441/2/6 442/2/6 448/2/6
f 443/2/6 444/2/6 448/2/6
f 442/2/6 443/2/6 448/2/6
f 446/2/6 447/2/6 449/2/6
f 445/2/6 446/2/6 449/2/6
f 449/2/6 447/2/6 450/2/6
f 448/2/6 444/2/6 451/2/6
f 451/2/6 444/2/6 452/2/6
f 453/3/6 454/3/6 455/3/6
f 455/3/6 454/3/6 456/3/6
f 457/3/6 458/3/6 461/3/6
f 461/3/6 458/3/6 462/3/6
f 459/3/6 460/3/6 463/3/6
f 463/3/6 460/3/6 464/3/6
f 465/3/6 466/3/6 468/3/6
f 466/3/6 467/3/6 468/3/6
f 468/3/6 467/3/6 469/3/6
f 470/2/6 471/2/6 474/2/6
f 471/1/6 472/1/6 474/1/6
f 472/2/6 473/2/6 475/2/6
f 474/1/6 472/1/6 475/1/6
f 470/2/6 474/2/6 476/2/6
f 474/2/6 475/2/6 476/2/6
f 476/2/6 475/2/6 477/2/6
f 475/2/6 473/2/6 478/2/6
f 477/2/6 475/2/6 478/2/6
f 478/2/6 473/2/6 479/2/6
f 476/1/6 477/1/6 480/1/6
f 477/2/6 478/2/6 481/2/6
f 480/1/6 477/1/6 481/1/6
f 478/1/6 479/1/6 482/1/6
f 481/2/6 478/2/6 482/2/6
f 482/1/6 479/1/6 483/1/6
f 480/2/6 481/2/6 484/2/6
f 481/2/6 482/2/6 484/2/6
f 482/2/6 483/2/6 484/2/6
f 484/2/6 483/2/6 485/2/6
