# MagicaVoxel @ Ephtracy

# material
mtllib Turret.mtl
usemtl palette

# normals
vn -1 0 0
vn 1 0 0
vn 0 0 1
vn 0 0 -1
vn 0 -1 0
vn 0 1 0

# texcoords
vt 0.548828 0.5
vt 0.822266 0.5
vt 0.826172 0.5

# verts
v -4 2 2
v -4 2 -2
v -4 4 2
v -4 4 -2
v -4 6 2
v -4 6 -2
v -4 8 2
v -4 8 -2
v -3 1 2
v -3 1 -2
v -3 2 3
v -3 2 2
v -3 2 -2
v -3 3 -2
v -3 3 -3
v -3 4 3
v -3 4 2
v -3 4 -2
v -3 4 -3
v -3 6 3
v -3 6 2
v -3 6 -2
v -3 6 -3
v -3 7 -2
v -3 7 -3
v -3 8 3
v -3 8 2
v -3 8 -2
v -3 9 2
v -3 9 -2
v -2 2 -2
v -2 2 -3
v -2 3 -2
v -2 3 -3
v -2 7 -2
v -2 7 -3
v -2 8 -2
v -2 8 -3
v -1 0 1
v -1 0 -1
v -1 1 1
v -1 1 -1
v -1 9 1
v -1 9 -1
v -1 10 1
v -1 10 -1
v 1 2 3
v 1 2 2
v 1 4 3
v 1 4 2
v 1 6 3
v 1 6 2
v 1 8 3
v 1 8 2
v -1 2 3
v -1 2 2
v -1 4 3
v -1 4 2
v -1 6 3
v -1 6 2
v -1 8 3
v -1 8 2
v 1 0 1
v 1 0 -1
v 1 1 1
v 1 1 -1
v 1 9 1
v 1 9 -1
v 1 10 1
v 1 10 -1
v 2 2 -2
v 2 2 -3
v 2 3 -2
v 2 3 -3
v 2 7 -2
v 2 7 -3
v 2 8 -2
v 2 8 -3
v 3 1 2
v 3 1 -2
v 3 2 3
v 3 2 2
v 3 2 -2
v 3 3 -2
v 3 3 -3
v 3 4 3
v 3 4 2
v 3 4 -2
v 3 4 -3
v 3 6 3
v 3 6 2
v 3 6 -2
v 3 6 -3
v 3 7 -2
v 3 7 -3
v 3 8 3
v 3 8 2
v 3 8 -2
v 3 9 2
v 3 9 -2
v 4 2 2
v 4 2 -2
v 4 4 2
v 4 4 -2
v 4 6 2
v 4 6 -2
v 4 8 2
v 4 8 -2
v -3 2 3
v -3 4 3
v -3 6 3
v -3 8 3
v -1 2 3
v -1 4 3
v -1 6 3
v -1 8 3
v 1 2 3
v 1 4 3
v 1 6 3
v 1 8 3
v 3 2 3
v 3 4 3
v 3 6 3
v 3 8 3
v -4 2 2
v -4 4 2
v -4 6 2
v -4 8 2
v -3 1 2
v -3 2 2
v -3 4 2
v -3 6 2
v -3 8 2
v -3 9 2
v -1 1 2
v -1 2 2
v -1 4 2
v -1 6 2
v -1 8 2
v -1 9 2
v 1 1 2
v 1 2 2
v 1 4 2
v 1 6 2
v 1 8 2
v 1 9 2
v 3 1 2
v 3 2 2
v 3 4 2
v 3 6 2
v 3 8 2
v 3 9 2
v 4 2 2
v 4 4 2
v 4 6 2
v 4 8 2
v -1 0 1
v -1 1 1
v -1 9 1
v -1 10 1
v 1 0 1
v 1 1 1
v 1 9 1
v 1 10 1
v -1 0 -1
v -1 1 -1
v -1 9 -1
v -1 10 -1
v 1 0 -1
v 1 1 -1
v 1 9 -1
v 1 10 -1
v -4 2 -2
v -4 4 -2
v -4 6 -2
v -4 8 -2
v -3 1 -2
v -3 2 -2
v -3 3 -2
v -3 4 -2
v -3 6 -2
v -3 7 -2
v -3 8 -2
v -3 9 -2
v -2 2 -2
v -2 3 -2
v -2 7 -2
v -2 8 -2
v -1 1 -2
v -1 2 -2
v -1 8 -2
v -1 9 -2
v 1 1 -2
v 1 2 -2
v 1 8 -2
v 1 9 -2
v 2 2 -2
v 2 3 -2
v 2 7 -2
v 2 8 -2
v 3 1 -2
v 3 2 -2
v 3 3 -2
v 3 4 -2
v 3 6 -2
v 3 7 -2
v 3 8 -2
v 3 9 -2
v 4 2 -2
v 4 4 -2
v 4 6 -2
v 4 8 -2
v -3 3 -3
v -3 4 -3
v -3 6 -3
v -3 7 -3
v -2 2 -3
v -2 3 -3
v -2 7 -3
v -2 8 -3
v -1 2 -3
v -1 4 -3
v -1 6 -3
v -1 8 -3
v 1 2 -3
v 1 4 -3
v 1 6 -3
v 1 8 -3
v 2 2 -3
v 2 3 -3
v 2 7 -3
v 2 8 -3
v 3 3 -3
v 3 4 -3
v 3 6 -3
v 3 7 -3
v -1 0 1
v 1 0 1
v -1 0 -1
v 1 0 -1
v -3 1 2
v -1 1 2
v 1 1 2
v 3 1 2
v -1 1 1
v 1 1 1
v -1 1 -1
v 1 1 -1
v -3 1 -2
v -1 1 -2
v 1 1 -2
v 3 1 -2
v -3 2 3
v -1 2 3
v 1 2 3
v 3 2 3
v -4 2 2
v -3 2 2
v -1 2 2
v 1 2 2
v 3 2 2
v 4 2 2
v -4 2 -2
v -3 2 -2
v -2 2 -2
v -1 2 -2
v 1 2 -2
v 2 2 -2
v 3 2 -2
v 4 2 -2
v -2 2 -3
v -1 2 -3
v 1 2 -3
v 2 2 -3
v -3 3 -2
v -2 3 -2
v 2 3 -2
v 3 3 -2
v -3 3 -3
v -2 3 -3
v 2 3 -3
v 3 3 -3
v -3 6 3
v -1 6 3
v 1 6 3
v 3 6 3
v -3 6 2
v -1 6 2
v 1 6 2
v 3 6 2
v -3 4 3
v -1 4 3
v 1 4 3
v 3 4 3
v -3 4 2
v -1 4 2
v 1 4 2
v 3 4 2
v -3 7 -2
v -2 7 -2
v 2 7 -2
v 3 7 -2
v -3 7 -3
v -2 7 -3
v 2 7 -3
v 3 7 -3
v -3 8 3
v -1 8 3
v 1 8 3
v 3 8 3
v -4 8 2
v -3 8 2
v -1 8 2
v 1 8 2
v 3 8 2
v 4 8 2
v -4 8 -2
v -3 8 -2
v -2 8 -2
v -1 8 -2
v 1 8 -2
v 2 8 -2
v 3 8 -2
v 4 8 -2
v -2 8 -3
v -1 8 -3
v 1 8 -3
v 2 8 -3
v -3 9 2
v -1 9 2
v 1 9 2
v 3 9 2
v -1 9 1
v 1 9 1
v -1 9 -1
v 1 9 -1
v -3 9 -2
v -1 9 -2
v 1 9 -2
v 3 9 -2
v -1 10 1
v 1 10 1
v -1 10 -1
v 1 10 -1

# faces
f 3/3/1 2/3/1 1/3/1
f 4/3/1 2/3/1 3/3/1
f 5/2/1 4/2/1 3/2/1
f 6/2/1 4/2/1 5/2/1
f 7/3/1 6/3/1 5/3/1
f 8/3/1 6/3/1 7/3/1
f 12/3/1 10/3/1 9/3/1
f 13/3/1 10/3/1 12/3/1
f 16/3/1 12/3/1 11/3/1
f 17/3/1 12/3/1 16/3/1
f 18/3/1 15/3/1 14/3/1
f 19/3/1 15/3/1 18/3/1
f 22/2/1 19/2/1 18/2/1
f 23/2/1 19/2/1 22/2/1
f 24/3/1 23/3/1 22/3/1
f 25/3/1 23/3/1 24/3/1
f 26/3/1 21/3/1 20/3/1
f 27/3/1 21/3/1 26/3/1
f 29/3/1 28/3/1 27/3/1
f 30/3/1 28/3/1 29/3/1
f 33/3/1 32/3/1 31/3/1
f 34/3/1 32/3/1 33/3/1
f 37/3/1 36/3/1 35/3/1
f 38/3/1 36/3/1 37/3/1
f 41/1/1 40/1/1 39/1/1
f 42/1/1 40/1/1 41/1/1
f 45/1/1 44/1/1 43/1/1
f 46/1/1 44/1/1 45/1/1
f 49/3/1 48/3/1 47/3/1
f 50/3/1 48/3/1 49/3/1
f 53/3/1 52/3/1 51/3/1
f 54/3/1 52/3/1 53/3/1
f 55/3/2 56/3/2 57/3/2
f 57/3/2 56/3/2 58/3/2
f 59/3/2 60/3/2 61/3/2
f 61/3/2 60/3/2 62/3/2
f 63/1/2 64/1/2 65/1/2
f 65/1/2 64/1/2 66/1/2
f 67/1/2 68/1/2 69/1/2
f 69/1/2 68/1/2 70/1/2
f 71/3/2 72/3/2 73/3/2
f 73/3/2 72/3/2 74/3/2
f 75/3/2 76/3/2 77/3/2
f 77/3/2 76/3/2 78/3/2
f 79/3/2 80/3/2 82/3/2
f 82/3/2 80/3/2 83/3/2
f 81/3/2 82/3/2 86/3/2
f 86/3/2 82/3/2 87/3/2
f 84/3/2 85/3/2 88/3/2
f 88/3/2 85/3/2 89/3/2
f 88/2/2 89/2/2 92/2/2
f 92/2/2 89/2/2 93/2/2
f 92/3/2 93/3/2 94/3/2
f 94/3/2 93/3/2 95/3/2
f 90/3/2 91/3/2 96/3/2
f 96/3/2 91/3/2 97/3/2
f 97/3/2 98/3/2 99/3/2
f 99/3/2 98/3/2 100/3/2
f 101/3/2 102/3/2 103/3/2
f 103/3/2 102/3/2 104/3/2
f 103/2/2 104/2/2 105/2/2
f 105/2/2 104/2/2 106/2/2
f 105/3/2 106/3/2 107/3/2
f 107/3/2 106/3/2 108/3/2
f 113/3/3 110/3/3 109/3/3
f 114/3/3 110/3/3 113/3/3
f 115/3/3 112/3/3 111/3/3
f 116/3/3 112/3/3 115/3/3
f 121/3/3 118/3/3 117/3/3
f 122/3/3 118/3/3 121/3/3
f 123/3/3 120/3/3 119/3/3
f 124/3/3 120/3/3 123/3/3
f 130/3/3 126/3/3 125/3/3
f 131/2/3 127/2/3 126/2/3
f 131/3/3 126/3/3 130/3/3
f 132/3/3 128/3/3 127/3/3
f 132/2/3 127/2/3 131/2/3
f 133/3/3 128/3/3 132/3/3
f 135/3/3 130/3/3 129/3/3
f 136/3/3 130/3/3 135/3/3
f 137/2/3 132/2/3 131/2/3
f 138/2/3 132/2/3 137/2/3
f 139/3/3 134/3/3 133/3/3
f 140/3/3 134/3/3 139/3/3
f 141/2/3 138/2/3 137/2/3
f 141/2/3 136/2/3 135/2/3
f 141/2/3 140/2/3 139/2/3
f 141/2/3 139/2/3 138/2/3
f 141/2/3 137/2/3 136/2/3
f 142/2/3 140/2/3 141/2/3
f 143/2/3 140/2/3 142/2/3
f 144/2/3 140/2/3 143/2/3
f 145/2/3 140/2/3 144/2/3
f 146/2/3 140/2/3 145/2/3
f 147/3/3 142/3/3 141/3/3
f 148/3/3 142/3/3 147/3/3
f 149/2/3 144/2/3 143/2/3
f 150/2/3 144/2/3 149/2/3
f 151/3/3 146/3/3 145/3/3
f 152/3/3 146/3/3 151/3/3
f 153/3/3 149/3/3 148/3/3
f 154/2/3 150/2/3 149/2/3
f 154/3/3 149/3/3 153/3/3
f 155/3/3 151/3/3 150/3/3
f 155/2/3 150/2/3 154/2/3
f 156/3/3 151/3/3 155/3/3
f 161/1/3 158/1/3 157/1/3
f 162/1/3 158/1/3 161/1/3
f 163/1/3 160/1/3 159/1/3
f 164/1/3 160/1/3 163/1/3
f 165/1/4 166/1/4 169/1/4
f 169/1/4 166/1/4 170/1/4
f 167/1/4 168/1/4 171/1/4
f 171/1/4 168/1/4 172/1/4
f 173/3/4 174/3/4 178/3/4
f 178/3/4 174/3/4 179/3/4
f 174/2/4 175/2/4 180/2/4
f 179/3/4 174/3/4 180/3/4
f 175/3/4 176/3/4 181/3/4
f 180/2/4 175/2/4 181/2/4
f 181/3/4 176/3/4 182/3/4
f 182/3/4 176/3/4 183/3/4
f 178/3/4 179/3/4 185/3/4
f 177/3/4 178/3/4 185/3/4
f 185/3/4 179/3/4 186/3/4
f 183/3/4 184/3/4 187/3/4
f 182/3/4 183/3/4 187/3/4
f 187/3/4 184/3/4 188/3/4
f 177/3/4 185/3/4 189/3/4
f 189/3/4 185/3/4 190/3/4
f 188/3/4 184/3/4 191/3/4
f 191/3/4 184/3/4 192/3/4
f 189/2/4 190/2/4 193/2/4
f 193/2/4 190/2/4 194/2/4
f 191/2/4 192/2/4 195/2/4
f 195/2/4 192/2/4 196/2/4
f 193/3/4 194/3/4 197/3/4
f 195/3/4 196/3/4 200/3/4
f 197/3/4 198/3/4 201/3/4
f 193/3/4 197/3/4 201/3/4
f 201/3/4 198/3/4 202/3/4
f 202/3/4 198/3/4 203/3/4
f 199/3/4 200/3/4 206/3/4
f 200/3/4 196/3/4 207/3/4
f 206/3/4 200/3/4 207/3/4
f 207/3/4 196/3/4 208/3/4
f 202/3/4 203/3/4 209/3/4
f 203/3/4 204/3/4 209/3/4
f 204/2/4 205/2/4 210/2/4
f 209/3/4 204/3/4 210/3/4
f 205/3/4 206/3/4 211/3/4
f 210/2/4 205/2/4 211/2/4
f 206/3/4 207/3/4 211/3/4
f 211/3/4 207/3/4 212/3/4
f 213/3/4 214/3/4 218/3/4
f 215/3/4 216/3/4 219/3/4
f 217/3/4 218/3/4 221/3/4
f 214/2/4 215/2/4 222/2/4
f 221/3/4 218/3/4 222/3/4
f 218/3/4 214/3/4 222/3/4
f 219/3/4 220/3/4 223/3/4
f 222/2/4 215/2/4 223/2/4
f 215/3/4 219/3/4 223/3/4
f 223/3/4 220/3/4 224/3/4
f 221/2/4 222/2/4 225/2/4
f 222/2/4 223/2/4 225/2/4
f 223/2/4 224/2/4 225/2/4
f 225/2/4 224/2/4 226/2/4
f 226/2/4 224/2/4 227/2/4
f 227/2/4 224/2/4 228/2/4
f 225/3/4 226/3/4 229/3/4
f 229/3/4 226/3/4 230/3/4
f 227/3/4 228/3/4 231/3/4
f 231/3/4 228/3/4 232/3/4
f 230/3/4 226/3/4 233/3/4
f 226/2/4 227/2/4 234/2/4
f 233/3/4 226/3/4 234/3/4
f 227/3/4 231/3/4 235/3/4
f 234/2/4 227/2/4 235/2/4
f 235/3/4 231/3/4 236/3/4
f 239/1/5 238/1/5 237/1/5
f 240/1/5 238/1/5 239/1/5
f 245/3/5 242/3/5 241/3/5
f 245/2/5 243/2/5 242/2/5
f 246/3/5 244/3/5 243/3/5
f 246/2/5 243/2/5 245/2/5
f 247/3/5 245/3/5 241/3/5
f 248/3/5 244/3/5 246/3/5
f 249/3/5 247/3/5 241/3/5
f 250/2/5 248/2/5 247/2/5
f 250/3/5 247/3/5 249/3/5
f 251/3/5 244/3/5 248/3/5
f 251/2/5 248/2/5 250/2/5
f 252/3/5 244/3/5 251/3/5
f 258/3/5 254/3/5 253/3/5
f 259/3/5 254/3/5 258/3/5
f 260/3/5 256/3/5 255/3/5
f 261/3/5 256/3/5 260/3/5
f 263/3/5 258/3/5 257/3/5
f 264/3/5 258/3/5 263/3/5
f 269/3/5 262/3/5 261/3/5
f 270/3/5 262/3/5 269/3/5
f 271/3/5 266/3/5 265/3/5
f 272/2/5 267/2/5 266/2/5
f 272/3/5 266/3/5 271/3/5
f 273/3/5 268/3/5 267/3/5
f 273/2/5 267/2/5 272/2/5
f 274/3/5 268/3/5 273/3/5
f 279/3/5 276/3/5 275/3/5
f 280/3/5 276/3/5 279/3/5
f 281/3/5 278/3/5 277/3/5
f 282/3/5 278/3/5 281/3/5
f 287/3/5 284/3/5 283/3/5
f 288/3/5 284/3/5 287/3/5
f 289/3/5 286/3/5 285/3/5
f 290/3/5 286/3/5 289/3/5
f 291/3/6 292/3/6 295/3/6
f 295/3/6 292/3/6 296/3/6
f 293/3/6 294/3/6 297/3/6
f 297/3/6 294/3/6 298/3/6
f 299/3/6 300/3/6 303/3/6
f 303/3/6 300/3/6 304/3/6
f 301/3/6 302/3/6 305/3/6
f 305/3/6 302/3/6 306/3/6
f 307/3/6 308/3/6 312/3/6
f 312/3/6 308/3/6 313/3/6
f 309/3/6 310/3/6 314/3/6
f 314/3/6 310/3/6 315/3/6
f 311/3/6 312/3/6 317/3/6
f 317/3/6 312/3/6 318/3/6
f 315/3/6 316/3/6 323/3/6
f 323/3/6 316/3/6 324/3/6
f 319/3/6 320/3/6 325/3/6
f 320/2/6 321/2/6 326/2/6
f 325/3/6 320/3/6 326/3/6
f 321/3/6 322/3/6 327/3/6
f 326/2/6 321/2/6 327/2/6
f 327/3/6 322/3/6 328/3/6
f 329/3/6 330/3/6 333/3/6
f 330/2/6 331/2/6 333/2/6
f 331/3/6 332/3/6 334/3/6
f 333/2/6 331/2/6 334/2/6
f 329/3/6 333/3/6 335/3/6
f 334/3/6 332/3/6 336/3/6
f 329/3/6 335/3/6 337/3/6
f 335/2/6 336/2/6 338/2/6
f 337/3/6 335/3/6 338/3/6
f 336/3/6 332/3/6 339/3/6
f 338/2/6 336/2/6 339/2/6
f 339/3/6 332/3/6 340/3/6
f 341/1/6 342/1/6 343/1/6
f 343/1/6 342/1/6 344/1/6
