# MagicaVoxel @ Ephtracy

# material
mtllib Base.mtl
usemtl palette

# normals
vn -1 0 0
vn 1 0 0
vn 0 0 1
vn 0 0 -1
vn 0 -1 0
vn 0 1 0

# texcoords
vt 0.548828 0.5
vt 0.822266 0.5
vt 0.826172 0.5
vt 0.833984 0.5

# verts
v -5 0 3
v -5 0 -3
v -5 1 2
v -5 1 -2
v -5 2 3
v -5 2 2
v -5 2 1
v -5 2 -1
v -5 2 -2
v -5 2 -3
v -5 6 5
v -5 6 3
v -5 6 2
v -5 6 1
v -5 6 -1
v -5 6 -2
v -5 6 -3
v -5 6 -5
v -5 8 2
v -5 8 -2
v -5 10 5
v -5 10 2
v -5 10 -2
v -5 10 -5
v -4 0 4
v -4 0 3
v -4 0 -3
v -4 0 -4
v -4 2 3
v -4 2 2
v -4 2 1
v -4 2 -1
v -4 2 -2
v -4 2 -3
v -4 6 4
v -4 6 3
v -4 6 2
v -4 6 1
v -4 6 -1
v -4 6 -2
v -4 6 -3
v -4 6 -4
v -4 8 2
v -4 8 -2
v -4 9 2
v -4 9 -2
v -3 0 5
v -3 0 4
v -3 0 -4
v -3 0 -5
v -3 2 5
v -3 2 4
v -3 2 -4
v -3 2 -5
v -3 6 5
v -3 6 4
v -3 6 -4
v -3 6 -5
v -1 2 5
v -1 2 4
v -1 2 -4
v -1 2 -5
v -1 6 5
v -1 6 4
v -1 6 -4
v -1 6 -5
v -1 9 1
v -1 9 -1
v -1 10 1
v -1 10 -1
v 2 2 5
v 2 2 4
v 2 2 -4
v 2 2 -5
v 2 6 5
v 2 6 4
v 2 6 -4
v 2 6 -5
v 2 8 5
v 2 8 4
v 2 8 -4
v 2 8 -5
v 2 9 4
v 2 9 -4
v 2 10 5
v 2 10 4
v 2 10 -4
v 2 10 -5
v 4 9 4
v 4 9 2
v 4 9 -2
v 4 9 -4
v 4 10 4
v 4 10 2
v 4 10 -2
v 4 10 -4
v -4 9 4
v -4 9 2
v -4 9 -2
v -4 9 -4
v -4 10 4
v -4 10 2
v -4 10 -2
v -4 10 -4
v -2 2 5
v -2 2 4
v -2 2 -4
v -2 2 -5
v -2 6 5
v -2 6 4
v -2 6 -4
v -2 6 -5
v -2 8 5
v -2 8 4
v -2 8 -4
v -2 8 -5
v -2 9 4
v -2 9 -4
v -2 10 5
v -2 10 4
v -2 10 -4
v -2 10 -5
v 1 2 5
v 1 2 4
v 1 2 -4
v 1 2 -5
v 1 6 5
v 1 6 4
v 1 6 -4
v 1 6 -5
v 1 9 1
v 1 9 -1
v 1 10 1
v 1 10 -1
v 3 0 5
v 3 0 4
v 3 0 -4
v 3 0 -5
v 3 2 5
v 3 2 4
v 3 2 -4
v 3 2 -5
v 3 6 5
v 3 6 4
v 3 6 -4
v 3 6 -5
v 4 0 4
v 4 0 3
v 4 0 -3
v 4 0 -4
v 4 2 3
v 4 2 2
v 4 2 1
v 4 2 -1
v 4 2 -2
v 4 2 -3
v 4 6 4
v 4 6 3
v 4 6 2
v 4 6 1
v 4 6 -1
v 4 6 -2
v 4 6 -3
v 4 6 -4
v 4 8 2
v 4 8 -2
v 4 9 2
v 4 9 -2
v 5 0 3
v 5 0 -3
v 5 1 2
v 5 1 -2
v 5 2 3
v 5 2 2
v 5 2 1
v 5 2 -1
v 5 2 -2
v 5 2 -3
v 5 6 5
v 5 6 3
v 5 6 2
v 5 6 1
v 5 6 -1
v 5 6 -2
v 5 6 -3
v 5 6 -5
v 5 8 2
v 5 8 -2
v 5 10 5
v 5 10 2
v 5 10 -2
v 5 10 -5
v -5 6 5
v -5 10 5
v -3 0 5
v -3 2 5
v -3 6 5
v -2 1 5
v -2 2 5
v -2 6 5
v -2 8 5
v -2 10 5
v -1 2 5
v -1 6 5
v 1 2 5
v 1 6 5
v 2 1 5
v 2 2 5
v 2 6 5
v 2 8 5
v 2 10 5
v 3 0 5
v 3 2 5
v 3 6 5
v 5 6 5
v 5 10 5
v -4 0 4
v -4 6 4
v -3 0 4
v -3 2 4
v -3 6 4
v -2 2 4
v -2 6 4
v -2 8 4
v -2 9 4
v -1 2 4
v -1 6 4
v 1 2 4
v 1 6 4
v 2 2 4
v 2 6 4
v 2 8 4
v 2 9 4
v 3 0 4
v 3 2 4
v 3 6 4
v 4 0 4
v 4 6 4
v -5 0 3
v -5 2 3
v -5 6 3
v -4 0 3
v -4 2 3
v -4 6 3
v 4 0 3
v 4 2 3
v 4 6 3
v 5 0 3
v 5 2 3
v 5 6 3
v -5 2 1
v -5 6 1
v -4 2 1
v -4 6 1
v -1 9 1
v -1 10 1
v 1 9 1
v 1 10 1
v 4 2 1
v 4 6 1
v 5 2 1
v 5 6 1
v -5 2 -2
v -5 6 -2
v -5 8 -2
v -5 10 -2
v -4 2 -2
v -4 6 -2
v -4 8 -2
v -4 9 -2
v -4 10 -2
v 4 2 -2
v 4 6 -2
v 4 8 -2
v 4 9 -2
v 4 10 -2
v 5 2 -2
v 5 6 -2
v 5 8 -2
v 5 10 -2
v -4 9 -4
v -4 10 -4
v -2 9 -4
v -2 10 -4
v 2 9 -4
v 2 10 -4
v 4 9 -4
v 4 10 -4
v -4 9 4
v -4 10 4
v -2 9 4
v -2 10 4
v 2 9 4
v 2 10 4
v 4 9 4
v 4 10 4
v -5 2 2
v -5 6 2
v -5 8 2
v -5 10 2
v -4 2 2
v -4 6 2
v -4 8 2
v -4 9 2
v -4 10 2
v 4 2 2
v 4 6 2
v 4 8 2
v 4 9 2
v 4 10 2
v 5 2 2
v 5 6 2
v 5 8 2
v 5 10 2
v -5 2 -1
v -5 6 -1
v -4 2 -1
v -4 6 -1
v -1 9 -1
v -1 10 -1
v 1 9 -1
v 1 10 -1
v 4 2 -1
v 4 6 -1
v 5 2 -1
v 5 6 -1
v -5 0 -3
v -5 2 -3
v -5 6 -3
v -4 0 -3
v -4 2 -3
v -4 6 -3
v 4 0 -3
v 4 2 -3
v 4 6 -3
v 5 0 -3
v 5 2 -3
v 5 6 -3
v -4 0 -4
v -4 6 -4
v -3 0 -4
v -3 2 -4
v -3 6 -4
v -2 2 -4
v -2 6 -4
v -2 8 -4
v -2 9 -4
v -1 2 -4
v -1 6 -4
v 1 2 -4
v 1 6 -4
v 2 2 -4
v 2 6 -4
v 2 8 -4
v 2 9 -4
v 3 0 -4
v 3 2 -4
v 3 6 -4
v 4 0 -4
v 4 6 -4
v -5 6 -5
v -5 10 -5
v -3 0 -5
v -3 2 -5
v -3 6 -5
v -2 1 -5
v -2 2 -5
v -2 6 -5
v -2 8 -5
v -2 10 -5
v -1 2 -5
v -1 6 -5
v 1 2 -5
v 1 6 -5
v 2 1 -5
v 2 2 -5
v 2 6 -5
v 2 8 -5
v 2 10 -5
v 3 0 -5
v 3 2 -5
v 3 6 -5
v 5 6 -5
v 5 10 -5
v -3 0 5
v 3 0 5
v -4 0 4
v -3 0 4
v 3 0 4
v 4 0 4
v -5 0 3
v -4 0 3
v 4 0 3
v 5 0 3
v -5 0 -3
v -4 0 -3
v 4 0 -3
v 5 0 -3
v -4 0 -4
v -3 0 -4
v 3 0 -4
v 4 0 -4
v -3 0 -5
v 3 0 -5
v -5 6 5
v -3 6 5
v -2 6 5
v -1 6 5
v 1 6 5
v 2 6 5
v 3 6 5
v 5 6 5
v -4 6 4
v -3 6 4
v -2 6 4
v -1 6 4
v 1 6 4
v 2 6 4
v 3 6 4
v 4 6 4
v -5 6 3
v -4 6 3
v 4 6 3
v 5 6 3
v -5 6 2
v -4 6 2
v 4 6 2
v 5 6 2
v -5 6 1
v -4 6 1
v 4 6 1
v 5 6 1
v -5 6 -1
v -4 6 -1
v 4 6 -1
v 5 6 -1
v -5 6 -2
v -4 6 -2
v 4 6 -2
v 5 6 -2
v -5 6 -3
v -4 6 -3
v 4 6 -3
v 5 6 -3
v -4 6 -4
v -3 6 -4
v -2 6 -4
v -1 6 -4
v 1 6 -4
v 2 6 -4
v 3 6 -4
v 4 6 -4
v -5 6 -5
v -3 6 -5
v -2 6 -5
v -1 6 -5
v 1 6 -5
v 2 6 -5
v 3 6 -5
v 5 6 -5
v -2 2 5
v -1 2 5
v 1 2 5
v 2 2 5
v -2 2 4
v -1 2 4
v 1 2 4
v 2 2 4
v -5 2 2
v -4 2 2
v 4 2 2
v 5 2 2
v -5 2 1
v -4 2 1
v 4 2 1
v 5 2 1
v -5 2 -1
v -4 2 -1
v 4 2 -1
v 5 2 -1
v -5 2 -2
v -4 2 -2
v 4 2 -2
v 5 2 -2
v -2 2 -4
v -1 2 -4
v 1 2 -4
v 2 2 -4
v -2 2 -5
v -1 2 -5
v 1 2 -5
v 2 2 -5
v -2 8 5
v 2 8 5
v -2 8 4
v 2 8 4
v -5 8 2
v -4 8 2
v 4 8 2
v 5 8 2
v -5 8 -2
v -4 8 -2
v 4 8 -2
v 5 8 -2
v -2 8 -4
v 2 8 -4
v -2 8 -5
v 2 8 -5
v -4 9 4
v -2 9 4
v 2 9 4
v 4 9 4
v -4 9 2
v 4 9 2
v -1 9 1
v 1 9 1
v -1 9 -1
v 1 9 -1
v -4 9 -2
v 4 9 -2
v -4 9 -4
v -2 9 -4
v 2 9 -4
v 4 9 -4
v -5 10 5
v -2 10 5
v 2 10 5
v 5 10 5
v -4 10 4
v -2 10 4
v 2 10 4
v 4 10 4
v -5 10 2
v -4 10 2
v 4 10 2
v 5 10 2
v -1 10 1
v 1 10 1
v -1 10 -1
v 1 10 -1
v -5 10 -2
v -4 10 -2
v 4 10 -2
v 5 10 -2
v -4 10 -4
v -2 10 -4
v 2 10 -4
v 4 10 -4
v -5 10 -5
v -2 10 -5
v 2 10 -5
v 5 10 -5

# faces
f 3/2/1 2/2/1 1/2/1
f 4/2/1 2/2/1 3/2/1
f 5/2/1 3/2/1 1/2/1
f 6/3/1 4/3/1 3/3/1
f 6/2/1 3/2/1 5/2/1
f 7/3/1 4/3/1 6/3/1
f 8/3/1 4/3/1 7/3/1
f 9/2/1 2/2/1 4/2/1
f 9/3/1 4/3/1 8/3/1
f 10/2/1 2/2/1 9/2/1
f 12/4/1 6/4/1 5/4/1
f 13/4/1 6/4/1 12/4/1
f 14/3/1 8/3/1 7/3/1
f 15/3/1 8/3/1 14/3/1
f 16/4/1 10/4/1 9/4/1
f 17/4/1 10/4/1 16/4/1
f 19/3/1 13/3/1 12/3/1
f 19/3/1 18/3/1 17/3/1
f 19/3/1 16/3/1 15/3/1
f 19/3/1 15/3/1 14/3/1
f 19/3/1 14/3/1 13/3/1
f 19/3/1 17/3/1 16/3/1
f 19/3/1 12/3/1 11/3/1
f 20/3/1 18/3/1 19/3/1
f 21/3/1 19/3/1 11/3/1
f 22/3/1 19/3/1 21/3/1
f 23/3/1 18/3/1 20/3/1
f 24/3/1 18/3/1 23/3/1
f 29/1/1 26/1/1 25/1/1
f 34/1/1 28/1/1 27/1/1
f 35/1/1 29/1/1 25/1/1
f 36/1/1 29/1/1 35/1/1
f 37/1/1 31/1/1 30/1/1
f 38/1/1 31/1/1 37/1/1
f 39/1/1 33/1/1 32/1/1
f 40/1/1 33/1/1 39/1/1
f 41/1/1 28/1/1 34/1/1
f 42/1/1 28/1/1 41/1/1
f 45/1/1 44/1/1 43/1/1
f 46/1/1 44/1/1 45/1/1
f 51/2/1 48/2/1 47/2/1
f 52/2/1 48/2/1 51/2/1
f 53/2/1 50/2/1 49/2/1
f 54/2/1 50/2/1 53/2/1
f 55/4/1 52/4/1 51/4/1
f 56/4/1 52/4/1 55/4/1
f 57/4/1 54/4/1 53/4/1
f 58/4/1 54/4/1 57/4/1
f 63/3/1 60/3/1 59/3/1
f 64/3/1 60/3/1 63/3/1
f 65/3/1 62/3/1 61/3/1
f 66/3/1 62/3/1 65/3/1
f 69/1/1 68/1/1 67/1/1
f 70/1/1 68/1/1 69/1/1
f 75/4/1 72/4/1 71/4/1
f 76/4/1 72/4/1 75/4/1
f 77/4/1 74/4/1 73/4/1
f 78/4/1 74/4/1 77/4/1
f 83/3/1 80/3/1 79/3/1
f 84/3/1 82/3/1 81/3/1
f 85/3/1 83/3/1 79/3/1
f 86/3/1 83/3/1 85/3/1
f 87/3/1 82/3/1 84/3/1
f 88/3/1 82/3/1 87/3/1
f 93/3/1 90/3/1 89/3/1
f 94/3/1 90/3/1 93/3/1
f 95/3/1 92/3/1 91/3/1
f 96/3/1 92/3/1 95/3/1
f 97/3/2 98/3/2 101/3/2
f 101/3/2 98/3/2 102/3/2
f 99/3/2 100/3/2 103/3/2
f 103/3/2 100/3/2 104/3/2
f 105/4/2 106/4/2 109/4/2
f 109/4/2 106/4/2 110/4/2
f 107/4/2 108/4/2 111/4/2
f 111/4/2 108/4/2 112/4/2
f 113/3/2 114/3/2 117/3/2
f 115/3/2 116/3/2 118/3/2
f 113/3/2 117/3/2 119/3/2
f 119/3/2 117/3/2 120/3/2
f 118/3/2 116/3/2 121/3/2
f 121/3/2 116/3/2 122/3/2
f 123/3/2 124/3/2 127/3/2
f 127/3/2 124/3/2 128/3/2
f 125/3/2 126/3/2 129/3/2
f 129/3/2 126/3/2 130/3/2
f 131/1/2 132/1/2 133/1/2
f 133/1/2 132/1/2 134/1/2
f 135/2/2 136/2/2 139/2/2
f 139/2/2 136/2/2 140/2/2
f 137/2/2 138/2/2 141/2/2
f 141/2/2 138/2/2 142/2/2
f 139/4/2 140/4/2 143/4/2
f 143/4/2 140/4/2 144/4/2
f 141/4/2 142/4/2 145/4/2
f 145/4/2 142/4/2 146/4/2
f 147/1/2 148/1/2 151/1/2
f 149/1/2 150/1/2 156/1/2
f 147/1/2 151/1/2 157/1/2
f 157/1/2 151/1/2 158/1/2
f 152/1/2 153/1/2 159/1/2
f 159/1/2 153/1/2 160/1/2
f 154/1/2 155/1/2 161/1/2
f 161/1/2 155/1/2 162/1/2
f 156/1/2 150/1/2 163/1/2
f 163/1/2 150/1/2 164/1/2
f 165/1/2 166/1/2 167/1/2
f 167/1/2 166/1/2 168/1/2
f 169/2/2 170/2/2 171/2/2
f 171/2/2 170/2/2 172/2/2
f 169/2/2 171/2/2 173/2/2
f 171/3/2 172/3/2 174/3/2
f 173/2/2 171/2/2 174/2/2
f 174/3/2 172/3/2 175/3/2
f 175/3/2 172/3/2 176/3/2
f 172/2/2 170/2/2 177/2/2
f 176/3/2 172/3/2 177/3/2
f 177/2/2 170/2/2 178/2/2
f 173/4/2 174/4/2 180/4/2
f 180/4/2 174/4/2 181/4/2
f 175/3/2 176/3/2 182/3/2
f 182/3/2 176/3/2 183/3/2
f 177/4/2 178/4/2 184/4/2
f 184/4/2 178/4/2 185/4/2
f 180/3/2 181/3/2 187/3/2
f 185/3/2 186/3/2 187/3/2
f 183/3/2 184/3/2 187/3/2
f 182/3/2 183/3/2 187/3/2
f 181/3/2 182/3/2 187/3/2
f 184/3/2 185/3/2 187/3/2
f 179/3/2 180/3/2 187/3/2
f 187/3/2 186/3/2 188/3/2
f 179/3/2 187/3/2 189/3/2
f 189/3/2 187/3/2 190/3/2
f 188/3/2 186/3/2 191/3/2
f 191/3/2 186/3/2 192/3/2
f 197/3/3 194/3/3 193/3/3
f 198/2/3 196/2/3 195/2/3
f 199/4/3 197/4/3 196/4/3
f 199/2/3 196/2/3 198/2/3
f 200/3/3 194/3/3 197/3/3
f 200/4/3 197/4/3 199/4/3
f 201/3/3 194/3/3 200/3/3
f 202/3/3 194/3/3 201/3/3
f 203/3/3 199/3/3 198/3/3
f 204/3/3 201/3/3 200/3/3
f 205/3/3 203/3/3 198/3/3
f 205/3/3 204/3/3 203/3/3
f 206/3/3 201/3/3 204/3/3
f 206/3/3 204/3/3 205/3/3
f 207/2/3 198/2/3 195/2/3
f 207/3/3 205/3/3 198/3/3
f 208/3/3 205/3/3 207/3/3
f 209/3/3 201/3/3 206/3/3
f 210/3/3 201/3/3 209/3/3
f 212/2/3 208/2/3 207/2/3
f 212/2/3 207/2/3 195/2/3
f 213/4/3 209/4/3 208/4/3
f 213/2/3 208/2/3 212/2/3
f 214/3/3 211/3/3 210/3/3
f 214/4/3 209/4/3 213/4/3
f 214/3/3 210/3/3 209/3/3
f 215/3/3 211/3/3 214/3/3
f 216/3/3 211/3/3 215/3/3
f 219/1/3 218/1/3 217/1/3
f 220/1/3 218/1/3 219/1/3
f 221/1/3 218/1/3 220/1/3
f 226/1/3 223/1/3 222/1/3
f 227/1/3 223/1/3 226/1/3
f 230/1/3 229/1/3 228/1/3
f 231/1/3 229/1/3 230/1/3
f 232/1/3 225/1/3 224/1/3
f 233/1/3 225/1/3 232/1/3
f 237/1/3 235/1/3 234/1/3
f 237/1/3 236/1/3 235/1/3
f 238/1/3 236/1/3 237/1/3
f 242/2/3 240/2/3 239/2/3
f 243/4/3 241/4/3 240/4/3
f 243/2/3 240/2/3 242/2/3
f 244/4/3 241/4/3 243/4/3
f 248/2/3 246/2/3 245/2/3
f 249/4/3 247/4/3 246/4/3
f 249/2/3 246/2/3 248/2/3
f 250/4/3 247/4/3 249/4/3
f 253/3/3 252/3/3 251/3/3
f 254/3/3 252/3/3 253/3/3
f 257/1/3 256/1/3 255/1/3
f 258/1/3 256/1/3 257/1/3
f 261/3/3 260/3/3 259/3/3
f 262/3/3 260/3/3 261/3/3
f 267/4/3 264/4/3 263/4/3
f 268/4/3 264/4/3 267/4/3
f 269/3/3 266/3/3 265/3/3
f 270/3/3 266/3/3 269/3/3
f 271/3/3 266/3/3 270/3/3
f 277/4/3 273/4/3 272/4/3
f 278/4/3 273/4/3 277/4/3
f 279/3/3 276/3/3 275/3/3
f 279/3/3 275/3/3 274/3/3
f 280/3/3 276/3/3 279/3/3
f 283/3/3 282/3/3 281/3/3
f 284/3/3 282/3/3 283/3/3
f 287/3/3 286/3/3 285/3/3
f 288/3/3 286/3/3 287/3/3
f 289/3/4 290/3/4 291/3/4
f 291/3/4 290/3/4 292/3/4
f 293/3/4 294/3/4 295/3/4
f 295/3/4 294/3/4 296/3/4
f 297/4/4 298/4/4 301/4/4
f 301/4/4 298/4/4 302/4/4
f 299/3/4 300/3/4 303/3/4
f 303/3/4 300/3/4 304/3/4
f 304/3/4 300/3/4 305/3/4
f 306/4/4 307/4/4 311/4/4
f 311/4/4 307/4/4 312/4/4
f 309/3/4 310/3/4 313/3/4
f 308/3/4 309/3/4 313/3/4
f 313/3/4 310/3/4 314/3/4
f 315/3/4 316/3/4 317/3/4
f 317/3/4 316/3/4 318/3/4
f 319/1/4 320/1/4 321/1/4
f 321/1/4 320/1/4 322/1/4
f 323/3/4 324/3/4 325/3/4
f 325/3/4 324/3/4 326/3/4
f 327/2/4 328/2/4 330/2/4
f 328/4/4 329/4/4 331/4/4
f 330/2/4 328/2/4 331/2/4
f 331/4/4 329/4/4 332/4/4
f 333/2/4 334/2/4 336/2/4
f 334/4/4 335/4/4 337/4/4
f 336/2/4 334/2/4 337/2/4
f 337/4/4 335/4/4 338/4/4
f 339/1/4 340/1/4 341/1/4
f 341/1/4 340/1/4 342/1/4
f 342/1/4 340/1/4 343/1/4
f 344/1/4 345/1/4 348/1/4
f 348/1/4 345/1/4 349/1/4
f 350/1/4 351/1/4 352/1/4
f 352/1/4 351/1/4 353/1/4
f 346/1/4 347/1/4 354/1/4
f 354/1/4 347/1/4 355/1/4
f 356/1/4 357/1/4 359/1/4
f 357/1/4 358/1/4 359/1/4
f 359/1/4 358/1/4 360/1/4
f 361/3/4 362/3/4 365/3/4
f 363/2/4 364/2/4 366/2/4
f 364/4/4 365/4/4 367/4/4
f 366/2/4 364/2/4 367/2/4
f 365/3/4 362/3/4 368/3/4
f 367/4/4 365/4/4 368/4/4
f 368/3/4 362/3/4 369/3/4
f 369/3/4 362/3/4 370/3/4
f 366/3/4 367/3/4 371/3/4
f 368/3/4 369/3/4 372/3/4
f 366/3/4 371/3/4 373/3/4
f 371/3/4 372/3/4 373/3/4
f 372/3/4 369/3/4 374/3/4
f 373/3/4 372/3/4 374/3/4
f 363/2/4 366/2/4 375/2/4
f 366/3/4 373/3/4 375/3/4
f 375/3/4 373/3/4 376/3/4
f 374/3/4 369/3/4 377/3/4
f 377/3/4 369/3/4 378/3/4
f 375/2/4 376/2/4 380/2/4
f 363/2/4 375/2/4 380/2/4
f 376/4/4 377/4/4 381/4/4
f 380/2/4 376/2/4 381/2/4
f 378/3/4 379/3/4 382/3/4
f 381/4/4 377/4/4 382/4/4
f 377/3/4 378/3/4 382/3/4
f 382/3/4 379/3/4 383/3/4
f 383/3/4 379/3/4 384/3/4
f 388/2/5 386/2/5 385/2/5
f 389/2/5 386/2/5 388/2/5
f 392/1/5 388/1/5 387/1/5
f 392/1/5 390/1/5 389/1/5
f 392/1/5 389/1/5 388/1/5
f 393/1/5 390/1/5 392/1/5
f 395/2/5 392/2/5 391/2/5
f 396/1/5 393/1/5 392/1/5
f 396/2/5 392/2/5 395/2/5
f 397/2/5 394/2/5 393/2/5
f 397/1/5 393/1/5 396/1/5
f 398/2/5 394/2/5 397/2/5
f 399/1/5 397/1/5 396/1/5
f 400/1/5 397/1/5 399/1/5
f 401/1/5 397/1/5 400/1/5
f 402/1/5 397/1/5 401/1/5
f 403/2/5 401/2/5 400/2/5
f 404/2/5 401/2/5 403/2/5
f 413/3/5 406/3/5 405/3/5
f 414/3/5 406/3/5 413/3/5
f 415/3/5 408/3/5 407/3/5
f 416/3/5 408/3/5 415/3/5
f 417/3/5 410/3/5 409/3/5
f 418/3/5 410/3/5 417/3/5
f 419/3/5 412/3/5 411/3/5
f 420/3/5 412/3/5 419/3/5
f 421/3/5 413/3/5 405/3/5
f 422/3/5 413/3/5 421/3/5
f 423/3/5 412/3/5 420/3/5
f 424/3/5 412/3/5 423/3/5
f 429/3/5 426/3/5 425/3/5
f 430/3/5 426/3/5 429/3/5
f 431/3/5 428/3/5 427/3/5
f 432/3/5 428/3/5 431/3/5
f 437/3/5 434/3/5 433/3/5
f 438/3/5 434/3/5 437/3/5
f 439/3/5 436/3/5 435/3/5
f 440/3/5 436/3/5 439/3/5
f 445/3/5 442/3/5 441/3/5
f 452/3/5 444/3/5 443/3/5
f 453/3/5 445/3/5 441/3/5
f 453/3/5 446/3/5 445/3/5
f 454/3/5 446/3/5 453/3/5
f 455/3/5 448/3/5 447/3/5
f 456/3/5 448/3/5 455/3/5
f 457/3/5 450/3/5 449/3/5
f 458/3/5 450/3/5 457/3/5
f 459/3/5 452/3/5 451/3/5
f 460/3/5 444/3/5 452/3/5
f 460/3/5 452/3/5 459/3/5
f 461/3/6 462/3/6 465/3/6
f 465/3/6 462/3/6 466/3/6
f 463/3/6 464/3/6 467/3/6
f 467/3/6 464/3/6 468/3/6
f 469/3/6 470/3/6 473/3/6
f 473/3/6 470/3/6 474/3/6
f 471/3/6 472/3/6 475/3/6
f 475/3/6 472/3/6 476/3/6
f 477/3/6 478/3/6 481/3/6
f 481/3/6 478/3/6 482/3/6
f 479/3/6 480/3/6 483/3/6
f 483/3/6 480/3/6 484/3/6
f 485/3/6 486/3/6 489/3/6
f 489/3/6 486/3/6 490/3/6
f 487/3/6 488/3/6 491/3/6
f 491/3/6 488/3/6 492/3/6
f 493/3/6 494/3/6 495/3/6
f 495/3/6 494/3/6 496/3/6
f 497/3/6 498/3/6 501/3/6
f 501/3/6 498/3/6 502/3/6
f 499/3/6 500/3/6 503/3/6
f 503/3/6 500/3/6 504/3/6
f 505/3/6 506/3/6 507/3/6
f 507/3/6 506/3/6 508/3/6
f 509/1/6 510/1/6 513/1/6
f 511/1/6 512/1/6 513/1/6
f 510/1/6 511/1/6 513/1/6
f 513/1/6 512/1/6 514/1/6
f 513/1/6 514/1/6 515/1/6
f 515/1/6 514/1/6 516/1/6
f 513/1/6 515/1/6 517/1/6
f 516/1/6 514/1/6 518/1/6
f 513/1/6 517/1/6 519/1/6
f 517/1/6 518/1/6 519/1/6
f 518/1/6 514/1/6 520/1/6
f 519/1/6 518/1/6 520/1/6
f 519/1/6 520/1/6 521/1/6
f 521/1/6 520/1/6 522/1/6
f 522/1/6 520/1/6 523/1/6
f 523/1/6 520/1/6 524/1/6
f 525/3/6 526/3/6 529/3/6
f 529/3/6 526/3/6 530/3/6
f 527/3/6 528/3/6 531/3/6
f 531/3/6 528/3/6 532/3/6
f 525/3/6 529/3/6 533/3/6
f 533/3/6 529/3/6 534/3/6
f 532/3/6 528/3/6 535/3/6
f 535/3/6 528/3/6 536/3/6
f 537/1/6 538/1/6 539/1/6
f 539/1/6 538/1/6 540/1/6
f 541/3/6 542/3/6 545/3/6
f 543/3/6 544/3/6 548/3/6
f 545/3/6 546/3/6 549/3/6
f 541/3/6 545/3/6 549/3/6
f 549/3/6 546/3/6 550/3/6
f 547/3/6 548/3/6 551/3/6
f 548/3/6 544/3/6 552/3/6
f 551/3/6 548/3/6 552/3/6
