# MagicaVoxel @ Ephtracy

# material
mtllib Turret.mtl
usemtl palette

# normals
vn -1 0 0
vn 1 0 0
vn 0 0 1
vn 0 0 -1
vn 0 -1 0
vn 0 1 0

# texcoords
vt 0.267578 0.5
vt 0.822266 0.5
vt 0.826172 0.5

# verts
v -5 1 2
v -5 1 -2
v -5 2 2
v -5 2 -2
v -5 3 2
v -5 3 -2
v -5 4 2
v -5 4 -2
v -5 5 2
v -5 5 -2
v -5 6 2
v -5 6 -2
v -5 7 2
v -5 7 -2
v -5 8 2
v -5 8 -2
v -4 2 3
v -4 2 2
v -4 2 -2
v -4 2 -3
v -4 3 3
v -4 3 2
v -4 3 -2
v -4 3 -3
v -4 6 3
v -4 6 2
v -4 6 -2
v -4 6 -3
v -4 7 3
v -4 7 2
v -4 7 -2
v -4 7 -3
v -2 0 2
v -2 0 -2
v -2 1 2
v -2 1 -2
v -2 4 2
v -2 4 -2
v -2 5 2
v -2 5 -2
v -2 8 2
v -2 8 -2
v -2 10 2
v -2 10 -2
v 2 0 2
v 2 0 -2
v 2 1 2
v 2 1 -2
v 2 4 2
v 2 4 -2
v 2 5 2
v 2 5 -2
v 2 8 2
v 2 8 -2
v 2 10 2
v 2 10 -2
v 4 2 3
v 4 2 2
v 4 2 -2
v 4 2 -3
v 4 3 3
v 4 3 2
v 4 3 -2
v 4 3 -3
v 4 6 3
v 4 6 2
v 4 6 -2
v 4 6 -3
v 4 7 3
v 4 7 2
v 4 7 -2
v 4 7 -3
v 5 1 2
v 5 1 -2
v 5 2 2
v 5 2 -2
v 5 3 2
v 5 3 -2
v 5 4 2
v 5 4 -2
v 5 5 2
v 5 5 -2
v 5 6 2
v 5 6 -2
v 5 7 2
v 5 7 -2
v 5 8 2
v 5 8 -2
v -4 2 3
v -4 3 3
v -4 6 3
v -4 7 3
v 4 2 3
v 4 3 3
v 4 6 3
v 4 7 3
v -5 1 2
v -5 2 2
v -5 3 2
v -5 4 2
v -5 5 2
v -5 6 2
v -5 7 2
v -5 8 2
v -4 2 2
v -4 3 2
v -4 6 2
v -4 7 2
v -2 0 2
v -2 1 2
v -2 4 2
v -2 5 2
v -2 8 2
v -2 10 2
v -1 0 2
v -1 2 2
v -1 3 2
v -1 6 2
v -1 7 2
v -1 10 2
v 1 0 2
v 1 2 2
v 1 3 2
v 1 6 2
v 1 7 2
v 1 10 2
v 2 0 2
v 2 1 2
v 2 4 2
v 2 5 2
v 2 8 2
v 2 10 2
v 4 2 2
v 4 3 2
v 4 6 2
v 4 7 2
v 5 1 2
v 5 2 2
v 5 3 2
v 5 4 2
v 5 5 2
v 5 6 2
v 5 7 2
v 5 8 2
v -5 1 -2
v -5 2 -2
v -5 3 -2
v -5 4 -2
v -5 5 -2
v -5 6 -2
v -5 7 -2
v -5 8 -2
v -4 2 -2
v -4 3 -2
v -4 6 -2
v -4 7 -2
v -2 0 -2
v -2 1 -2
v -2 4 -2
v -2 5 -2
v -2 8 -2
v -2 10 -2
v -1 0 -2
v -1 2 -2
v -1 3 -2
v -1 6 -2
v -1 7 -2
v -1 10 -2
v 1 0 -2
v 1 2 -2
v 1 3 -2
v 1 6 -2
v 1 7 -2
v 1 10 -2
v 2 0 -2
v 2 1 -2
v 2 4 -2
v 2 5 -2
v 2 8 -2
v 2 10 -2
v 4 2 -2
v 4 3 -2
v 4 6 -2
v 4 7 -2
v 5 1 -2
v 5 2 -2
v 5 3 -2
v 5 4 -2
v 5 5 -2
v 5 6 -2
v 5 7 -2
v 5 8 -2
v -4 2 -3
v -4 3 -3
v -4 6 -3
v -4 7 -3
v 4 2 -3
v 4 3 -3
v 4 6 -3
v 4 7 -3
v -2 0 2
v -1 0 2
v 1 0 2
v 2 0 2
v -1 0 1
v 1 0 1
v -1 0 -1
v 1 0 -1
v -2 0 -2
v -1 0 -2
v 1 0 -2
v 2 0 -2
v -5 1 2
v -2 1 2
v 2 1 2
v 5 1 2
v -5 1 -2
v -2 1 -2
v 2 1 -2
v 5 1 -2
v -4 2 3
v 4 2 3
v -4 2 2
v -1 2 2
v 1 2 2
v 4 2 2
v -4 2 -2
v -1 2 -2
v 1 2 -2
v 4 2 -2
v -4 2 -3
v 4 2 -3
v -5 5 2
v -2 5 2
v 2 5 2
v 5 5 2
v -5 5 -2
v -2 5 -2
v 2 5 -2
v 5 5 -2
v -4 6 3
v 4 6 3
v -4 6 2
v -1 6 2
v 1 6 2
v 4 6 2
v -4 6 -2
v -1 6 -2
v 1 6 -2
v 4 6 -2
v -4 6 -3
v 4 6 -3
v -4 3 3
v 4 3 3
v -4 3 2
v -1 3 2
v 1 3 2
v 4 3 2
v -4 3 -2
v -1 3 -2
v 1 3 -2
v 4 3 -2
v -4 3 -3
v 4 3 -3
v -5 4 2
v -2 4 2
v 2 4 2
v 5 4 2
v -5 4 -2
v -2 4 -2
v 2 4 -2
v 5 4 -2
v -4 7 3
v 4 7 3
v -4 7 2
v -1 7 2
v 1 7 2
v 4 7 2
v -4 7 -2
v -1 7 -2
v 1 7 -2
v 4 7 -2
v -4 7 -3
v 4 7 -3
v -5 8 2
v -2 8 2
v 2 8 2
v 5 8 2
v -5 8 -2
v -2 8 -2
v 2 8 -2
v 5 8 -2
v -2 10 2
v -1 10 2
v 1 10 2
v 2 10 2
v -2 10 -2
v -1 10 -2
v 1 10 -2
v 2 10 -2

# faces
f 3/3/1 2/3/1 1/3/1
f 4/3/1 2/3/1 3/3/1
f 5/2/1 4/2/1 3/2/1
f 6/2/1 4/2/1 5/2/1
f 7/3/1 6/3/1 5/3/1
f 8/3/1 6/3/1 7/3/1
f 11/3/1 10/3/1 9/3/1
f 12/3/1 10/3/1 11/3/1
f 13/2/1 12/2/1 11/2/1
f 14/2/1 12/2/1 13/2/1
f 15/3/1 14/3/1 13/3/1
f 16/3/1 14/3/1 15/3/1
f 21/1/1 18/1/1 17/1/1
f 22/1/1 18/1/1 21/1/1
f 23/1/1 20/1/1 19/1/1
f 24/1/1 20/1/1 23/1/1
f 29/1/1 26/1/1 25/1/1
f 30/1/1 26/1/1 29/1/1
f 31/1/1 28/1/1 27/1/1
f 32/1/1 28/1/1 31/1/1
f 35/3/1 34/3/1 33/3/1
f 36/3/1 34/3/1 35/3/1
f 39/3/1 38/3/1 37/3/1
f 40/3/1 38/3/1 39/3/1
f 43/3/1 42/3/1 41/3/1
f 44/3/1 42/3/1 43/3/1
f 45/3/2 46/3/2 47/3/2
f 47/3/2 46/3/2 48/3/2
f 49/3/2 50/3/2 51/3/2
f 51/3/2 50/3/2 52/3/2
f 53/3/2 54/3/2 55/3/2
f 55/3/2 54/3/2 56/3/2
f 57/1/2 58/1/2 61/1/2
f 61/1/2 58/1/2 62/1/2
f 59/1/2 60/1/2 63/1/2
f 63/1/2 60/1/2 64/1/2
f 65/1/2 66/1/2 69/1/2
f 69/1/2 66/1/2 70/1/2
f 67/1/2 68/1/2 71/1/2
f 71/1/2 68/1/2 72/1/2
f 73/3/2 74/3/2 75/3/2
f 75/3/2 74/3/2 76/3/2
f 75/2/2 76/2/2 77/2/2
f 77/2/2 76/2/2 78/2/2
f 77/3/2 78/3/2 79/3/2
f 79/3/2 78/3/2 80/3/2
f 81/3/2 82/3/2 83/3/2
f 83/3/2 82/3/2 84/3/2
f 83/2/2 84/2/2 85/2/2
f 85/2/2 84/2/2 86/2/2
f 85/3/2 86/3/2 87/3/2
f 87/3/2 86/3/2 88/3/2
f 93/1/3 90/1/3 89/1/3
f 94/1/3 90/1/3 93/1/3
f 95/1/3 92/1/3 91/1/3
f 96/1/3 92/1/3 95/1/3
f 105/3/3 98/3/3 97/3/3
f 105/2/3 99/2/3 98/2/3
f 106/3/3 100/3/3 99/3/3
f 106/2/3 99/2/3 105/2/3
f 107/2/3 103/2/3 102/2/3
f 107/3/3 102/3/3 101/3/3
f 108/3/3 104/3/3 103/3/3
f 108/2/3 103/2/3 107/2/3
f 110/3/3 105/3/3 97/3/3
f 111/3/3 100/3/3 106/3/3
f 112/3/3 107/3/3 101/3/3
f 113/3/3 104/3/3 108/3/3
f 115/3/3 110/3/3 109/3/3
f 116/3/3 105/3/3 110/3/3
f 116/3/3 110/3/3 115/3/3
f 117/3/3 111/3/3 106/3/3
f 117/3/3 112/3/3 111/3/3
f 118/3/3 107/3/3 112/3/3
f 118/3/3 112/3/3 117/3/3
f 119/3/3 114/3/3 113/3/3
f 119/3/3 113/3/3 108/3/3
f 120/3/3 114/3/3 119/3/3
f 121/2/3 116/2/3 115/2/3
f 122/2/3 116/2/3 121/2/3
f 123/2/3 118/2/3 117/2/3
f 124/2/3 118/2/3 123/2/3
f 125/2/3 120/2/3 119/2/3
f 126/2/3 120/2/3 125/2/3
f 127/3/3 122/3/3 121/3/3
f 128/3/3 122/3/3 127/3/3
f 129/3/3 124/3/3 123/3/3
f 130/3/3 124/3/3 129/3/3
f 131/3/3 126/3/3 125/3/3
f 132/3/3 126/3/3 131/3/3
f 133/3/3 122/3/3 128/3/3
f 134/3/3 129/3/3 123/3/3
f 135/3/3 124/3/3 130/3/3
f 136/3/3 131/3/3 125/3/3
f 137/3/3 133/3/3 128/3/3
f 138/2/3 134/2/3 133/2/3
f 138/3/3 133/3/3 137/3/3
f 139/3/3 129/3/3 134/3/3
f 139/2/3 134/2/3 138/2/3
f 140/3/3 129/3/3 139/3/3
f 141/3/3 135/3/3 130/3/3
f 142/2/3 136/2/3 135/2/3
f 142/3/3 135/3/3 141/3/3
f 143/3/3 131/3/3 136/3/3
f 143/2/3 136/2/3 142/2/3
f 144/3/3 131/3/3 143/3/3
f 145/3/4 146/3/4 153/3/4
f 146/2/4 147/2/4 153/2/4
f 147/3/4 148/3/4 154/3/4
f 153/2/4 147/2/4 154/2/4
f 150/2/4 151/2/4 155/2/4
f 149/3/4 150/3/4 155/3/4
f 151/3/4 152/3/4 156/3/4
f 155/2/4 151/2/4 156/2/4
f 145/3/4 153/3/4 158/3/4
f 154/3/4 148/3/4 159/3/4
f 149/3/4 155/3/4 160/3/4
f 156/3/4 152/3/4 161/3/4
f 157/3/4 158/3/4 163/3/4
f 158/3/4 153/3/4 164/3/4
f 163/3/4 158/3/4 164/3/4
f 154/3/4 159/3/4 165/3/4
f 159/3/4 160/3/4 165/3/4
f 160/3/4 155/3/4 166/3/4
f 165/3/4 160/3/4 166/3/4
f 161/3/4 162/3/4 167/3/4
f 156/3/4 161/3/4 167/3/4
f 167/3/4 162/3/4 168/3/4
f 163/2/4 164/2/4 169/2/4
f 169/2/4 164/2/4 170/2/4
f 165/2/4 166/2/4 171/2/4
f 171/2/4 166/2/4 172/2/4
f 167/2/4 168/2/4 173/2/4
f 173/2/4 168/2/4 174/2/4
f 169/3/4 170/3/4 175/3/4
f 175/3/4 170/3/4 176/3/4
f 171/3/4 172/3/4 177/3/4
f 177/3/4 172/3/4 178/3/4
f 173/3/4 174/3/4 179/3/4
f 179/3/4 174/3/4 180/3/4
f 176/3/4 170/3/4 181/3/4
f 171/3/4 177/3/4 182/3/4
f 178/3/4 172/3/4 183/3/4
f 173/3/4 179/3/4 184/3/4
f 176/3/4 181/3/4 185/3/4
f 181/2/4 182/2/4 186/2/4
f 185/3/4 181/3/4 186/3/4
f 182/3/4 177/3/4 187/3/4
f 186/2/4 182/2/4 187/2/4
f 187/3/4 177/3/4 188/3/4
f 178/3/4 183/3/4 189/3/4
f 183/2/4 184/2/4 190/2/4
f 189/3/4 183/3/4 190/3/4
f 184/3/4 179/3/4 191/3/4
f 190/2/4 184/2/4 191/2/4
f 191/3/4 179/3/4 192/3/4
f 193/1/4 194/1/4 197/1/4
f 197/1/4 194/1/4 198/1/4
f 195/1/4 196/1/4 199/1/4
f 199/1/4 196/1/4 200/1/4
f 205/3/5 202/3/5 201/3/5
f 205/2/5 203/2/5 202/2/5
f 206/3/5 204/3/5 203/3/5
f 206/2/5 203/2/5 205/2/5
f 207/3/5 205/3/5 201/3/5
f 207/3/5 206/3/5 205/3/5
f 208/3/5 204/3/5 206/3/5
f 208/3/5 206/3/5 207/3/5
f 209/3/5 207/3/5 201/3/5
f 210/2/5 208/2/5 207/2/5
f 210/3/5 207/3/5 209/3/5
f 211/3/5 204/3/5 208/3/5
f 211/2/5 208/2/5 210/2/5
f 212/3/5 204/3/5 211/3/5
f 217/3/5 214/3/5 213/3/5
f 218/3/5 214/3/5 217/3/5
f 219/3/5 216/3/5 215/3/5
f 220/3/5 216/3/5 219/3/5
f 223/1/5 222/1/5 221/1/5
f 224/1/5 222/1/5 223/1/5
f 225/1/5 222/1/5 224/1/5
f 226/1/5 222/1/5 225/1/5
f 231/1/5 228/1/5 227/1/5
f 231/1/5 230/1/5 229/1/5
f 231/1/5 229/1/5 228/1/5
f 232/1/5 230/1/5 231/1/5
f 237/3/5 234/3/5 233/3/5
f 238/3/5 234/3/5 237/3/5
f 239/3/5 236/3/5 235/3/5
f 240/3/5 236/3/5 239/3/5
f 243/1/5 242/1/5 241/1/5
f 244/1/5 242/1/5 243/1/5
f 245/1/5 242/1/5 244/1/5
f 246/1/5 242/1/5 245/1/5
f 251/1/5 248/1/5 247/1/5
f 251/1/5 250/1/5 249/1/5
f 251/1/5 249/1/5 248/1/5
f 252/1/5 250/1/5 251/1/5
f 253/1/6 254/1/6 255/1/6
f 255/1/6 254/1/6 256/1/6
f 256/1/6 254/1/6 257/1/6
f 257/1/6 254/1/6 258/1/6
f 259/1/6 260/1/6 263/1/6
f 261/1/6 262/1/6 263/1/6
f 260/1/6 261/1/6 263/1/6
f 263/1/6 262/1/6 264/1/6
f 265/3/6 266/3/6 269/3/6
f 269/3/6 266/3/6 270/3/6
f 267/3/6 268/3/6 271/3/6
f 271/3/6 268/3/6 272/3/6
f 273/1/6 274/1/6 275/1/6
f 275/1/6 274/1/6 276/1/6
f 276/1/6 274/1/6 277/1/6
f 277/1/6 274/1/6 278/1/6
f 279/1/6 280/1/6 283/1/6
f 281/1/6 282/1/6 283/1/6
f 280/1/6 281/1/6 283/1/6
f 283/1/6 282/1/6 284/1/6
f 285/3/6 286/3/6 289/3/6
f 289/3/6 286/3/6 290/3/6
f 287/3/6 288/3/6 291/3/6
f 291/3/6 288/3/6 292/3/6
f 293/3/6 294/3/6 297/3/6
f 294/2/6 295/2/6 298/2/6
f 297/3/6 294/3/6 298/3/6
f 295/3/6 296/3/6 299/3/6
f 298/2/6 295/2/6 299/2/6
f 299/3/6 296/3/6 300/3/6
