# MagicaVoxel @ Ephtracy

# material
mtllib Turret.mtl
usemtl palette

# normals
vn -1 0 0
vn 1 0 0
vn 0 0 1
vn 0 0 -1
vn 0 -1 0
vn 0 1 0

# texcoords
vt 0.548828 0.5
vt 0.822266 0.5
vt 0.826172 0.5

# verts
v -4 2 3
v -4 2 -3
v -4 6 3
v -4 6 -3
v -3 1 3
v -3 1 -3
v -3 2 3
v -3 2 -3
v -3 6 3
v -3 6 -3
v -3 7 3
v -3 7 -3
v -2 0 2
v -2 0 -2
v -2 1 2
v -2 1 -2
v -2 7 2
v -2 7 -2
v -2 9 2
v -2 9 1
v -2 9 -1
v -2 9 -2
v -2 10 1
v -2 10 -1
v -1 9 2
v -1 9 1
v -1 9 -1
v -1 9 -2
v -1 10 2
v -1 10 1
v -1 10 -1
v -1 10 -2
v 1 9 2
v 1 9 1
v 1 9 -1
v 1 9 -2
v 1 10 2
v 1 10 1
v 1 10 -1
v 1 10 -2
v 2 0 2
v 2 0 -2
v 2 1 2
v 2 1 -2
v 2 7 2
v 2 7 -2
v 2 9 2
v 2 9 1
v 2 9 -1
v 2 9 -2
v 2 10 1
v 2 10 -1
v 3 1 3
v 3 1 -3
v 3 2 3
v 3 2 -3
v 3 6 3
v 3 6 -3
v 3 7 3
v 3 7 -3
v 4 2 3
v 4 2 -3
v 4 6 3
v 4 6 -3
v -4 2 3
v -4 6 3
v -3 1 3
v -3 2 3
v -3 3 3
v -3 5 3
v -3 6 3
v -3 7 3
v -2 2 3
v -2 3 3
v -2 5 3
v -2 6 3
v 2 2 3
v 2 3 3
v 2 5 3
v 2 6 3
v 3 1 3
v 3 2 3
v 3 3 3
v 3 5 3
v 3 6 3
v 3 7 3
v 4 2 3
v 4 6 3
v -2 0 2
v -2 1 2
v -2 7 2
v -2 9 2
v -1 9 2
v -1 10 2
v 1 9 2
v 1 10 2
v 2 0 2
v 2 1 2
v 2 7 2
v 2 9 2
v -2 9 1
v -2 10 1
v -1 9 1
v -1 10 1
v 1 9 1
v 1 10 1
v 2 9 1
v 2 10 1
v -2 9 -1
v -2 10 -1
v -1 9 -1
v -1 10 -1
v 1 9 -1
v 1 10 -1
v 2 9 -1
v 2 10 -1
v -2 0 -2
v -2 1 -2
v -2 7 -2
v -2 9 -2
v -1 9 -2
v -1 10 -2
v 1 9 -2
v 1 10 -2
v 2 0 -2
v 2 1 -2
v 2 7 -2
v 2 9 -2
v -4 2 -3
v -4 6 -3
v -3 1 -3
v -3 2 -3
v -3 3 -3
v -3 5 -3
v -3 6 -3
v -3 7 -3
v -2 2 -3
v -2 3 -3
v -2 5 -3
v -2 6 -3
v 2 2 -3
v 2 3 -3
v 2 5 -3
v 2 6 -3
v 3 1 -3
v 3 2 -3
v 3 3 -3
v 3 5 -3
v 3 6 -3
v 3 7 -3
v 4 2 -3
v 4 6 -3
v -2 0 2
v 2 0 2
v -2 0 -2
v 2 0 -2
v -3 1 3
v 3 1 3
v -2 1 2
v 2 1 2
v -2 1 -2
v 2 1 -2
v -3 1 -3
v 3 1 -3
v -4 2 3
v -3 2 3
v 3 2 3
v 4 2 3
v -4 2 -3
v -3 2 -3
v 3 2 -3
v 4 2 -3
v -4 6 3
v -3 6 3
v 3 6 3
v 4 6 3
v -4 6 -3
v -3 6 -3
v 3 6 -3
v 4 6 -3
v -3 7 3
v 3 7 3
v -2 7 2
v 2 7 2
v -2 7 -2
v 2 7 -2
v -3 7 -3
v 3 7 -3
v -2 9 2
v -1 9 2
v 1 9 2
v 2 9 2
v -2 9 1
v -1 9 1
v 1 9 1
v 2 9 1
v -2 9 -1
v -1 9 -1
v 1 9 -1
v 2 9 -1
v -2 9 -2
v -1 9 -2
v 1 9 -2
v 2 9 -2
v -1 10 2
v 1 10 2
v -2 10 1
v -1 10 1
v 1 10 1
v 2 10 1
v -2 10 -1
v -1 10 -1
v 1 10 -1
v 2 10 -1
v -1 10 -2
v 1 10 -2

# faces
f 3/3/1 2/3/1 1/3/1
f 4/3/1 2/3/1 3/3/1
f 7/3/1 6/3/1 5/3/1
f 8/3/1 6/3/1 7/3/1
f 11/3/1 10/3/1 9/3/1
f 12/3/1 10/3/1 11/3/1
f 15/1/1 14/1/1 13/1/1
f 16/1/1 14/1/1 15/1/1
f 19/1/1 18/1/1 17/1/1
f 20/1/1 18/1/1 19/1/1
f 21/1/1 18/1/1 20/1/1
f 22/1/1 18/1/1 21/1/1
f 23/1/1 21/1/1 20/1/1
f 24/1/1 21/1/1 23/1/1
f 29/1/1 26/1/1 25/1/1
f 30/1/1 26/1/1 29/1/1
f 31/1/1 28/1/1 27/1/1
f 32/1/1 28/1/1 31/1/1
f 33/1/2 34/1/2 37/1/2
f 37/1/2 34/1/2 38/1/2
f 35/1/2 36/1/2 39/1/2
f 39/1/2 36/1/2 40/1/2
f 41/1/2 42/1/2 43/1/2
f 43/1/2 42/1/2 44/1/2
f 45/1/2 46/1/2 47/1/2
f 47/1/2 46/1/2 48/1/2
f 48/1/2 46/1/2 49/1/2
f 49/1/2 46/1/2 50/1/2
f 48/1/2 49/1/2 51/1/2
f 51/1/2 49/1/2 52/1/2
f 53/3/2 54/3/2 55/3/2
f 55/3/2 54/3/2 56/3/2
f 57/3/2 58/3/2 59/3/2
f 59/3/2 58/3/2 60/3/2
f 61/3/2 62/3/2 63/3/2
f 63/3/2 62/3/2 64/3/2
f 68/3/3 66/3/3 65/3/3
f 69/3/3 66/3/3 68/3/3
f 70/3/3 66/3/3 69/3/3
f 71/3/3 66/3/3 70/3/3
f 73/3/3 68/3/3 67/3/3
f 73/3/3 69/3/3 68/3/3
f 74/2/3 70/2/3 69/2/3
f 74/3/3 69/3/3 73/3/3
f 75/3/3 72/3/3 71/3/3
f 75/2/3 70/2/3 74/2/3
f 75/3/3 71/3/3 70/3/3
f 76/3/3 72/3/3 75/3/3
f 77/2/3 74/2/3 73/2/3
f 77/3/3 73/3/3 67/3/3
f 77/2/3 76/2/3 75/2/3
f 77/2/3 75/2/3 74/2/3
f 78/2/3 76/2/3 77/2/3
f 79/2/3 76/2/3 78/2/3
f 80/3/3 72/3/3 76/3/3
f 80/2/3 76/2/3 79/2/3
f 81/3/3 77/3/3 67/3/3
f 81/3/3 78/3/3 77/3/3
f 82/3/3 78/3/3 81/3/3
f 83/2/3 79/2/3 78/2/3
f 83/3/3 78/3/3 82/3/3
f 84/3/3 80/3/3 79/3/3
f 84/2/3 79/2/3 83/2/3
f 85/3/3 72/3/3 80/3/3
f 85/3/3 80/3/3 84/3/3
f 86/3/3 72/3/3 85/3/3
f 87/3/3 84/3/3 83/3/3
f 87/3/3 85/3/3 84/3/3
f 87/3/3 83/3/3 82/3/3
f 88/3/3 85/3/3 87/3/3
f 93/1/3 92/1/3 91/1/3
f 95/1/3 93/1/3 91/1/3
f 95/1/3 94/1/3 93/1/3
f 96/1/3 94/1/3 95/1/3
f 97/1/3 90/1/3 89/1/3
f 98/1/3 90/1/3 97/1/3
f 99/1/3 95/1/3 91/1/3
f 100/1/3 95/1/3 99/1/3
f 103/1/3 102/1/3 101/1/3
f 104/1/3 102/1/3 103/1/3
f 107/1/3 106/1/3 105/1/3
f 108/1/3 106/1/3 107/1/3
f 109/1/4 110/1/4 111/1/4
f 111/1/4 110/1/4 112/1/4
f 113/1/4 114/1/4 115/1/4
f 115/1/4 114/1/4 116/1/4
f 119/1/4 120/1/4 121/1/4
f 119/1/4 121/1/4 123/1/4
f 121/1/4 122/1/4 123/1/4
f 123/1/4 122/1/4 124/1/4
f 117/1/4 118/1/4 125/1/4
f 125/1/4 118/1/4 126/1/4
f 119/1/4 123/1/4 127/1/4
f 127/1/4 123/1/4 128/1/4
f 129/3/4 130/3/4 132/3/4
f 132/3/4 130/3/4 133/3/4
f 133/3/4 130/3/4 134/3/4
f 134/3/4 130/3/4 135/3/4
f 131/3/4 132/3/4 137/3/4
f 132/3/4 133/3/4 137/3/4
f 133/2/4 134/2/4 138/2/4
f 137/3/4 133/3/4 138/3/4
f 135/3/4 136/3/4 139/3/4
f 138/2/4 134/2/4 139/2/4
f 134/3/4 135/3/4 139/3/4
f 139/3/4 136/3/4 140/3/4
f 137/2/4 138/2/4 141/2/4
f 131/3/4 137/3/4 141/3/4
f 139/2/4 140/2/4 141/2/4
f 138/2/4 139/2/4 141/2/4
f 141/2/4 140/2/4 142/2/4
f 142/2/4 140/2/4 143/2/4
f 140/3/4 136/3/4 144/3/4
f 143/2/4 140/2/4 144/2/4
f 131/3/4 141/3/4 145/3/4
f 141/3/4 142/3/4 145/3/4
f 145/3/4 142/3/4 146/3/4
f 142/2/4 143/2/4 147/2/4
f 146/3/4 142/3/4 147/3/4
f 143/3/4 144/3/4 148/3/4
f 147/2/4 143/2/4 148/2/4
f 144/3/4 136/3/4 149/3/4
f 148/3/4 144/3/4 149/3/4
f 149/3/4 136/3/4 150/3/4
f 147/3/4 148/3/4 151/3/4
f 148/3/4 149/3/4 151/3/4
f 146/3/4 147/3/4 151/3/4
f 151/3/4 149/3/4 152/3/4
f 155/1/5 154/1/5 153/1/5
f 156/1/5 154/1/5 155/1/5
f 159/3/5 158/3/5 157/3/5
f 160/3/5 158/3/5 159/3/5
f 161/3/5 159/3/5 157/3/5
f 162/3/5 158/3/5 160/3/5
f 163/3/5 161/3/5 157/3/5
f 163/3/5 162/3/5 161/3/5
f 164/3/5 158/3/5 162/3/5
f 164/3/5 162/3/5 163/3/5
f 169/3/5 166/3/5 165/3/5
f 170/3/5 166/3/5 169/3/5
f 171/3/5 168/3/5 167/3/5
f 172/3/5 168/3/5 171/3/5
f 173/3/6 174/3/6 177/3/6
f 177/3/6 174/3/6 178/3/6
f 175/3/6 176/3/6 179/3/6
f 179/3/6 176/3/6 180/3/6
f 181/3/6 182/3/6 183/3/6
f 183/3/6 182/3/6 184/3/6
f 181/3/6 183/3/6 185/3/6
f 184/3/6 182/3/6 186/3/6
f 181/3/6 185/3/6 187/3/6
f 185/3/6 186/3/6 187/3/6
f 186/3/6 182/3/6 188/3/6
f 187/3/6 186/3/6 188/3/6
f 189/1/6 190/1/6 193/1/6
f 193/1/6 190/1/6 194/1/6
f 191/1/6 192/1/6 195/1/6
f 195/1/6 192/1/6 196/1/6
f 197/1/6 198/1/6 201/1/6
f 201/1/6 198/1/6 202/1/6
f 199/1/6 200/1/6 203/1/6
f 203/1/6 200/1/6 204/1/6
f 205/1/6 206/1/6 208/1/6
f 208/1/6 206/1/6 209/1/6
f 207/1/6 208/1/6 211/1/6
f 209/1/6 210/1/6 211/1/6
f 208/1/6 209/1/6 211/1/6
f 211/1/6 210/1/6 212/1/6
f 212/1/6 210/1/6 213/1/6
f 213/1/6 210/1/6 214/1/6
f 212/1/6 213/1/6 215/1/6
f 215/1/6 213/1/6 216/1/6
