# MagicaVoxel @ Ephtracy

# material
mtllib Gun.mtl
usemtl palette

# normals
vn -1 0 0
vn 1 0 0
vn 0 0 1
vn 0 0 -1
vn 0 -1 0
vn 0 1 0

# texcoords
vt 0.447266 0.5
vt 0.455078 0.5

# verts
v -0.5 0 2
v -0.5 0 -6
v -0.5 1 6
v -0.5 1 2
v -0.5 2 6
v -0.5 2 2
v -0.5 2 -6
v 0.5 0 2
v 0.5 0 -6
v 0.5 1 6
v 0.5 1 2
v 0.5 2 6
v 0.5 2 2
v 0.5 2 -6
v -0.5 1 6
v -0.5 2 6
v 0.5 1 6
v 0.5 2 6
v -0.5 0 2
v -0.5 1 2
v 0.5 0 2
v 0.5 1 2
v -0.5 0 -6
v -0.5 2 -6
v 0.5 0 -6
v 0.5 2 -6
v -0.5 0 2
v 0.5 0 2
v -0.5 0 -6
v 0.5 0 -6
v -0.5 1 6
v 0.5 1 6
v -0.5 1 2
v 0.5 1 2
v -0.5 2 6
v 0.5 2 6
v -0.5 2 2
v 0.5 2 2
v -0.5 2 -6
v 0.5 2 -6

# faces
f 4/1/1 2/1/1 1/1/1
f 5/2/1 4/2/1 3/2/1
f 6/1/1 2/1/1 4/1/1
f 6/2/1 4/2/1 5/2/1
f 7/1/1 2/1/1 6/1/1
f 8/1/2 9/1/2 11/1/2
f 10/2/2 11/2/2 12/2/2
f 11/1/2 9/1/2 13/1/2
f 12/2/2 11/2/2 13/2/2
f 13/1/2 9/1/2 14/1/2
f 17/2/3 16/2/3 15/2/3
f 18/2/3 16/2/3 17/2/3
f 21/1/3 20/1/3 19/1/3
f 22/1/3 20/1/3 21/1/3
f 23/1/4 24/1/4 25/1/4
f 25/1/4 24/1/4 26/1/4
f 29/1/5 28/1/5 27/1/5
f 30/1/5 28/1/5 29/1/5
f 33/2/5 32/2/5 31/2/5
f 34/2/5 32/2/5 33/2/5
f 35/2/6 36/2/6 37/2/6
f 37/2/6 36/2/6 38/2/6
f 37/1/6 38/1/6 39/1/6
f 39/1/6 38/1/6 40/1/6
