# MagicaVoxel @ Ephtracy

# material
mtllib Turret.mtl
usemtl palette

# normals
vn -1 0 0
vn 1 0 0
vn 0 0 1
vn 0 0 -1
vn 0 -1 0
vn 0 1 0

# texcoords
vt 0.548828 0.5
vt 0.822266 0.5
vt 0.826172 0.5

# verts
v -3 0 2
v -3 0 -2
v -3 1 2
v -3 1 -2
v -3 2 2
v -3 2 -2
v -3 3 2
v -3 3 -2
v -3 4 2
v -3 4 -2
v -3 5 2
v -3 5 -2
v -3 6 2
v -3 6 -2
v -3 7 2
v -3 7 -2
v -3 8 2
v -3 8 -2
v -3 9 2
v -3 9 -2
v -3 10 2
v -3 10 -2
v -3 11 2
v -3 11 -2
v -1 3 1
v -1 3 -1
v -1 4 1
v -1 4 -1
v -1 7 1
v -1 7 -1
v -1 8 1
v -1 8 -1
v 1 3 1
v 1 3 -1
v 1 4 1
v 1 4 -1
v 1 7 1
v 1 7 -1
v 1 8 1
v 1 8 -1
v 3 0 2
v 3 0 -2
v 3 1 2
v 3 1 -2
v 3 2 2
v 3 2 -2
v 3 3 2
v 3 3 -2
v 3 4 2
v 3 4 -2
v 3 5 2
v 3 5 -2
v 3 6 2
v 3 6 -2
v 3 7 2
v 3 7 -2
v 3 8 2
v 3 8 -2
v 3 9 2
v 3 9 -2
v 3 10 2
v 3 10 -2
v 3 11 2
v 3 11 -2
v -3 0 2
v -3 1 2
v -3 2 2
v -3 3 2
v -3 4 2
v -3 5 2
v -3 6 2
v -3 7 2
v -3 8 2
v -3 9 2
v -3 10 2
v -3 11 2
v 3 0 2
v 3 1 2
v 3 2 2
v 3 3 2
v 3 4 2
v 3 5 2
v 3 6 2
v 3 7 2
v 3 8 2
v 3 9 2
v 3 10 2
v 3 11 2
v -1 3 1
v -1 4 1
v -1 7 1
v -1 8 1
v 1 3 1
v 1 4 1
v 1 7 1
v 1 8 1
v -1 3 -1
v -1 4 -1
v -1 7 -1
v -1 8 -1
v 1 3 -1
v 1 4 -1
v 1 7 -1
v 1 8 -1
v -3 0 -2
v -3 1 -2
v -3 2 -2
v -3 3 -2
v -3 4 -2
v -3 5 -2
v -3 6 -2
v -3 7 -2
v -3 8 -2
v -3 9 -2
v -3 10 -2
v -3 11 -2
v 3 0 -2
v 3 1 -2
v 3 2 -2
v 3 3 -2
v 3 4 -2
v 3 5 -2
v 3 6 -2
v 3 7 -2
v 3 8 -2
v 3 9 -2
v 3 10 -2
v 3 11 -2
v -3 0 2
v 3 0 2
v -3 0 -2
v 3 0 -2
v -3 4 2
v 3 4 2
v -1 4 1
v 1 4 1
v -1 4 -1
v 1 4 -1
v -3 4 -2
v 3 4 -2
v -3 8 2
v 3 8 2
v -1 8 1
v 1 8 1
v -1 8 -1
v 1 8 -1
v -3 8 -2
v 3 8 -2
v -3 3 2
v 3 3 2
v -1 3 1
v 1 3 1
v -1 3 -1
v 1 3 -1
v -3 3 -2
v 3 3 -2
v -3 7 2
v 3 7 2
v -1 7 1
v 1 7 1
v -1 7 -1
v 1 7 -1
v -3 7 -2
v 3 7 -2
v -3 11 2
v 3 11 2
v -3 11 -2
v 3 11 -2

# faces
f 3/3/1 2/3/1 1/3/1
f 4/3/1 2/3/1 3/3/1
f 5/2/1 4/2/1 3/2/1
f 6/2/1 4/2/1 5/2/1
f 7/3/1 6/3/1 5/3/1
f 8/3/1 6/3/1 7/3/1
f 11/3/1 10/3/1 9/3/1
f 12/3/1 10/3/1 11/3/1
f 13/2/1 12/2/1 11/2/1
f 14/2/1 12/2/1 13/2/1
f 15/3/1 14/3/1 13/3/1
f 16/3/1 14/3/1 15/3/1
f 19/3/1 18/3/1 17/3/1
f 20/3/1 18/3/1 19/3/1
f 21/2/1 20/2/1 19/2/1
f 22/2/1 20/2/1 21/2/1
f 23/3/1 22/3/1 21/3/1
f 24/3/1 22/3/1 23/3/1
f 27/1/1 26/1/1 25/1/1
f 28/1/1 26/1/1 27/1/1
f 31/1/1 30/1/1 29/1/1
f 32/1/1 30/1/1 31/1/1
f 33/1/2 34/1/2 35/1/2
f 35/1/2 34/1/2 36/1/2
f 37/1/2 38/1/2 39/1/2
f 39/1/2 38/1/2 40/1/2
f 41/3/2 42/3/2 43/3/2
f 43/3/2 42/3/2 44/3/2
f 43/2/2 44/2/2 45/2/2
f 45/2/2 44/2/2 46/2/2
f 45/3/2 46/3/2 47/3/2
f 47/3/2 46/3/2 48/3/2
f 49/3/2 50/3/2 51/3/2
f 51/3/2 50/3/2 52/3/2
f 51/2/2 52/2/2 53/2/2
f 53/2/2 52/2/2 54/2/2
f 53/3/2 54/3/2 55/3/2
f 55/3/2 54/3/2 56/3/2
f 57/3/2 58/3/2 59/3/2
f 59/3/2 58/3/2 60/3/2
f 59/2/2 60/2/2 61/2/2
f 61/2/2 60/2/2 62/2/2
f 61/3/2 62/3/2 63/3/2
f 63/3/2 62/3/2 64/3/2
f 77/3/3 66/3/3 65/3/3
f 78/2/3 67/2/3 66/2/3
f 78/3/3 66/3/3 77/3/3
f 79/3/3 68/3/3 67/3/3
f 79/2/3 67/2/3 78/2/3
f 80/3/3 68/3/3 79/3/3
f 81/3/3 70/3/3 69/3/3
f 82/2/3 71/2/3 70/2/3
f 82/3/3 70/3/3 81/3/3
f 83/3/3 72/3/3 71/3/3
f 83/2/3 71/2/3 82/2/3
f 84/3/3 72/3/3 83/3/3
f 85/3/3 74/3/3 73/3/3
f 86/2/3 75/2/3 74/2/3
f 86/3/3 74/3/3 85/3/3
f 87/3/3 76/3/3 75/3/3
f 87/2/3 75/2/3 86/2/3
f 88/3/3 76/3/3 87/3/3
f 93/1/3 90/1/3 89/1/3
f 94/1/3 90/1/3 93/1/3
f 95/1/3 92/1/3 91/1/3
f 96/1/3 92/1/3 95/1/3
f 97/1/4 98/1/4 101/1/4
f 101/1/4 98/1/4 102/1/4
f 99/1/4 100/1/4 103/1/4
f 103/1/4 100/1/4 104/1/4
f 105/3/4 106/3/4 117/3/4
f 106/2/4 107/2/4 118/2/4
f 117/3/4 106/3/4 118/3/4
f 107/3/4 108/3/4 119/3/4
f 118/2/4 107/2/4 119/2/4
f 119/3/4 108/3/4 120/3/4
f 109/3/4 110/3/4 121/3/4
f 110/2/4 111/2/4 122/2/4
f 121/3/4 110/3/4 122/3/4
f 111/3/4 112/3/4 123/3/4
f 122/2/4 111/2/4 123/2/4
f 123/3/4 112/3/4 124/3/4
f 113/3/4 114/3/4 125/3/4
f 114/2/4 115/2/4 126/2/4
f 125/3/4 114/3/4 126/3/4
f 115/3/4 116/3/4 127/3/4
f 126/2/4 115/2/4 127/2/4
f 127/3/4 116/3/4 128/3/4
f 131/3/5 130/3/5 129/3/5
f 132/3/5 130/3/5 131/3/5
f 135/3/5 134/3/5 133/3/5
f 136/3/5 134/3/5 135/3/5
f 137/3/5 135/3/5 133/3/5
f 138/3/5 134/3/5 136/3/5
f 139/3/5 137/3/5 133/3/5
f 139/3/5 138/3/5 137/3/5
f 140/3/5 134/3/5 138/3/5
f 140/3/5 138/3/5 139/3/5
f 143/3/5 142/3/5 141/3/5
f 144/3/5 142/3/5 143/3/5
f 145/3/5 143/3/5 141/3/5
f 146/3/5 142/3/5 144/3/5
f 147/3/5 145/3/5 141/3/5
f 147/3/5 146/3/5 145/3/5
f 148/3/5 142/3/5 146/3/5
f 148/3/5 146/3/5 147/3/5
f 149/3/6 150/3/6 151/3/6
f 151/3/6 150/3/6 152/3/6
f 149/3/6 151/3/6 153/3/6
f 152/3/6 150/3/6 154/3/6
f 149/3/6 153/3/6 155/3/6
f 153/3/6 154/3/6 155/3/6
f 154/3/6 150/3/6 156/3/6
f 155/3/6 154/3/6 156/3/6
f 157/3/6 158/3/6 159/3/6
f 159/3/6 158/3/6 160/3/6
f 157/3/6 159/3/6 161/3/6
f 160/3/6 158/3/6 162/3/6
f 157/3/6 161/3/6 163/3/6
f 161/3/6 162/3/6 163/3/6
f 162/3/6 158/3/6 164/3/6
f 163/3/6 162/3/6 164/3/6
f 165/3/6 166/3/6 167/3/6
f 167/3/6 166/3/6 168/3/6
