# MagicaVoxel @ Ephtracy

# material
mtllib Turret.mtl
usemtl palette

# normals
vn -1 0 0
vn 1 0 0
vn 0 0 1
vn 0 0 -1
vn 0 -1 0
vn 0 1 0

# texcoords
vt 0.548828 0.5
vt 0.751953 0.5
vt 0.767578 0.5

# verts
v -5 3 2
v -5 3 1
v -5 3 -0
v -5 3 -1
v -5 3 -2
v -5 4 2
v -5 4 1
v -5 4 -0
v -5 4 -1
v -5 4 -2
v -5 5 2
v -5 5 1
v -5 5 -0
v -5 5 -1
v -5 5 -2
v -5 6 2
v -5 6 1
v -5 6 -0
v -5 6 -1
v -5 6 -2
v -5 7 2
v -5 7 1
v -5 7 -0
v -5 7 -1
v -5 7 -2
v -4 1 1
v -4 1 -1
v -4 3 1
v -4 3 -0
v -4 3 -1
v -4 7 1
v -4 7 -0
v -4 7 -1
v -4 9 1
v -4 9 -1
v -1 0 3
v -1 0 -3
v -1 1 1
v -1 1 -1
v -1 2 1
v -1 2 -1
v -1 3 2
v -1 3 1
v -1 3 -0
v -1 3 -1
v -1 3 -2
v -1 4 2
v -1 4 -2
v -1 5 2
v -1 5 -2
v -1 6 2
v -1 6 -2
v -1 7 2
v -1 7 1
v -1 7 -0
v -1 7 -1
v -1 7 -2
v -1 8 1
v -1 8 -1
v -1 9 1
v -1 9 -1
v -1 10 3
v -1 10 -3
v 2 2 1
v 2 2 -1
v 2 3 1
v 2 3 -0
v 2 3 -1
v 2 7 1
v 2 7 -0
v 2 7 -1
v 2 8 1
v 2 8 -1
v -2 2 1
v -2 2 -1
v -2 3 1
v -2 3 -0
v -2 3 -1
v -2 7 1
v -2 7 -0
v -2 7 -1
v -2 8 1
v -2 8 -1
v 1 0 3
v 1 0 -3
v 1 1 1
v 1 1 -1
v 1 2 1
v 1 2 -1
v 1 3 2
v 1 3 1
v 1 3 -0
v 1 3 -1
v 1 3 -2
v 1 4 2
v 1 4 -2
v 1 5 2
v 1 5 -2
v 1 6 2
v 1 6 -2
v 1 7 2
v 1 7 1
v 1 7 -0
v 1 7 -1
v 1 7 -2
v 1 8 1
v 1 8 -1
v 1 9 1
v 1 9 -1
v 1 10 3
v 1 10 -3
v 4 1 1
v 4 1 -1
v 4 3 1
v 4 3 -0
v 4 3 -1
v 4 7 1
v 4 7 -0
v 4 7 -1
v 4 9 1
v 4 9 -1
v 5 3 2
v 5 3 1
v 5 3 -0
v 5 3 -1
v 5 3 -2
v 5 4 2
v 5 4 1
v 5 4 -0
v 5 4 -1
v 5 4 -2
v 5 5 2
v 5 5 1
v 5 5 -0
v 5 5 -1
v 5 5 -2
v 5 6 2
v 5 6 1
v 5 6 -0
v 5 6 -1
v 5 6 -2
v 5 7 2
v 5 7 1
v 5 7 -0
v 5 7 -1
v 5 7 -2
v -1 0 3
v -1 10 3
v 1 0 3
v 1 10 3
v -5 3 2
v -5 4 2
v -5 5 2
v -5 6 2
v -5 7 2
v -4 3 2
v -4 4 2
v -4 5 2
v -4 6 2
v -4 7 2
v -3 3 2
v -3 4 2
v -3 5 2
v -3 6 2
v -3 7 2
v -2 3 2
v -2 4 2
v -2 5 2
v -2 6 2
v -2 7 2
v -1 3 2
v -1 4 2
v -1 5 2
v -1 6 2
v -1 7 2
v 1 3 2
v 1 4 2
v 1 5 2
v 1 6 2
v 1 7 2
v 2 3 2
v 2 4 2
v 2 5 2
v 2 6 2
v 2 7 2
v 3 3 2
v 3 4 2
v 3 5 2
v 3 6 2
v 3 7 2
v 4 3 2
v 4 4 2
v 4 5 2
v 4 6 2
v 4 7 2
v 5 3 2
v 5 4 2
v 5 5 2
v 5 6 2
v 5 7 2
v -4 1 1
v -4 3 1
v -4 7 1
v -4 9 1
v -3 3 1
v -3 7 1
v -2 2 1
v -2 3 1
v -2 7 1
v -2 8 1
v -1 1 1
v -1 2 1
v -1 8 1
v -1 9 1
v 1 1 1
v 1 2 1
v 1 8 1
v 1 9 1
v 2 2 1
v 2 3 1
v 2 7 1
v 2 8 1
v 3 3 1
v 3 7 1
v 4 1 1
v 4 3 1
v 4 7 1
v 4 9 1
v -4 1 -1
v -4 3 -1
v -4 7 -1
v -4 9 -1
v -3 3 -1
v -3 7 -1
v -2 2 -1
v -2 3 -1
v -2 7 -1
v -2 8 -1
v -1 1 -1
v -1 2 -1
v -1 8 -1
v -1 9 -1
v 1 1 -1
v 1 2 -1
v 1 8 -1
v 1 9 -1
v 2 2 -1
v 2 3 -1
v 2 7 -1
v 2 8 -1
v 3 3 -1
v 3 7 -1
v 4 1 -1
v 4 3 -1
v 4 7 -1
v 4 9 -1
v -5 3 -2
v -5 4 -2
v -5 5 -2
v -5 6 -2
v -5 7 -2
v -4 3 -2
v -4 4 -2
v -4 5 -2
v -4 6 -2
v -4 7 -2
v -3 3 -2
v -3 4 -2
v -3 5 -2
v -3 6 -2
v -3 7 -2
v -2 3 -2
v -2 4 -2
v -2 5 -2
v -2 6 -2
v -2 7 -2
v -1 3 -2
v -1 4 -2
v -1 5 -2
v -1 6 -2
v -1 7 -2
v 1 3 -2
v 1 4 -2
v 1 5 -2
v 1 6 -2
v 1 7 -2
v 2 3 -2
v 2 4 -2
v 2 5 -2
v 2 6 -2
v 2 7 -2
v 3 3 -2
v 3 4 -2
v 3 5 -2
v 3 6 -2
v 3 7 -2
v 4 3 -2
v 4 4 -2
v 4 5 -2
v 4 6 -2
v 4 7 -2
v 5 3 -2
v 5 4 -2
v 5 5 -2
v 5 6 -2
v 5 7 -2
v -1 0 -3
v -1 10 -3
v 1 0 -3
v 1 10 -3
v -1 0 3
v 1 0 3
v -1 0 -3
v 1 0 -3
v -4 1 1
v -1 1 1
v 1 1 1
v 4 1 1
v -4 1 -1
v -1 1 -1
v 1 1 -1
v 4 1 -1
v -5 3 2
v -4 3 2
v -3 3 2
v -2 3 2
v -1 3 2
v 1 3 2
v 2 3 2
v 3 3 2
v 4 3 2
v 5 3 2
v -5 3 1
v -4 3 1
v -3 3 1
v -2 3 1
v -1 3 1
v 1 3 1
v 2 3 1
v 3 3 1
v 4 3 1
v 5 3 1
v -5 3 -0
v -4 3 -0
v -2 3 -0
v -1 3 -0
v 1 3 -0
v 2 3 -0
v 4 3 -0
v 5 3 -0
v -5 3 -1
v -4 3 -1
v -3 3 -1
v -2 3 -1
v -1 3 -1
v 1 3 -1
v 2 3 -1
v 3 3 -1
v 4 3 -1
v 5 3 -1
v -5 3 -2
v -4 3 -2
v -3 3 -2
v -2 3 -2
v -1 3 -2
v 1 3 -2
v 2 3 -2
v 3 3 -2
v 4 3 -2
v 5 3 -2
v -2 8 1
v -1 8 1
v 1 8 1
v 2 8 1
v -2 8 -1
v -1 8 -1
v 1 8 -1
v 2 8 -1
v -2 2 1
v -1 2 1
v 1 2 1
v 2 2 1
v -2 2 -1
v -1 2 -1
v 1 2 -1
v 2 2 -1
v -5 7 2
v -4 7 2
v -3 7 2
v -2 7 2
v -1 7 2
v 1 7 2
v 2 7 2
v 3 7 2
v 4 7 2
v 5 7 2
v -5 7 1
v -4 7 1
v -3 7 1
v -2 7 1
v -1 7 1
v 1 7 1
v 2 7 1
v 3 7 1
v 4 7 1
v 5 7 1
v -5 7 -0
v -4 7 -0
v -2 7 -0
v -1 7 -0
v 1 7 -0
v 2 7 -0
v 4 7 -0
v 5 7 -0
v -5 7 -1
v -4 7 -1
v -3 7 -1
v -2 7 -1
v -1 7 -1
v 1 7 -1
v 2 7 -1
v 3 7 -1
v 4 7 -1
v 5 7 -1
v -5 7 -2
v -4 7 -2
v -3 7 -2
v -2 7 -2
v -1 7 -2
v 1 7 -2
v 2 7 -2
v 3 7 -2
v 4 7 -2
v 5 7 -2
v -4 9 1
v -1 9 1
v 1 9 1
v 4 9 1
v -4 9 -1
v -1 9 -1
v 1 9 -1
v 4 9 -1
v -1 10 3
v 1 10 3
v -1 10 -3
v 1 10 -3

# faces
f 6/3/1 2/3/1 1/3/1
f 7/2/1 3/2/1 2/2/1
f 7/3/1 2/3/1 6/3/1
f 8/3/1 4/3/1 3/3/1
f 8/2/1 3/2/1 7/2/1
f 9/2/1 5/2/1 4/2/1
f 9/3/1 4/3/1 8/3/1
f 10/2/1 5/2/1 9/2/1
f 11/2/1 7/2/1 6/2/1
f 12/3/1 8/3/1 7/3/1
f 12/2/1 7/2/1 11/2/1
f 13/2/1 9/2/1 8/2/1
f 13/3/1 8/3/1 12/3/1
f 14/3/1 10/3/1 9/3/1
f 14/2/1 9/2/1 13/2/1
f 15/3/1 10/3/1 14/3/1
f 16/3/1 12/3/1 11/3/1
f 17/2/1 13/2/1 12/2/1
f 17/3/1 12/3/1 16/3/1
f 18/3/1 14/3/1 13/3/1
f 18/2/1 13/2/1 17/2/1
f 19/2/1 15/2/1 14/2/1
f 19/3/1 14/3/1 18/3/1
f 20/2/1 15/2/1 19/2/1
f 21/2/1 17/2/1 16/2/1
f 22/3/1 18/3/1 17/3/1
f 22/2/1 17/2/1 21/2/1
f 23/2/1 19/2/1 18/2/1
f 23/3/1 18/3/1 22/3/1
f 24/3/1 20/3/1 19/3/1
f 24/2/1 19/2/1 23/2/1
f 25/3/1 20/3/1 24/3/1
f 28/1/1 27/1/1 26/1/1
f 29/1/1 27/1/1 28/1/1
f 30/1/1 27/1/1 29/1/1
f 34/1/1 32/1/1 31/1/1
f 34/1/1 33/1/1 32/1/1
f 35/1/1 33/1/1 34/1/1
f 38/1/1 37/1/1 36/1/1
f 39/1/1 37/1/1 38/1/1
f 40/1/1 38/1/1 36/1/1
f 41/1/1 37/1/1 39/1/1
f 42/1/1 40/1/1 36/1/1
f 42/1/1 41/1/1 40/1/1
f 43/1/1 41/1/1 42/1/1
f 44/1/1 41/1/1 43/1/1
f 45/1/1 37/1/1 41/1/1
f 45/1/1 41/1/1 44/1/1
f 46/1/1 37/1/1 45/1/1
f 47/1/1 42/1/1 36/1/1
f 48/1/1 37/1/1 46/1/1
f 49/1/1 47/1/1 36/1/1
f 50/1/1 37/1/1 48/1/1
f 51/1/1 49/1/1 36/1/1
f 52/1/1 37/1/1 50/1/1
f 53/1/1 51/1/1 36/1/1
f 57/1/1 37/1/1 52/1/1
f 58/1/1 56/1/1 55/1/1
f 58/1/1 57/1/1 56/1/1
f 58/1/1 54/1/1 53/1/1
f 58/1/1 55/1/1 54/1/1
f 59/1/1 57/1/1 58/1/1
f 60/1/1 58/1/1 53/1/1
f 61/1/1 57/1/1 59/1/1
f 62/1/1 53/1/1 36/1/1
f 62/1/1 61/1/1 60/1/1
f 62/1/1 60/1/1 53/1/1
f 63/1/1 37/1/1 57/1/1
f 63/1/1 61/1/1 62/1/1
f 63/1/1 57/1/1 61/1/1
f 66/1/1 65/1/1 64/1/1
f 67/1/1 65/1/1 66/1/1
f 68/1/1 65/1/1 67/1/1
f 72/1/1 70/1/1 69/1/1
f 72/1/1 71/1/1 70/1/1
f 73/1/1 71/1/1 72/1/1
f 74/1/2 75/1/2 76/1/2
f 76/1/2 75/1/2 77/1/2
f 77/1/2 75/1/2 78/1/2
f 79/1/2 80/1/2 82/1/2
f 80/1/2 81/1/2 82/1/2
f 82/1/2 81/1/2 83/1/2
f 84/1/2 85/1/2 86/1/2
f 86/1/2 85/1/2 87/1/2
f 84/1/2 86/1/2 88/1/2
f 87/1/2 85/1/2 89/1/2
f 84/1/2 88/1/2 90/1/2
f 88/1/2 89/1/2 90/1/2
f 90/1/2 89/1/2 91/1/2
f 91/1/2 89/1/2 92/1/2
f 89/1/2 85/1/2 93/1/2
f 92/1/2 89/1/2 93/1/2
f 93/1/2 85/1/2 94/1/2
f 84/1/2 90/1/2 95/1/2
f 94/1/2 85/1/2 96/1/2
f 84/1/2 95/1/2 97/1/2
f 96/1/2 85/1/2 98/1/2
f 84/1/2 97/1/2 99/1/2
f 98/1/2 85/1/2 100/1/2
f 84/1/2 99/1/2 101/1/2
f 100/1/2 85/1/2 105/1/2
f 103/1/2 104/1/2 106/1/2
f 104/1/2 105/1/2 106/1/2
f 101/1/2 102/1/2 106/1/2
f 102/1/2 103/1/2 106/1/2
f 106/1/2 105/1/2 107/1/2
f 101/1/2 106/1/2 108/1/2
f 107/1/2 105/1/2 109/1/2
f 84/1/2 101/1/2 110/1/2
f 108/1/2 109/1/2 110/1/2
f 101/1/2 108/1/2 110/1/2
f 105/1/2 85/1/2 111/1/2
f 110/1/2 109/1/2 111/1/2
f 109/1/2 105/1/2 111/1/2
f 112/1/2 113/1/2 114/1/2
f 114/1/2 113/1/2 115/1/2
f 115/1/2 113/1/2 116/1/2
f 117/1/2 118/1/2 120/1/2
f 118/1/2 119/1/2 120/1/2
f 120/1/2 119/1/2 121/1/2
f 122/3/2 123/3/2 127/3/2
f 123/2/2 124/2/2 128/2/2
f 127/3/2 123/3/2 128/3/2
f 124/3/2 125/3/2 129/3/2
f 128/2/2 124/2/2 129/2/2
f 125/2/2 126/2/2 130/2/2
f 129/3/2 125/3/2 130/3/2
f 130/2/2 126/2/2 131/2/2
f 127/2/2 128/2/2 132/2/2
f 128/3/2 129/3/2 133/3/2
f 132/2/2 128/2/2 133/2/2
f 129/2/2 130/2/2 134/2/2
f 133/3/2 129/3/2 134/3/2
f 130/3/2 131/3/2 135/3/2
f 134/2/2 130/2/2 135/2/2
f 135/3/2 131/3/2 136/3/2
f 132/3/2 133/3/2 137/3/2
f 133/2/2 134/2/2 138/2/2
f 137/3/2 133/3/2 138/3/2
f 134/3/2 135/3/2 139/3/2
f 138/2/2 134/2/2 139/2/2
f 135/2/2 136/2/2 140/2/2
f 139/3/2 135/3/2 140/3/2
f 140/2/2 136/2/2 141/2/2
f 137/2/2 138/2/2 142/2/2
f 138/3/2 139/3/2 143/3/2
f 142/2/2 138/2/2 143/2/2
f 139/2/2 140/2/2 144/2/2
f 143/3/2 139/3/2 144/3/2
f 140/3/2 141/3/2 145/3/2
f 144/2/2 140/2/2 145/2/2
f 145/3/2 141/3/2 146/3/2
f 149/1/3 148/1/3 147/1/3
f 150/1/3 148/1/3 149/1/3
f 156/3/3 152/3/3 151/3/3
f 157/2/3 153/2/3 152/2/3
f 157/3/3 152/3/3 156/3/3
f 158/3/3 154/3/3 153/3/3
f 158/2/3 153/2/3 157/2/3
f 159/2/3 155/2/3 154/2/3
f 159/3/3 154/3/3 158/3/3
f 160/2/3 155/2/3 159/2/3
f 161/2/3 157/2/3 156/2/3
f 162/3/3 158/3/3 157/3/3
f 162/2/3 157/2/3 161/2/3
f 163/2/3 159/2/3 158/2/3
f 163/3/3 158/3/3 162/3/3
f 164/3/3 160/3/3 159/3/3
f 164/2/3 159/2/3 163/2/3
f 165/3/3 160/3/3 164/3/3
f 166/3/3 162/3/3 161/3/3
f 167/2/3 163/2/3 162/2/3
f 167/3/3 162/3/3 166/3/3
f 168/3/3 164/3/3 163/3/3
f 168/2/3 163/2/3 167/2/3
f 169/2/3 165/2/3 164/2/3
f 169/3/3 164/3/3 168/3/3
f 170/2/3 165/2/3 169/2/3
f 171/2/3 167/2/3 166/2/3
f 172/3/3 168/3/3 167/3/3
f 172/2/3 167/2/3 171/2/3
f 173/2/3 169/2/3 168/2/3
f 173/3/3 168/3/3 172/3/3
f 174/3/3 170/3/3 169/3/3
f 174/2/3 169/2/3 173/2/3
f 175/3/3 170/3/3 174/3/3
f 181/2/3 177/2/3 176/2/3
f 182/3/3 178/3/3 177/3/3
f 182/2/3 177/2/3 181/2/3
f 183/2/3 179/2/3 178/2/3
f 183/3/3 178/3/3 182/3/3
f 184/3/3 180/3/3 179/3/3
f 184/2/3 179/2/3 183/2/3
f 185/3/3 180/3/3 184/3/3
f 186/3/3 182/3/3 181/3/3
f 187/2/3 183/2/3 182/2/3
f 187/3/3 182/3/3 186/3/3
f 188/3/3 184/3/3 183/3/3
f 188/2/3 183/2/3 187/2/3
f 189/2/3 185/2/3 184/2/3
f 189/3/3 184/3/3 188/3/3
f 190/2/3 185/2/3 189/2/3
f 191/2/3 187/2/3 186/2/3
f 192/3/3 188/3/3 187/3/3
f 192/2/3 187/2/3 191/2/3
f 193/2/3 189/2/3 188/2/3
f 193/3/3 188/3/3 192/3/3
f 194/3/3 190/3/3 189/3/3
f 194/2/3 189/2/3 193/2/3
f 195/3/3 190/3/3 194/3/3
f 196/3/3 192/3/3 191/3/3
f 197/2/3 193/2/3 192/2/3
f 197/3/3 192/3/3 196/3/3
f 198/3/3 194/3/3 193/3/3
f 198/2/3 193/2/3 197/2/3
f 199/2/3 195/2/3 194/2/3
f 199/3/3 194/3/3 198/3/3
f 200/2/3 195/2/3 199/2/3
f 205/1/3 202/1/3 201/1/3
f 206/1/3 204/1/3 203/1/3
f 207/1/3 205/1/3 201/1/3
f 208/1/3 205/1/3 207/1/3
f 209/1/3 204/1/3 206/1/3
f 210/1/3 204/1/3 209/1/3
f 211/1/3 207/1/3 201/1/3
f 212/1/3 207/1/3 211/1/3
f 213/1/3 204/1/3 210/1/3
f 214/1/3 204/1/3 213/1/3
f 219/1/3 216/1/3 215/1/3
f 222/1/3 218/1/3 217/1/3
f 223/1/3 220/1/3 219/1/3
f 224/1/3 222/1/3 221/1/3
f 225/1/3 223/1/3 219/1/3
f 225/1/3 219/1/3 215/1/3
f 226/1/3 223/1/3 225/1/3
f 227/1/3 222/1/3 224/1/3
f 228/1/3 218/1/3 222/1/3
f 228/1/3 222/1/3 227/1/3
f 229/1/4 230/1/4 233/1/4
f 231/1/4 232/1/4 234/1/4
f 229/1/4 233/1/4 235/1/4
f 235/1/4 233/1/4 236/1/4
f 234/1/4 232/1/4 237/1/4
f 237/1/4 232/1/4 238/1/4
f 229/1/4 235/1/4 239/1/4
f 239/1/4 235/1/4 240/1/4
f 238/1/4 232/1/4 241/1/4
f 241/1/4 232/1/4 242/1/4
f 243/1/4 244/1/4 247/1/4
f 245/1/4 246/1/4 250/1/4
f 247/1/4 248/1/4 251/1/4
f 249/1/4 250/1/4 252/1/4
f 247/1/4 251/1/4 253/1/4
f 243/1/4 247/1/4 253/1/4
f 253/1/4 251/1/4 254/1/4
f 252/1/4 250/1/4 255/1/4
f 250/1/4 246/1/4 256/1/4
f 255/1/4 250/1/4 256/1/4
f 257/2/4 258/2/4 262/2/4
f 258/3/4 259/3/4 263/3/4
f 262/2/4 258/2/4 263/2/4
f 259/2/4 260/2/4 264/2/4
f 263/3/4 259/3/4 264/3/4
f 260/3/4 261/3/4 265/3/4
f 264/2/4 260/2/4 265/2/4
f 265/3/4 261/3/4 266/3/4
f 262/3/4 263/3/4 267/3/4
f 263/2/4 264/2/4 268/2/4
f 267/3/4 263/3/4 268/3/4
f 264/3/4 265/3/4 269/3/4
f 268/2/4 264/2/4 269/2/4
f 265/2/4 266/2/4 270/2/4
f 269/3/4 265/3/4 270/3/4
f 270/2/4 266/2/4 271/2/4
f 267/2/4 268/2/4 272/2/4
f 268/3/4 269/3/4 273/3/4
f 272/2/4 268/2/4 273/2/4
f 269/2/4 270/2/4 274/2/4
f 273/3/4 269/3/4 274/3/4
f 270/3/4 271/3/4 275/3/4
f 274/2/4 270/2/4 275/2/4
f 275/3/4 271/3/4 276/3/4
f 272/3/4 273/3/4 277/3/4
f 273/2/4 274/2/4 278/2/4
f 277/3/4 273/3/4 278/3/4
f 274/3/4 275/3/4 279/3/4
f 278/2/4 274/2/4 279/2/4
f 275/2/4 276/2/4 280/2/4
f 279/3/4 275/3/4 280/3/4
f 280/2/4 276/2/4 281/2/4
f 282/3/4 283/3/4 287/3/4
f 283/2/4 284/2/4 288/2/4
f 287/3/4 283/3/4 288/3/4
f 284/3/4 285/3/4 289/3/4
f 288/2/4 284/2/4 289/2/4
f 285/2/4 286/2/4 290/2/4
f 289/3/4 285/3/4 290/3/4
f 290/2/4 286/2/4 291/2/4
f 287/2/4 288/2/4 292/2/4
f 288/3/4 289/3/4 293/3/4
f 292/2/4 288/2/4 293/2/4
f 289/2/4 290/2/4 294/2/4
f 293/3/4 289/3/4 294/3/4
f 290/3/4 291/3/4 295/3/4
f 294/2/4 290/2/4 295/2/4
f 295/3/4 291/3/4 296/3/4
f 292/3/4 293/3/4 297/3/4
f 293/2/4 294/2/4 298/2/4
f 297/3/4 293/3/4 298/3/4
f 294/3/4 295/3/4 299/3/4
f 298/2/4 294/2/4 299/2/4
f 295/2/4 296/2/4 300/2/4
f 299/3/4 295/3/4 300/3/4
f 300/2/4 296/2/4 301/2/4
f 297/2/4 298/2/4 302/2/4
f 298/3/4 299/3/4 303/3/4
f 302/2/4 298/2/4 303/2/4
f 299/2/4 300/2/4 304/2/4
f 303/3/4 299/3/4 304/3/4
f 300/3/4 301/3/4 305/3/4
f 304/2/4 300/2/4 305/2/4
f 305/3/4 301/3/4 306/3/4
f 307/1/4 308/1/4 309/1/4
f 309/1/4 308/1/4 310/1/4
f 313/1/5 312/1/5 311/1/5
f 314/1/5 312/1/5 313/1/5
f 319/1/5 316/1/5 315/1/5
f 320/1/5 316/1/5 319/1/5
f 321/1/5 318/1/5 317/1/5
f 322/1/5 318/1/5 321/1/5
f 333/3/5 324/3/5 323/3/5
f 334/2/5 325/2/5 324/2/5
f 334/3/5 324/3/5 333/3/5
f 335/3/5 326/3/5 325/3/5
f 335/2/5 325/2/5 334/2/5
f 336/2/5 327/2/5 326/2/5
f 336/3/5 326/3/5 335/3/5
f 337/2/5 327/2/5 336/2/5
f 338/2/5 329/2/5 328/2/5
f 339/3/5 330/3/5 329/3/5
f 339/2/5 329/2/5 338/2/5
f 340/2/5 331/2/5 330/2/5
f 340/3/5 330/3/5 339/3/5
f 341/3/5 332/3/5 331/3/5
f 341/2/5 331/2/5 340/2/5
f 342/3/5 332/3/5 341/3/5
f 343/2/5 334/2/5 333/2/5
f 344/2/5 334/2/5 343/2/5
f 345/3/5 337/3/5 336/3/5
f 346/3/5 337/3/5 345/3/5
f 347/3/5 339/3/5 338/3/5
f 348/3/5 339/3/5 347/3/5
f 349/2/5 342/2/5 341/2/5
f 350/2/5 342/2/5 349/2/5
f 351/3/5 344/3/5 343/3/5
f 352/3/5 344/3/5 351/3/5
f 354/2/5 346/2/5 345/2/5
f 355/2/5 346/2/5 354/2/5
f 356/2/5 348/2/5 347/2/5
f 357/2/5 348/2/5 356/2/5
f 359/3/5 350/3/5 349/3/5
f 360/3/5 350/3/5 359/3/5
f 361/2/5 352/2/5 351/2/5
f 362/3/5 353/3/5 352/3/5
f 362/2/5 352/2/5 361/2/5
f 363/2/5 354/2/5 353/2/5
f 363/3/5 353/3/5 362/3/5
f 364/3/5 355/3/5 354/3/5
f 364/2/5 354/2/5 363/2/5
f 365/3/5 355/3/5 364/3/5
f 366/3/5 357/3/5 356/3/5
f 367/2/5 358/2/5 357/2/5
f 367/3/5 357/3/5 366/3/5
f 368/3/5 359/3/5 358/3/5
f 368/2/5 358/2/5 367/2/5
f 369/2/5 360/2/5 359/2/5
f 369/3/5 359/3/5 368/3/5
f 370/2/5 360/2/5 369/2/5
f 375/1/5 372/1/5 371/1/5
f 376/1/5 372/1/5 375/1/5
f 377/1/5 374/1/5 373/1/5
f 378/1/5 374/1/5 377/1/5
f 379/1/6 380/1/6 383/1/6
f 383/1/6 380/1/6 384/1/6
f 381/1/6 382/1/6 385/1/6
f 385/1/6 382/1/6 386/1/6
f 387/2/6 388/2/6 397/2/6
f 388/3/6 389/3/6 398/3/6
f 397/2/6 388/2/6 398/2/6
f 389/2/6 390/2/6 399/2/6
f 398/3/6 389/3/6 399/3/6
f 390/3/6 391/3/6 400/3/6
f 399/2/6 390/2/6 400/2/6
f 400/3/6 391/3/6 401/3/6
f 392/3/6 393/3/6 402/3/6
f 393/2/6 394/2/6 403/2/6
f 402/3/6 393/3/6 403/3/6
f 394/3/6 395/3/6 404/3/6
f 403/2/6 394/2/6 404/2/6
f 395/2/6 396/2/6 405/2/6
f 404/3/6 395/3/6 405/3/6
f 405/2/6 396/2/6 406/2/6
f 397/3/6 398/3/6 407/3/6
f 407/3/6 398/3/6 408/3/6
f 400/2/6 401/2/6 409/2/6
f 409/2/6 401/2/6 410/2/6
f 402/2/6 403/2/6 411/2/6
f 411/2/6 403/2/6 412/2/6
f 405/3/6 406/3/6 413/3/6
f 413/3/6 406/3/6 414/3/6
f 407/2/6 408/2/6 415/2/6
f 415/2/6 408/2/6 416/2/6
f 409/3/6 410/3/6 418/3/6
f 418/3/6 410/3/6 419/3/6
f 411/3/6 412/3/6 420/3/6
f 420/3/6 412/3/6 421/3/6
f 413/2/6 414/2/6 423/2/6
f 423/2/6 414/2/6 424/2/6
f 415/3/6 416/3/6 425/3/6
f 416/2/6 417/2/6 426/2/6
f 425/3/6 416/3/6 426/3/6
f 417/3/6 418/3/6 427/3/6
f 426/2/6 417/2/6 427/2/6
f 418/2/6 419/2/6 428/2/6
f 427/3/6 418/3/6 428/3/6
f 428/2/6 419/2/6 429/2/6
f 420/2/6 421/2/6 430/2/6
f 421/3/6 422/3/6 431/3/6
f 430/2/6 421/2/6 431/2/6
f 422/2/6 423/2/6 432/2/6
f 431/3/6 422/3/6 432/3/6
f 423/3/6 424/3/6 433/3/6
f 432/2/6 423/2/6 433/2/6
f 433/3/6 424/3/6 434/3/6
f 435/1/6 436/1/6 439/1/6
f 439/1/6 436/1/6 440/1/6
f 437/1/6 438/1/6 441/1/6
f 441/1/6 438/1/6 442/1/6
f 443/1/6 444/1/6 445/1/6
f 445/1/6 444/1/6 446/1/6
