# MagicaVoxel @ Ephtracy

# material
mtllib Turret.mtl
usemtl palette

# normals
vn -1 0 0
vn 1 0 0
vn 0 0 1
vn 0 0 -1
vn 0 -1 0
vn 0 1 0

# texcoords
vt 0.548828 0.5
vt 0.822266 0.5
vt 0.826172 0.5

# verts
v -5 2 2
v -5 2 -0
v -5 2 -1
v -5 2 -2
v -5 6 2
v -5 6 -0
v -5 6 -1
v -5 6 -2
v -2 0 2
v -2 0 -0
v -2 0 -1
v -2 0 -2
v -2 2 2
v -2 2 -0
v -2 2 -1
v -2 2 -2
v -2 6 2
v -2 6 -0
v -2 6 -1
v -2 6 -2
v -2 8 2
v -2 8 -0
v -2 8 -1
v -2 8 -2
v -1 8 1
v -1 8 -0
v -1 8 -1
v -1 10 1
v -1 10 -1
v 1 8 1
v 1 8 -0
v 1 8 -1
v 1 10 1
v 1 10 -1
v 2 0 2
v 2 0 -0
v 2 0 -1
v 2 0 -2
v 2 2 2
v 2 2 -0
v 2 2 -1
v 2 2 -2
v 2 6 2
v 2 6 -0
v 2 6 -1
v 2 6 -2
v 2 8 2
v 2 8 -0
v 2 8 -1
v 2 8 -2
v 5 2 2
v 5 2 -0
v 5 2 -1
v 5 2 -2
v 5 6 2
v 5 6 -0
v 5 6 -1
v 5 6 -2
v -5 2 2
v -5 6 2
v -2 0 2
v -2 2 2
v -2 6 2
v -2 8 2
v -1 0 2
v -1 8 2
v 1 0 2
v 1 8 2
v 2 0 2
v 2 2 2
v 2 6 2
v 2 8 2
v 5 2 2
v 5 6 2
v -1 8 1
v -1 10 1
v 1 8 1
v 1 10 1
v -1 8 -1
v -1 10 -1
v 1 8 -1
v 1 10 -1
v -5 2 -2
v -5 6 -2
v -2 0 -2
v -2 2 -2
v -2 6 -2
v -2 8 -2
v -1 0 -2
v -1 8 -2
v 1 0 -2
v 1 8 -2
v 2 0 -2
v 2 2 -2
v 2 6 -2
v 2 8 -2
v 5 2 -2
v 5 6 -2
v -2 0 2
v -1 0 2
v 1 0 2
v 2 0 2
v -1 0 1
v 1 0 1
v -2 0 -0
v -1 0 -0
v 1 0 -0
v 2 0 -0
v -2 0 -1
v -1 0 -1
v 1 0 -1
v 2 0 -1
v -2 0 -2
v -1 0 -2
v 1 0 -2
v 2 0 -2
v -5 2 2
v -2 2 2
v 2 2 2
v 5 2 2
v -5 2 -0
v -2 2 -0
v 2 2 -0
v 5 2 -0
v -5 2 -1
v -2 2 -1
v 2 2 -1
v 5 2 -1
v -5 2 -2
v -2 2 -2
v 2 2 -2
v 5 2 -2
v -5 6 2
v -2 6 2
v 2 6 2
v 5 6 2
v -5 6 -0
v -2 6 -0
v 2 6 -0
v 5 6 -0
v -5 6 -1
v -2 6 -1
v 2 6 -1
v 5 6 -1
v -5 6 -2
v -2 6 -2
v 2 6 -2
v 5 6 -2
v -2 8 2
v -1 8 2
v 1 8 2
v 2 8 2
v -1 8 1
v 1 8 1
v -2 8 -0
v -1 8 -0
v 1 8 -0
v 2 8 -0
v -2 8 -1
v -1 8 -1
v 1 8 -1
v 2 8 -1
v -2 8 -2
v -1 8 -2
v 1 8 -2
v 2 8 -2
v -1 10 1
v 1 10 1
v -1 10 -1
v 1 10 -1

# faces
f 5/3/1 2/3/1 1/3/1
f 6/2/1 3/2/1 2/2/1
f 6/3/1 2/3/1 5/3/1
f 7/3/1 4/3/1 3/3/1
f 7/2/1 3/2/1 6/2/1
f 8/3/1 4/3/1 7/3/1
f 13/3/1 10/3/1 9/3/1
f 14/2/1 11/2/1 10/2/1
f 14/3/1 10/3/1 13/3/1
f 15/3/1 12/3/1 11/3/1
f 15/2/1 11/2/1 14/2/1
f 16/3/1 12/3/1 15/3/1
f 21/3/1 18/3/1 17/3/1
f 22/2/1 19/2/1 18/2/1
f 22/3/1 18/3/1 21/3/1
f 23/3/1 20/3/1 19/3/1
f 23/2/1 19/2/1 22/2/1
f 24/3/1 20/3/1 23/3/1
f 28/1/1 26/1/1 25/1/1
f 28/1/1 27/1/1 26/1/1
f 29/1/1 27/1/1 28/1/1
f 30/1/2 31/1/2 33/1/2
f 31/1/2 32/1/2 33/1/2
f 33/1/2 32/1/2 34/1/2
f 35/3/2 36/3/2 39/3/2
f 36/2/2 37/2/2 40/2/2
f 39/3/2 36/3/2 40/3/2
f 37/3/2 38/3/2 41/3/2
f 40/2/2 37/2/2 41/2/2
f 41/3/2 38/3/2 42/3/2
f 43/3/2 44/3/2 47/3/2
f 44/2/2 45/2/2 48/2/2
f 47/3/2 44/3/2 48/3/2
f 45/3/2 46/3/2 49/3/2
f 48/2/2 45/2/2 49/2/2
f 49/3/2 46/3/2 50/3/2
f 51/3/2 52/3/2 55/3/2
f 52/2/2 53/2/2 56/2/2
f 55/3/2 52/3/2 56/3/2
f 53/3/2 54/3/2 57/3/2
f 56/2/2 53/2/2 57/2/2
f 57/3/2 54/3/2 58/3/2
f 62/3/3 60/3/3 59/3/3
f 63/3/3 60/3/3 62/3/3
f 65/3/3 62/3/3 61/3/3
f 65/3/3 64/3/3 63/3/3
f 65/3/3 63/3/3 62/3/3
f 66/3/3 64/3/3 65/3/3
f 67/2/3 66/2/3 65/2/3
f 68/2/3 66/2/3 67/2/3
f 69/3/3 68/3/3 67/3/3
f 70/3/3 68/3/3 69/3/3
f 71/3/3 68/3/3 70/3/3
f 72/3/3 68/3/3 71/3/3
f 73/3/3 71/3/3 70/3/3
f 74/3/3 71/3/3 73/3/3
f 77/1/3 76/1/3 75/1/3
f 78/1/3 76/1/3 77/1/3
f 79/1/4 80/1/4 81/1/4
f 81/1/4 80/1/4 82/1/4
f 83/3/4 84/3/4 86/3/4
f 86/3/4 84/3/4 87/3/4
f 85/3/4 86/3/4 89/3/4
f 87/3/4 88/3/4 89/3/4
f 86/3/4 87/3/4 89/3/4
f 89/3/4 88/3/4 90/3/4
f 89/2/4 90/2/4 91/2/4
f 91/2/4 90/2/4 92/2/4
f 91/3/4 92/3/4 93/3/4
f 93/3/4 92/3/4 94/3/4
f 94/3/4 92/3/4 95/3/4
f 95/3/4 92/3/4 96/3/4
f 94/3/4 95/3/4 97/3/4
f 97/3/4 95/3/4 98/3/4
f 103/3/5 100/3/5 99/3/5
f 103/2/5 101/2/5 100/2/5
f 104/3/5 102/3/5 101/3/5
f 104/2/5 101/2/5 103/2/5
f 105/3/5 103/3/5 99/3/5
f 105/3/5 104/3/5 103/3/5
f 106/3/5 104/3/5 105/3/5
f 107/3/5 102/3/5 104/3/5
f 107/3/5 104/3/5 106/3/5
f 108/3/5 102/3/5 107/3/5
f 109/2/5 106/2/5 105/2/5
f 110/3/5 107/3/5 106/3/5
f 110/2/5 106/2/5 109/2/5
f 111/2/5 108/2/5 107/2/5
f 111/3/5 107/3/5 110/3/5
f 112/2/5 108/2/5 111/2/5
f 113/3/5 110/3/5 109/3/5
f 114/2/5 111/2/5 110/2/5
f 114/3/5 110/3/5 113/3/5
f 115/3/5 112/3/5 111/3/5
f 115/2/5 111/2/5 114/2/5
f 116/3/5 112/3/5 115/3/5
f 121/3/5 118/3/5 117/3/5
f 122/3/5 118/3/5 121/3/5
f 123/3/5 120/3/5 119/3/5
f 124/3/5 120/3/5 123/3/5
f 125/2/5 122/2/5 121/2/5
f 126/2/5 122/2/5 125/2/5
f 127/2/5 124/2/5 123/2/5
f 128/2/5 124/2/5 127/2/5
f 129/3/5 126/3/5 125/3/5
f 130/3/5 126/3/5 129/3/5
f 131/3/5 128/3/5 127/3/5
f 132/3/5 128/3/5 131/3/5
f 133/3/6 134/3/6 137/3/6
f 137/3/6 134/3/6 138/3/6
f 135/3/6 136/3/6 139/3/6
f 139/3/6 136/3/6 140/3/6
f 137/2/6 138/2/6 141/2/6
f 141/2/6 138/2/6 142/2/6
f 139/2/6 140/2/6 143/2/6
f 143/2/6 140/2/6 144/2/6
f 141/3/6 142/3/6 145/3/6
f 145/3/6 142/3/6 146/3/6
f 143/3/6 144/3/6 147/3/6
f 147/3/6 144/3/6 148/3/6
f 149/3/6 150/3/6 153/3/6
f 150/2/6 151/2/6 153/2/6
f 151/3/6 152/3/6 154/3/6
f 153/2/6 151/2/6 154/2/6
f 149/3/6 153/3/6 155/3/6
f 155/3/6 153/3/6 156/3/6
f 154/3/6 152/3/6 157/3/6
f 157/3/6 152/3/6 158/3/6
f 155/2/6 156/2/6 159/2/6
f 159/2/6 156/2/6 160/2/6
f 157/2/6 158/2/6 161/2/6
f 161/2/6 158/2/6 162/2/6
f 159/3/6 160/3/6 163/3/6
f 160/2/6 161/2/6 164/2/6
f 163/3/6 160/3/6 164/3/6
f 161/3/6 162/3/6 165/3/6
f 164/2/6 161/2/6 165/2/6
f 165/3/6 162/3/6 166/3/6
f 167/1/6 168/1/6 169/1/6
f 169/1/6 168/1/6 170/1/6
