# MagicaVoxel @ Ephtracy

# material
mtllib Base.mtl
usemtl palette

# normals
vn -1 0 0
vn 1 0 0
vn 0 0 1
vn 0 0 -1
vn 0 -1 0
vn 0 1 0

# texcoords
vt 0.548828 0.5
vt 0.822266 0.5
vt 0.826172 0.5
vt 0.833984 0.5

# verts
v -5 1 5
v -5 1 2
v -5 1 -2
v -5 1 -5
v -5 2 3
v -5 2 2
v -5 2 -2
v -5 2 -3
v -5 3 3
v -5 3 2
v -5 3 -2
v -5 3 -3
v -5 4 3
v -5 4 2
v -5 4 -2
v -5 4 -3
v -5 5 3
v -5 5 2
v -5 5 -2
v -5 5 -3
v -5 6 3
v -5 6 2
v -5 6 -2
v -5 6 -3
v -5 7 3
v -5 7 2
v -5 7 -2
v -5 7 -3
v -5 8 3
v -5 8 2
v -5 8 -2
v -5 8 -3
v -5 9 3
v -5 9 2
v -5 9 -2
v -5 9 -3
v -5 10 5
v -5 10 2
v -5 10 -2
v -5 10 -5
v -4 0 4
v -4 0 -4
v -4 1 4
v -4 1 2
v -4 1 -2
v -4 1 -4
v -4 2 2
v -4 2 -2
v -4 3 2
v -4 3 -2
v -4 4 2
v -4 4 -2
v -4 5 2
v -4 5 -2
v -4 6 2
v -4 6 -2
v -4 7 2
v -4 7 -2
v -4 8 2
v -4 8 -2
v -1 8 1
v -1 8 -1
v -1 10 1
v -1 10 -1
v 2 1 5
v 2 1 4
v 2 1 -4
v 2 1 -5
v 2 2 5
v 2 2 4
v 2 2 -4
v 2 2 -5
v 2 3 5
v 2 3 4
v 2 3 -4
v 2 3 -5
v 2 4 5
v 2 4 4
v 2 4 -4
v 2 4 -5
v 2 5 5
v 2 5 4
v 2 5 -4
v 2 5 -5
v 2 6 5
v 2 6 4
v 2 6 -4
v 2 6 -5
v 2 7 5
v 2 7 4
v 2 7 -4
v 2 7 -5
v 2 8 5
v 2 8 4
v 2 8 -4
v 2 8 -5
v 2 9 5
v 2 9 4
v 2 9 -4
v 2 9 -5
v 2 10 5
v 2 10 4
v 2 10 -4
v 2 10 -5
v 4 8 4
v 4 8 3
v 4 8 2
v 4 8 -2
v 4 8 -3
v 4 8 -4
v 4 9 3
v 4 9 2
v 4 9 -2
v 4 9 -3
v 4 10 4
v 4 10 2
v 4 10 -2
v 4 10 -4
v -4 8 4
v -4 8 3
v -4 8 2
v -4 8 -2
v -4 8 -3
v -4 8 -4
v -4 9 3
v -4 9 2
v -4 9 -2
v -4 9 -3
v -4 10 4
v -4 10 2
v -4 10 -2
v -4 10 -4
v -2 1 5
v -2 1 4
v -2 1 -4
v -2 1 -5
v -2 2 5
v -2 2 4
v -2 2 -4
v -2 2 -5
v -2 3 5
v -2 3 4
v -2 3 -4
v -2 3 -5
v -2 4 5
v -2 4 4
v -2 4 -4
v -2 4 -5
v -2 5 5
v -2 5 4
v -2 5 -4
v -2 5 -5
v -2 6 5
v -2 6 4
v -2 6 -4
v -2 6 -5
v -2 7 5
v -2 7 4
v -2 7 -4
v -2 7 -5
v -2 8 5
v -2 8 4
v -2 8 -4
v -2 8 -5
v -2 9 5
v -2 9 4
v -2 9 -4
v -2 9 -5
v -2 10 5
v -2 10 4
v -2 10 -4
v -2 10 -5
v 1 8 1
v 1 8 -1
v 1 10 1
v 1 10 -1
v 4 0 4
v 4 0 -4
v 4 1 4
v 4 1 2
v 4 1 -2
v 4 1 -4
v 4 2 2
v 4 2 -2
v 4 3 2
v 4 3 -2
v 4 4 2
v 4 4 -2
v 4 5 2
v 4 5 -2
v 4 6 2
v 4 6 -2
v 4 7 2
v 4 7 -2
v 4 8 2
v 4 8 -2
v 5 1 5
v 5 1 2
v 5 1 -2
v 5 1 -5
v 5 2 3
v 5 2 2
v 5 2 -2
v 5 2 -3
v 5 3 3
v 5 3 2
v 5 3 -2
v 5 3 -3
v 5 4 3
v 5 4 2
v 5 4 -2
v 5 4 -3
v 5 5 3
v 5 5 2
v 5 5 -2
v 5 5 -3
v 5 6 3
v 5 6 2
v 5 6 -2
v 5 6 -3
v 5 7 3
v 5 7 2
v 5 7 -2
v 5 7 -3
v 5 8 3
v 5 8 2
v 5 8 -2
v 5 8 -3
v 5 9 3
v 5 9 2
v 5 9 -2
v 5 9 -3
v 5 10 5
v 5 10 2
v 5 10 -2
v 5 10 -5
v -5 1 5
v -5 10 5
v -3 2 5
v -3 3 5
v -3 4 5
v -3 5 5
v -3 6 5
v -3 7 5
v -3 8 5
v -3 9 5
v -2 1 5
v -2 2 5
v -2 3 5
v -2 4 5
v -2 5 5
v -2 6 5
v -2 7 5
v -2 8 5
v -2 9 5
v -2 10 5
v 2 1 5
v 2 2 5
v 2 3 5
v 2 4 5
v 2 5 5
v 2 6 5
v 2 7 5
v 2 8 5
v 2 9 5
v 2 10 5
v 3 2 5
v 3 3 5
v 3 4 5
v 3 5 5
v 3 6 5
v 3 7 5
v 3 8 5
v 3 9 5
v 5 1 5
v 5 10 5
v -4 0 4
v -4 1 4
v -2 1 4
v -2 2 4
v -2 3 4
v -2 4 4
v -2 5 4
v -2 6 4
v -2 7 4
v -2 8 4
v 2 1 4
v 2 2 4
v 2 3 4
v 2 4 4
v 2 5 4
v 2 6 4
v 2 7 4
v 2 8 4
v 4 0 4
v 4 1 4
v -1 8 1
v -1 10 1
v 1 8 1
v 1 10 1
v -5 1 -2
v -5 2 -2
v -5 3 -2
v -5 4 -2
v -5 5 -2
v -5 6 -2
v -5 7 -2
v -5 8 -2
v -5 9 -2
v -5 10 -2
v -4 1 -2
v -4 2 -2
v -4 3 -2
v -4 4 -2
v -4 5 -2
v -4 6 -2
v -4 7 -2
v -4 8 -2
v -4 9 -2
v -4 10 -2
v 4 1 -2
v 4 2 -2
v 4 3 -2
v 4 4 -2
v 4 5 -2
v 4 6 -2
v 4 7 -2
v 4 8 -2
v 4 9 -2
v 4 10 -2
v 5 1 -2
v 5 2 -2
v 5 3 -2
v 5 4 -2
v 5 5 -2
v 5 6 -2
v 5 7 -2
v 5 8 -2
v 5 9 -2
v 5 10 -2
v -4 8 -4
v -4 10 -4
v -3 8 -4
v -3 9 -4
v -2 8 -4
v -2 9 -4
v -2 10 -4
v 2 8 -4
v 2 9 -4
v 2 10 -4
v 3 8 -4
v 3 9 -4
v 4 8 -4
v 4 10 -4
v -4 8 4
v -4 10 4
v -3 8 4
v -3 9 4
v -2 8 4
v -2 9 4
v -2 10 4
v 2 8 4
v 2 9 4
v 2 10 4
v 3 8 4
v 3 9 4
v 4 8 4
v 4 10 4
v -5 1 2
v -5 2 2
v -5 3 2
v -5 4 2
v -5 5 2
v -5 6 2
v -5 7 2
v -5 8 2
v -5 9 2
v -5 10 2
v -4 1 2
v -4 2 2
v -4 3 2
v -4 4 2
v -4 5 2
v -4 6 2
v -4 7 2
v -4 8 2
v -4 9 2
v -4 10 2
v 4 1 2
v 4 2 2
v 4 3 2
v 4 4 2
v 4 5 2
v 4 6 2
v 4 7 2
v 4 8 2
v 4 9 2
v 4 10 2
v 5 1 2
v 5 2 2
v 5 3 2
v 5 4 2
v 5 5 2
v 5 6 2
v 5 7 2
v 5 8 2
v 5 9 2
v 5 10 2
v -1 8 -1
v -1 10 -1
v 1 8 -1
v 1 10 -1
v -4 0 -4
v -4 1 -4
v -2 1 -4
v -2 2 -4
v -2 3 -4
v -2 4 -4
v -2 5 -4
v -2 6 -4
v -2 7 -4
v -2 8 -4
v 2 1 -4
v 2 2 -4
v 2 3 -4
v 2 4 -4
v 2 5 -4
v 2 6 -4
v 2 7 -4
v 2 8 -4
v 4 0 -4
v 4 1 -4
v -5 1 -5
v -5 10 -5
v -3 2 -5
v -3 3 -5
v -3 4 -5
v -3 5 -5
v -3 6 -5
v -3 7 -5
v -3 8 -5
v -3 9 -5
v -2 1 -5
v -2 2 -5
v -2 3 -5
v -2 4 -5
v -2 5 -5
v -2 6 -5
v -2 7 -5
v -2 8 -5
v -2 9 -5
v -2 10 -5
v 2 1 -5
v 2 2 -5
v 2 3 -5
v 2 4 -5
v 2 5 -5
v 2 6 -5
v 2 7 -5
v 2 8 -5
v 2 9 -5
v 2 10 -5
v 3 2 -5
v 3 3 -5
v 3 4 -5
v 3 5 -5
v 3 6 -5
v 3 7 -5
v 3 8 -5
v 3 9 -5
v 5 1 -5
v 5 10 -5
v -4 0 4
v 4 0 4
v -4 0 -4
v 4 0 -4
v -5 1 5
v -2 1 5
v 2 1 5
v 5 1 5
v -4 1 4
v -2 1 4
v 2 1 4
v 4 1 4
v -5 1 2
v -4 1 2
v 4 1 2
v 5 1 2
v -5 1 -2
v -4 1 -2
v 4 1 -2
v 5 1 -2
v -4 1 -4
v -2 1 -4
v 2 1 -4
v 4 1 -4
v -5 1 -5
v -2 1 -5
v 2 1 -5
v 5 1 -5
v -2 2 5
v 2 2 5
v -2 2 4
v 2 2 4
v -5 2 2
v -4 2 2
v 4 2 2
v 5 2 2
v -5 2 -2
v -4 2 -2
v 4 2 -2
v 5 2 -2
v -2 2 -4
v 2 2 -4
v -2 2 -5
v 2 2 -5
v -2 4 5
v 2 4 5
v -2 4 4
v 2 4 4
v -5 4 2
v -4 4 2
v 4 4 2
v 5 4 2
v -5 4 -2
v -4 4 -2
v 4 4 -2
v 5 4 -2
v -2 4 -4
v 2 4 -4
v -2 4 -5
v 2 4 -5
v -2 6 5
v 2 6 5
v -2 6 4
v 2 6 4
v -5 6 2
v -4 6 2
v 4 6 2
v 5 6 2
v -5 6 -2
v -4 6 -2
v 4 6 -2
v 5 6 -2
v -2 6 -4
v 2 6 -4
v -2 6 -5
v 2 6 -5
v -2 8 5
v 2 8 5
v -2 8 4
v 2 8 4
v -5 8 2
v -4 8 2
v 4 8 2
v 5 8 2
v -5 8 -2
v -4 8 -2
v 4 8 -2
v 5 8 -2
v -2 8 -4
v 2 8 -4
v -2 8 -5
v 2 8 -5
v -2 3 5
v 2 3 5
v -2 3 4
v 2 3 4
v -5 3 2
v -4 3 2
v 4 3 2
v 5 3 2
v -5 3 -2
v -4 3 -2
v 4 3 -2
v 5 3 -2
v -2 3 -4
v 2 3 -4
v -2 3 -5
v 2 3 -5
v -2 5 5
v 2 5 5
v -2 5 4
v 2 5 4
v -5 5 2
v -4 5 2
v 4 5 2
v 5 5 2
v -5 5 -2
v -4 5 -2
v 4 5 -2
v 5 5 -2
v -2 5 -4
v 2 5 -4
v -2 5 -5
v 2 5 -5
v -2 7 5
v 2 7 5
v -2 7 4
v 2 7 4
v -5 7 2
v -4 7 2
v 4 7 2
v 5 7 2
v -5 7 -2
v -4 7 -2
v 4 7 -2
v 5 7 -2
v -2 7 -4
v 2 7 -4
v -2 7 -5
v 2 7 -5
v -4 8 4
v -3 8 4
v -2 8 4
v 2 8 4
v 3 8 4
v 4 8 4
v -4 8 3
v 4 8 3
v -4 8 2
v 4 8 2
v -1 8 1
v 1 8 1
v -1 8 -1
v 1 8 -1
v -4 8 -2
v 4 8 -2
v -4 8 -3
v 4 8 -3
v -4 8 -4
v -3 8 -4
v -2 8 -4
v 2 8 -4
v 3 8 -4
v 4 8 -4
v -2 9 5
v 2 9 5
v -2 9 4
v 2 9 4
v -5 9 2
v -4 9 2
v 4 9 2
v 5 9 2
v -5 9 -2
v -4 9 -2
v 4 9 -2
v 5 9 -2
v -2 9 -4
v 2 9 -4
v -2 9 -5
v 2 9 -5
v -5 10 5
v -2 10 5
v 2 10 5
v 5 10 5
v -4 10 4
v -2 10 4
v 2 10 4
v 4 10 4
v -5 10 2
v -4 10 2
v 4 10 2
v 5 10 2
v -1 10 1
v 1 10 1
v -1 10 -1
v 1 10 -1
v -5 10 -2
v -4 10 -2
v 4 10 -2
v 5 10 -2
v -4 10 -4
v -2 10 -4
v 2 10 -4
v 4 10 -4
v -5 10 -5
v -2 10 -5
v 2 10 -5
v 5 10 -5

# faces
f 5/3/1 2/3/1 1/3/1
f 6/3/1 2/3/1 5/3/1
f 7/3/1 4/3/1 3/3/1
f 8/3/1 4/3/1 7/3/1
f 9/2/1 6/2/1 5/2/1
f 9/3/1 5/3/1 1/3/1
f 10/4/1 7/4/1 6/4/1
f 10/2/1 6/2/1 9/2/1
f 11/2/1 8/2/1 7/2/1
f 11/4/1 7/4/1 10/4/1
f 12/3/1 4/3/1 8/3/1
f 12/2/1 8/2/1 11/2/1
f 13/3/1 10/3/1 9/3/1
f 13/3/1 9/3/1 1/3/1
f 14/3/1 10/3/1 13/3/1
f 15/3/1 12/3/1 11/3/1
f 16/3/1 4/3/1 12/3/1
f 16/3/1 12/3/1 15/3/1
f 17/2/1 14/2/1 13/2/1
f 17/3/1 13/3/1 1/3/1
f 18/4/1 15/4/1 14/4/1
f 18/2/1 14/2/1 17/2/1
f 19/2/1 16/2/1 15/2/1
f 19/4/1 15/4/1 18/4/1
f 20/3/1 4/3/1 16/3/1
f 20/2/1 16/2/1 19/2/1
f 21/3/1 17/3/1 1/3/1
f 21/3/1 18/3/1 17/3/1
f 22/3/1 18/3/1 21/3/1
f 23/3/1 20/3/1 19/3/1
f 24/3/1 4/3/1 20/3/1
f 24/3/1 20/3/1 23/3/1
f 25/2/1 22/2/1 21/2/1
f 25/3/1 21/3/1 1/3/1
f 26/4/1 23/4/1 22/4/1
f 26/2/1 22/2/1 25/2/1
f 27/2/1 24/2/1 23/2/1
f 27/4/1 23/4/1 26/4/1
f 28/3/1 4/3/1 24/3/1
f 28/2/1 24/2/1 27/2/1
f 29/3/1 25/3/1 1/3/1
f 29/3/1 26/3/1 25/3/1
f 30/3/1 26/3/1 29/3/1
f 31/3/1 28/3/1 27/3/1
f 32/3/1 4/3/1 28/3/1
f 32/3/1 28/3/1 31/3/1
f 33/2/1 30/2/1 29/2/1
f 33/3/1 29/3/1 1/3/1
f 34/4/1 31/4/1 30/4/1
f 34/2/1 30/2/1 33/2/1
f 35/2/1 32/2/1 31/2/1
f 35/4/1 31/4/1 34/4/1
f 36/3/1 4/3/1 32/3/1
f 36/2/1 32/2/1 35/2/1
f 37/3/1 33/3/1 1/3/1
f 37/3/1 34/3/1 33/3/1
f 38/3/1 34/3/1 37/3/1
f 39/3/1 36/3/1 35/3/1
f 40/3/1 4/3/1 36/3/1
f 40/3/1 36/3/1 39/3/1
f 43/1/1 42/1/1 41/1/1
f 44/1/1 42/1/1 43/1/1
f 45/1/1 42/1/1 44/1/1
f 46/1/1 42/1/1 45/1/1
f 47/1/1 45/1/1 44/1/1
f 48/1/1 45/1/1 47/1/1
f 51/1/1 50/1/1 49/1/1
f 52/1/1 50/1/1 51/1/1
f 55/1/1 54/1/1 53/1/1
f 56/1/1 54/1/1 55/1/1
f 59/1/1 58/1/1 57/1/1
f 60/1/1 58/1/1 59/1/1
f 63/1/1 62/1/1 61/1/1
f 64/1/1 62/1/1 63/1/1
f 69/3/1 66/3/1 65/3/1
f 70/3/1 66/3/1 69/3/1
f 71/3/1 68/3/1 67/3/1
f 72/3/1 68/3/1 71/3/1
f 77/3/1 74/3/1 73/3/1
f 78/3/1 74/3/1 77/3/1
f 79/3/1 76/3/1 75/3/1
f 80/3/1 76/3/1 79/3/1
f 85/3/1 82/3/1 81/3/1
f 86/3/1 82/3/1 85/3/1
f 87/3/1 84/3/1 83/3/1
f 88/3/1 84/3/1 87/3/1
f 93/3/1 90/3/1 89/3/1
f 94/3/1 90/3/1 93/3/1
f 95/3/1 92/3/1 91/3/1
f 96/3/1 92/3/1 95/3/1
f 101/3/1 98/3/1 97/3/1
f 102/3/1 98/3/1 101/3/1
f 103/3/1 100/3/1 99/3/1
f 104/3/1 100/3/1 103/3/1
f 111/3/1 106/3/1 105/3/1
f 111/2/1 107/2/1 106/2/1
f 112/4/1 108/4/1 107/4/1
f 112/2/1 107/2/1 111/2/1
f 113/2/1 109/2/1 108/2/1
f 113/4/1 108/4/1 112/4/1
f 114/3/1 110/3/1 109/3/1
f 114/2/1 109/2/1 113/2/1
f 115/3/1 112/3/1 111/3/1
f 115/3/1 111/3/1 105/3/1
f 116/3/1 112/3/1 115/3/1
f 117/3/1 114/3/1 113/3/1
f 118/3/1 110/3/1 114/3/1
f 118/3/1 114/3/1 117/3/1
f 119/3/2 120/3/2 125/3/2
f 120/2/2 121/2/2 125/2/2
f 121/4/2 122/4/2 126/4/2
f 125/2/2 121/2/2 126/2/2
f 122/2/2 123/2/2 127/2/2
f 126/4/2 122/4/2 127/4/2
f 123/3/2 124/3/2 128/3/2
f 127/2/2 123/2/2 128/2/2
f 125/3/2 126/3/2 129/3/2
f 119/3/2 125/3/2 129/3/2
f 129/3/2 126/3/2 130/3/2
f 127/3/2 128/3/2 131/3/2
f 128/3/2 124/3/2 132/3/2
f 131/3/2 128/3/2 132/3/2
f 133/3/2 134/3/2 137/3/2
f 137/3/2 134/3/2 138/3/2
f 135/3/2 136/3/2 139/3/2
f 139/3/2 136/3/2 140/3/2
f 141/3/2 142/3/2 145/3/2
f 145/3/2 142/3/2 146/3/2
f 143/3/2 144/3/2 147/3/2
f 147/3/2 144/3/2 148/3/2
f 149/3/2 150/3/2 153/3/2
f 153/3/2 150/3/2 154/3/2
f 151/3/2 152/3/2 155/3/2
f 155/3/2 152/3/2 156/3/2
f 157/3/2 158/3/2 161/3/2
f 161/3/2 158/3/2 162/3/2
f 159/3/2 160/3/2 163/3/2
f 163/3/2 160/3/2 164/3/2
f 165/3/2 166/3/2 169/3/2
f 169/3/2 166/3/2 170/3/2
f 167/3/2 168/3/2 171/3/2
f 171/3/2 168/3/2 172/3/2
f 173/1/2 174/1/2 175/1/2
f 175/1/2 174/1/2 176/1/2
f 177/1/2 178/1/2 179/1/2
f 179/1/2 178/1/2 180/1/2
f 180/1/2 178/1/2 181/1/2
f 181/1/2 178/1/2 182/1/2
f 180/1/2 181/1/2 183/1/2
f 183/1/2 181/1/2 184/1/2
f 185/1/2 186/1/2 187/1/2
f 187/1/2 186/1/2 188/1/2
f 189/1/2 190/1/2 191/1/2
f 191/1/2 190/1/2 192/1/2
f 193/1/2 194/1/2 195/1/2
f 195/1/2 194/1/2 196/1/2
f 197/3/2 198/3/2 201/3/2
f 201/3/2 198/3/2 202/3/2
f 199/3/2 200/3/2 203/3/2
f 203/3/2 200/3/2 204/3/2
f 201/2/2 202/2/2 205/2/2
f 197/3/2 201/3/2 205/3/2
f 202/4/2 203/4/2 206/4/2
f 205/2/2 202/2/2 206/2/2
f 203/2/2 204/2/2 207/2/2
f 206/4/2 203/4/2 207/4/2
f 204/3/2 200/3/2 208/3/2
f 207/2/2 204/2/2 208/2/2
f 205/3/2 206/3/2 209/3/2
f 197/3/2 205/3/2 209/3/2
f 209/3/2 206/3/2 210/3/2
f 207/3/2 208/3/2 211/3/2
f 208/3/2 200/3/2 212/3/2
f 211/3/2 208/3/2 212/3/2
f 209/2/2 210/2/2 213/2/2
f 197/3/2 209/3/2 213/3/2
f 210/4/2 211/4/2 214/4/2
f 213/2/2 210/2/2 214/2/2
f 211/2/2 212/2/2 215/2/2
f 214/4/2 211/4/2 215/4/2
f 212/3/2 200/3/2 216/3/2
f 215/2/2 212/2/2 216/2/2
f 197/3/2 213/3/2 217/3/2
f 213/3/2 214/3/2 217/3/2
f 217/3/2 214/3/2 218/3/2
f 215/3/2 216/3/2 219/3/2
f 216/3/2 200/3/2 220/3/2
f 219/3/2 216/3/2 220/3/2
f 217/2/2 218/2/2 221/2/2
f 197/3/2 217/3/2 221/3/2
f 218/4/2 219/4/2 222/4/2
f 221/2/2 218/2/2 222/2/2
f 219/2/2 220/2/2 223/2/2
f 222/4/2 219/4/2 223/4/2
f 220/3/2 200/3/2 224/3/2
f 223/2/2 220/2/2 224/2/2
f 197/3/2 221/3/2 225/3/2
f 221/3/2 222/3/2 225/3/2
f 225/3/2 222/3/2 226/3/2
f 223/3/2 224/3/2 227/3/2
f 224/3/2 200/3/2 228/3/2
f 227/3/2 224/3/2 228/3/2
f 225/2/2 226/2/2 229/2/2
f 197/3/2 225/3/2 229/3/2
f 226/4/2 227/4/2 230/4/2
f 229/2/2 226/2/2 230/2/2
f 227/2/2 228/2/2 231/2/2
f 230/4/2 227/4/2 231/4/2
f 228/3/2 200/3/2 232/3/2
f 231/2/2 228/2/2 232/2/2
f 197/3/2 229/3/2 233/3/2
f 229/3/2 230/3/2 233/3/2
f 233/3/2 230/3/2 234/3/2
f 231/3/2 232/3/2 235/3/2
f 232/3/2 200/3/2 236/3/2
f 235/3/2 232/3/2 236/3/2
f 239/3/3 238/3/3 237/3/3
f 240/3/3 238/3/3 239/3/3
f 241/3/3 238/3/3 240/3/3
f 242/3/3 238/3/3 241/3/3
f 243/3/3 238/3/3 242/3/3
f 244/3/3 238/3/3 243/3/3
f 245/3/3 238/3/3 244/3/3
f 246/3/3 238/3/3 245/3/3
f 247/3/3 239/3/3 237/3/3
f 248/2/3 240/2/3 239/2/3
f 248/3/3 239/3/3 247/3/3
f 249/3/3 241/3/3 240/3/3
f 249/2/3 240/2/3 248/2/3
f 250/2/3 242/2/3 241/2/3
f 250/3/3 241/3/3 249/3/3
f 251/3/3 243/3/3 242/3/3
f 251/2/3 242/2/3 250/2/3
f 252/2/3 244/2/3 243/2/3
f 252/3/3 243/3/3 251/3/3
f 253/3/3 245/3/3 244/3/3
f 253/2/3 244/2/3 252/2/3
f 254/2/3 246/2/3 245/2/3
f 254/3/3 245/3/3 253/3/3
f 255/3/3 238/3/3 246/3/3
f 255/2/3 246/2/3 254/2/3
f 256/3/3 238/3/3 255/3/3
f 258/4/3 249/4/3 248/4/3
f 259/4/3 249/4/3 258/4/3
f 260/4/3 251/4/3 250/4/3
f 261/4/3 251/4/3 260/4/3
f 262/4/3 253/4/3 252/4/3
f 263/4/3 253/4/3 262/4/3
f 264/4/3 255/4/3 254/4/3
f 265/4/3 255/4/3 264/4/3
f 267/2/3 259/2/3 258/2/3
f 267/3/3 258/3/3 257/3/3
f 268/3/3 260/3/3 259/3/3
f 268/2/3 259/2/3 267/2/3
f 269/2/3 261/2/3 260/2/3
f 269/3/3 260/3/3 268/3/3
f 270/3/3 262/3/3 261/3/3
f 270/2/3 261/2/3 269/2/3
f 271/2/3 263/2/3 262/2/3
f 271/3/3 262/3/3 270/3/3
f 272/3/3 264/3/3 263/3/3
f 272/2/3 263/2/3 271/2/3
f 273/2/3 265/2/3 264/2/3
f 273/3/3 264/3/3 272/3/3
f 274/3/3 266/3/3 265/3/3
f 274/2/3 265/2/3 273/2/3
f 275/3/3 270/3/3 269/3/3
f 275/3/3 273/3/3 272/3/3
f 275/3/3 274/3/3 273/3/3
f 275/3/3 271/3/3 270/3/3
f 275/3/3 268/3/3 267/3/3
f 275/3/3 269/3/3 268/3/3
f 275/3/3 272/3/3 271/3/3
f 275/3/3 267/3/3 257/3/3
f 276/3/3 266/3/3 274/3/3
f 276/3/3 274/3/3 275/3/3
f 279/1/3 278/1/3 277/1/3
f 287/1/3 279/1/3 277/1/3
f 287/1/3 280/1/3 279/1/3
f 288/1/3 280/1/3 287/1/3
f 289/1/3 282/1/3 281/1/3
f 290/1/3 282/1/3 289/1/3
f 291/1/3 284/1/3 283/1/3
f 292/1/3 284/1/3 291/1/3
f 293/1/3 286/1/3 285/1/3
f 294/1/3 286/1/3 293/1/3
f 295/1/3 287/1/3 277/1/3
f 296/1/3 287/1/3 295/1/3
f 299/1/3 298/1/3 297/1/3
f 300/1/3 298/1/3 299/1/3
f 311/3/3 302/3/3 301/3/3
f 312/3/3 302/3/3 311/3/3
f 313/3/3 304/3/3 303/3/3
f 314/3/3 304/3/3 313/3/3
f 315/3/3 306/3/3 305/3/3
f 316/3/3 306/3/3 315/3/3
f 317/3/3 308/3/3 307/3/3
f 318/3/3 308/3/3 317/3/3
f 319/3/3 310/3/3 309/3/3
f 320/3/3 310/3/3 319/3/3
f 331/3/3 322/3/3 321/3/3
f 332/3/3 322/3/3 331/3/3
f 333/3/3 324/3/3 323/3/3
f 334/3/3 324/3/3 333/3/3
f 335/3/3 326/3/3 325/3/3
f 336/3/3 326/3/3 335/3/3
f 337/3/3 328/3/3 327/3/3
f 338/3/3 328/3/3 337/3/3
f 339/3/3 330/3/3 329/3/3
f 340/3/3 330/3/3 339/3/3
f 343/3/3 342/3/3 341/3/3
f 344/3/3 342/3/3 343/3/3
f 345/2/3 344/2/3 343/2/3
f 346/3/3 342/3/3 344/3/3
f 346/2/3 344/2/3 345/2/3
f 347/3/3 342/3/3 346/3/3
f 348/4/3 346/4/3 345/4/3
f 349/4/3 346/4/3 348/4/3
f 351/2/3 349/2/3 348/2/3
f 352/3/3 350/3/3 349/3/3
f 352/2/3 349/2/3 351/2/3
f 353/3/3 352/3/3 351/3/3
f 354/3/3 350/3/3 352/3/3
f 354/3/3 352/3/3 353/3/3
f 355/3/4 356/3/4 357/3/4
f 357/3/4 356/3/4 358/3/4
f 357/2/4 358/2/4 359/2/4
f 358/3/4 356/3/4 360/3/4
f 359/2/4 358/2/4 360/2/4
f 360/3/4 356/3/4 361/3/4
f 359/4/4 360/4/4 362/4/4
f 362/4/4 360/4/4 363/4/4
f 362/2/4 363/2/4 365/2/4
f 363/3/4 364/3/4 366/3/4
f 365/2/4 363/2/4 366/2/4
f 365/3/4 366/3/4 367/3/4
f 366/3/4 364/3/4 368/3/4
f 367/3/4 366/3/4 368/3/4
f 369/3/4 370/3/4 379/3/4
f 379/3/4 370/3/4 380/3/4
f 371/3/4 372/3/4 381/3/4
f 381/3/4 372/3/4 382/3/4
f 373/3/4 374/3/4 383/3/4
f 383/3/4 374/3/4 384/3/4
f 375/3/4 376/3/4 385/3/4
f 385/3/4 376/3/4 386/3/4
f 377/3/4 378/3/4 387/3/4
f 387/3/4 378/3/4 388/3/4
f 389/3/4 390/3/4 399/3/4
f 399/3/4 390/3/4 400/3/4
f 391/3/4 392/3/4 401/3/4
f 401/3/4 392/3/4 402/3/4
f 393/3/4 394/3/4 403/3/4
f 403/3/4 394/3/4 404/3/4
f 395/3/4 396/3/4 405/3/4
f 405/3/4 396/3/4 406/3/4
f 397/3/4 398/3/4 407/3/4
f 407/3/4 398/3/4 408/3/4
f 409/1/4 410/1/4 411/1/4
f 411/1/4 410/1/4 412/1/4
f 413/1/4 414/1/4 415/1/4
f 413/1/4 415/1/4 423/1/4
f 415/1/4 416/1/4 423/1/4
f 423/1/4 416/1/4 424/1/4
f 417/1/4 418/1/4 425/1/4
f 425/1/4 418/1/4 426/1/4
f 419/1/4 420/1/4 427/1/4
f 427/1/4 420/1/4 428/1/4
f 421/1/4 422/1/4 429/1/4
f 429/1/4 422/1/4 430/1/4
f 413/1/4 423/1/4 431/1/4
f 431/1/4 423/1/4 432/1/4
f 433/3/4 434/3/4 435/3/4
f 435/3/4 434/3/4 436/3/4
f 436/3/4 434/3/4 437/3/4
f 437/3/4 434/3/4 438/3/4
f 438/3/4 434/3/4 439/3/4
f 439/3/4 434/3/4 440/3/4
f 440/3/4 434/3/4 441/3/4
f 441/3/4 434/3/4 442/3/4
f 433/3/4 435/3/4 443/3/4
f 435/2/4 436/2/4 444/2/4
f 443/3/4 435/3/4 444/3/4
f 436/3/4 437/3/4 445/3/4
f 444/2/4 436/2/4 445/2/4
f 437/2/4 438/2/4 446/2/4
f 445/3/4 437/3/4 446/3/4
f 438/3/4 439/3/4 447/3/4
f 446/2/4 438/2/4 447/2/4
f 439/2/4 440/2/4 448/2/4
f 447/3/4 439/3/4 448/3/4
f 440/3/4 441/3/4 449/3/4
f 448/2/4 440/2/4 449/2/4
f 441/2/4 442/2/4 450/2/4
f 449/3/4 441/3/4 450/3/4
f 442/3/4 434/3/4 451/3/4
f 450/2/4 442/2/4 451/2/4
f 451/3/4 434/3/4 452/3/4
f 444/4/4 445/4/4 454/4/4
f 454/4/4 445/4/4 455/4/4
f 446/4/4 447/4/4 456/4/4
f 456/4/4 447/4/4 457/4/4
f 448/4/4 449/4/4 458/4/4
f 458/4/4 449/4/4 459/4/4
f 450/4/4 451/4/4 460/4/4
f 460/4/4 451/4/4 461/4/4
f 454/2/4 455/2/4 463/2/4
f 453/3/4 454/3/4 463/3/4
f 455/3/4 456/3/4 464/3/4
f 463/2/4 455/2/4 464/2/4
f 456/2/4 457/2/4 465/2/4
f 464/3/4 456/3/4 465/3/4
f 457/3/4 458/3/4 466/3/4
f 465/2/4 457/2/4 466/2/4
f 458/2/4 459/2/4 467/2/4
f 466/3/4 458/3/4 467/3/4
f 459/3/4 460/3/4 468/3/4
f 467/2/4 459/2/4 468/2/4
f 460/2/4 461/2/4 469/2/4
f 468/3/4 460/3/4 469/3/4
f 461/3/4 462/3/4 470/3/4
f 469/2/4 461/2/4 470/2/4
f 465/3/4 466/3/4 471/3/4
f 468/3/4 469/3/4 471/3/4
f 469/3/4 470/3/4 471/3/4
f 466/3/4 467/3/4 471/3/4
f 463/3/4 464/3/4 471/3/4
f 464/3/4 465/3/4 471/3/4
f 467/3/4 468/3/4 471/3/4
f 453/3/4 463/3/4 471/3/4
f 470/3/4 462/3/4 472/3/4
f 471/3/4 470/3/4 472/3/4
f 475/1/5 474/1/5 473/1/5
f 476/1/5 474/1/5 475/1/5
f 481/3/5 478/3/5 477/3/5
f 482/3/5 478/3/5 481/3/5
f 483/3/5 480/3/5 479/3/5
f 484/3/5 480/3/5 483/3/5
f 485/3/5 481/3/5 477/3/5
f 486/3/5 481/3/5 485/3/5
f 487/3/5 480/3/5 484/3/5
f 488/3/5 480/3/5 487/3/5
f 493/3/5 490/3/5 489/3/5
f 496/3/5 492/3/5 491/3/5
f 497/3/5 494/3/5 493/3/5
f 497/3/5 493/3/5 489/3/5
f 498/3/5 494/3/5 497/3/5
f 499/3/5 496/3/5 495/3/5
f 500/3/5 492/3/5 496/3/5
f 500/3/5 496/3/5 499/3/5
f 503/4/5 502/4/5 501/4/5
f 504/4/5 502/4/5 503/4/5
f 509/4/5 506/4/5 505/4/5
f 510/4/5 506/4/5 509/4/5
f 511/4/5 508/4/5 507/4/5
f 512/4/5 508/4/5 511/4/5
f 515/4/5 514/4/5 513/4/5
f 516/4/5 514/4/5 515/4/5
f 519/4/5 518/4/5 517/4/5
f 520/4/5 518/4/5 519/4/5
f 525/4/5 522/4/5 521/4/5
f 526/4/5 522/4/5 525/4/5
f 527/4/5 524/4/5 523/4/5
f 528/4/5 524/4/5 527/4/5
f 531/4/5 530/4/5 529/4/5
f 532/4/5 530/4/5 531/4/5
f 535/4/5 534/4/5 533/4/5
f 536/4/5 534/4/5 535/4/5
f 541/4/5 538/4/5 537/4/5
f 542/4/5 538/4/5 541/4/5
f 543/4/5 540/4/5 539/4/5
f 544/4/5 540/4/5 543/4/5
f 547/4/5 546/4/5 545/4/5
f 548/4/5 546/4/5 547/4/5
f 551/4/5 550/4/5 549/4/5
f 552/4/5 550/4/5 551/4/5
f 557/4/5 554/4/5 553/4/5
f 558/4/5 554/4/5 557/4/5
f 559/4/5 556/4/5 555/4/5
f 560/4/5 556/4/5 559/4/5
f 563/4/5 562/4/5 561/4/5
f 564/4/5 562/4/5 563/4/5
f 565/4/6 566/4/6 567/4/6
f 567/4/6 566/4/6 568/4/6
f 569/4/6 570/4/6 573/4/6
f 573/4/6 570/4/6 574/4/6
f 571/4/6 572/4/6 575/4/6
f 575/4/6 572/4/6 576/4/6
f 577/4/6 578/4/6 579/4/6
f 579/4/6 578/4/6 580/4/6
f 581/4/6 582/4/6 583/4/6
f 583/4/6 582/4/6 584/4/6
f 585/4/6 586/4/6 589/4/6
f 589/4/6 586/4/6 590/4/6
f 587/4/6 588/4/6 591/4/6
f 591/4/6 588/4/6 592/4/6
f 593/4/6 594/4/6 595/4/6
f 595/4/6 594/4/6 596/4/6
f 597/4/6 598/4/6 599/4/6
f 599/4/6 598/4/6 600/4/6
f 601/4/6 602/4/6 605/4/6
f 605/4/6 602/4/6 606/4/6
f 603/4/6 604/4/6 607/4/6
f 607/4/6 604/4/6 608/4/6
f 609/4/6 610/4/6 611/4/6
f 611/4/6 610/4/6 612/4/6
f 613/1/6 614/1/6 619/1/6
f 617/1/6 618/1/6 619/1/6
f 616/1/6 617/1/6 619/1/6
f 615/1/6 616/1/6 619/1/6
f 614/1/6 615/1/6 619/1/6
f 619/1/6 618/1/6 620/1/6
f 619/1/6 620/1/6 621/1/6
f 621/1/6 620/1/6 622/1/6
f 621/1/6 622/1/6 623/1/6
f 623/1/6 622/1/6 624/1/6
f 621/1/6 623/1/6 625/1/6
f 624/1/6 622/1/6 626/1/6
f 621/1/6 625/1/6 627/1/6
f 625/1/6 626/1/6 627/1/6
f 626/1/6 622/1/6 628/1/6
f 627/1/6 626/1/6 628/1/6
f 627/1/6 628/1/6 629/1/6
f 629/1/6 628/1/6 630/1/6
f 629/1/6 630/1/6 631/1/6
f 631/1/6 630/1/6 632/1/6
f 632/1/6 630/1/6 633/1/6
f 633/1/6 630/1/6 634/1/6
f 634/1/6 630/1/6 635/1/6
f 635/1/6 630/1/6 636/1/6
f 637/4/6 638/4/6 639/4/6
f 639/4/6 638/4/6 640/4/6
f 641/4/6 642/4/6 645/4/6
f 645/4/6 642/4/6 646/4/6
f 643/4/6 644/4/6 647/4/6
f 647/4/6 644/4/6 648/4/6
f 649/4/6 650/4/6 651/4/6
f 651/4/6 650/4/6 652/4/6
f 653/3/6 654/3/6 657/3/6
f 657/3/6 654/3/6 658/3/6
f 655/3/6 656/3/6 659/3/6
f 659/3/6 656/3/6 660/3/6
f 653/3/6 657/3/6 661/3/6
f 661/3/6 657/3/6 662/3/6
f 660/3/6 656/3/6 663/3/6
f 663/3/6 656/3/6 664/3/6
f 665/1/6 666/1/6 667/1/6
f 667/1/6 666/1/6 668/1/6
f 669/3/6 670/3/6 673/3/6
f 671/3/6 672/3/6 676/3/6
f 673/3/6 674/3/6 677/3/6
f 669/3/6 673/3/6 677/3/6
f 677/3/6 674/3/6 678/3/6
f 675/3/6 676/3/6 679/3/6
f 676/3/6 672/3/6 680/3/6
f 679/3/6 676/3/6 680/3/6
