# MagicaVoxel @ Ephtracy

# material
mtllib Base.mtl
usemtl palette

# normals
vn -1 0 0
vn 1 0 0
vn 0 0 1
vn 0 0 -1
vn 0 -1 0
vn 0 1 0

# texcoords
vt 0.548828 0.5
vt 0.822266 0.5
vt 0.826172 0.5
vt 0.833984 0.5

# verts
v -5 0 5
v -5 0 1
v -5 0 -1
v -5 0 -5
v -5 2 5
v -5 2 4
v -5 2 2
v -5 2 1
v -5 2 -1
v -5 2 -2
v -5 2 -4
v -5 2 -5
v -5 4 5
v -5 4 4
v -5 4 3
v -5 4 -3
v -5 4 -4
v -5 4 -5
v -5 6 3
v -5 6 2
v -5 6 1
v -5 6 -1
v -5 6 -2
v -5 6 -3
v -5 8 3
v -5 8 1
v -5 8 -1
v -5 8 -3
v -5 10 5
v -5 10 3
v -5 10 -3
v -5 10 -5
v -4 2 4
v -4 2 2
v -4 2 1
v -4 2 -1
v -4 2 -2
v -4 2 -4
v -4 4 4
v -4 4 3
v -4 4 -3
v -4 4 -4
v -4 6 3
v -4 6 2
v -4 6 1
v -4 6 -1
v -4 6 -2
v -4 6 -3
v -4 8 3
v -4 8 1
v -4 8 -1
v -4 8 -3
v -4 9 3
v -4 9 -3
v -2 2 5
v -2 2 4
v -2 2 -4
v -2 2 -5
v -2 6 5
v -2 6 4
v -2 6 -4
v -2 6 -5
v -2 9 2
v -2 9 -2
v -2 10 2
v -2 10 -2
v 1 2 5
v 1 2 4
v 1 2 -4
v 1 2 -5
v 1 6 5
v 1 6 4
v 1 6 -4
v 1 6 -5
v 3 4 5
v 3 4 4
v 3 4 -4
v 3 4 -5
v 3 6 5
v 3 6 4
v 3 6 -4
v 3 6 -5
v 3 8 5
v 3 8 4
v 3 8 -4
v 3 8 -5
v 3 9 4
v 3 9 -4
v 3 10 5
v 3 10 4
v 3 10 -4
v 3 10 -5
v 4 2 5
v 4 2 4
v 4 2 -4
v 4 2 -5
v 4 4 5
v 4 4 4
v 4 4 -4
v 4 4 -5
v 4 9 4
v 4 9 3
v 4 9 -3
v 4 9 -4
v 4 10 4
v 4 10 3
v 4 10 -3
v 4 10 -4
v -4 2 5
v -4 2 4
v -4 2 -4
v -4 2 -5
v -4 4 5
v -4 4 4
v -4 4 -4
v -4 4 -5
v -4 9 4
v -4 9 3
v -4 9 -3
v -4 9 -4
v -4 10 4
v -4 10 3
v -4 10 -3
v -4 10 -4
v -3 4 5
v -3 4 4
v -3 4 -4
v -3 4 -5
v -3 6 5
v -3 6 4
v -3 6 -4
v -3 6 -5
v -3 8 5
v -3 8 4
v -3 8 -4
v -3 8 -5
v -3 9 4
v -3 9 -4
v -3 10 5
v -3 10 4
v -3 10 -4
v -3 10 -5
v -1 2 5
v -1 2 4
v -1 2 -4
v -1 2 -5
v -1 6 5
v -1 6 4
v -1 6 -4
v -1 6 -5
v 2 2 5
v 2 2 4
v 2 2 -4
v 2 2 -5
v 2 6 5
v 2 6 4
v 2 6 -4
v 2 6 -5
v 2 9 2
v 2 9 -2
v 2 10 2
v 2 10 -2
v 4 2 4
v 4 2 2
v 4 2 1
v 4 2 -1
v 4 2 -2
v 4 2 -4
v 4 4 4
v 4 4 3
v 4 4 -3
v 4 4 -4
v 4 6 3
v 4 6 2
v 4 6 1
v 4 6 -1
v 4 6 -2
v 4 6 -3
v 4 8 3
v 4 8 1
v 4 8 -1
v 4 8 -3
v 4 9 3
v 4 9 -3
v 5 0 5
v 5 0 1
v 5 0 -1
v 5 0 -5
v 5 2 5
v 5 2 4
v 5 2 2
v 5 2 1
v 5 2 -1
v 5 2 -2
v 5 2 -4
v 5 2 -5
v 5 4 5
v 5 4 4
v 5 4 3
v 5 4 -3
v 5 4 -4
v 5 4 -5
v 5 6 3
v 5 6 2
v 5 6 1
v 5 6 -1
v 5 6 -2
v 5 6 -3
v 5 8 3
v 5 8 1
v 5 8 -1
v 5 8 -3
v 5 10 5
v 5 10 3
v 5 10 -3
v 5 10 -5
v -5 0 5
v -5 2 5
v -5 4 5
v -5 10 5
v -4 2 5
v -4 4 5
v -3 4 5
v -3 6 5
v -3 8 5
v -3 10 5
v -2 2 5
v -2 6 5
v -1 0 5
v -1 2 5
v -1 6 5
v -1 8 5
v 1 0 5
v 1 2 5
v 1 6 5
v 1 8 5
v 2 2 5
v 2 6 5
v 3 4 5
v 3 6 5
v 3 8 5
v 3 10 5
v 4 2 5
v 4 4 5
v 5 0 5
v 5 2 5
v 5 4 5
v 5 10 5
v -4 2 4
v -4 4 4
v -3 4 4
v -3 6 4
v -3 8 4
v -3 9 4
v -2 2 4
v -2 6 4
v -1 2 4
v -1 6 4
v -1 8 4
v 1 2 4
v 1 6 4
v 1 8 4
v 2 2 4
v 2 6 4
v 3 4 4
v 3 6 4
v 3 8 4
v 3 9 4
v 4 2 4
v 4 4 4
v -5 2 2
v -5 6 2
v -4 2 2
v -4 6 2
v -2 9 2
v -2 10 2
v 2 9 2
v 2 10 2
v 4 2 2
v 4 6 2
v 5 2 2
v 5 6 2
v -5 2 -1
v -5 6 -1
v -4 2 -1
v -4 6 -1
v 4 2 -1
v 4 6 -1
v 5 2 -1
v 5 6 -1
v -5 4 -3
v -5 6 -3
v -5 8 -3
v -5 10 -3
v -4 4 -3
v -4 6 -3
v -4 8 -3
v -4 9 -3
v -4 10 -3
v 4 4 -3
v 4 6 -3
v 4 8 -3
v 4 9 -3
v 4 10 -3
v 5 4 -3
v 5 6 -3
v 5 8 -3
v 5 10 -3
v -5 2 -4
v -5 4 -4
v -4 2 -4
v -4 4 -4
v -4 9 -4
v -4 10 -4
v -3 9 -4
v -3 10 -4
v 3 9 -4
v 3 10 -4
v 4 2 -4
v 4 4 -4
v 4 9 -4
v 4 10 -4
v 5 2 -4
v 5 4 -4
v -5 2 4
v -5 4 4
v -4 2 4
v -4 4 4
v -4 9 4
v -4 10 4
v -3 9 4
v -3 10 4
v 3 9 4
v 3 10 4
v 4 2 4
v 4 4 4
v 4 9 4
v 4 10 4
v 5 2 4
v 5 4 4
v -5 4 3
v -5 6 3
v -5 8 3
v -5 10 3
v -4 4 3
v -4 6 3
v -4 8 3
v -4 9 3
v -4 10 3
v 4 4 3
v 4 6 3
v 4 8 3
v 4 9 3
v 4 10 3
v 5 4 3
v 5 6 3
v 5 8 3
v 5 10 3
v -5 2 1
v -5 6 1
v -4 2 1
v -4 6 1
v 4 2 1
v 4 6 1
v 5 2 1
v 5 6 1
v -5 2 -2
v -5 6 -2
v -4 2 -2
v -4 6 -2
v -2 9 -2
v -2 10 -2
v 2 9 -2
v 2 10 -2
v 4 2 -2
v 4 6 -2
v 5 2 -2
v 5 6 -2
v -4 2 -4
v -4 4 -4
v -3 4 -4
v -3 6 -4
v -3 8 -4
v -3 9 -4
v -2 2 -4
v -2 6 -4
v -1 2 -4
v -1 6 -4
v -1 8 -4
v 1 2 -4
v 1 6 -4
v 1 8 -4
v 2 2 -4
v 2 6 -4
v 3 4 -4
v 3 6 -4
v 3 8 -4
v 3 9 -4
v 4 2 -4
v 4 4 -4
v -5 0 -5
v -5 2 -5
v -5 4 -5
v -5 10 -5
v -4 2 -5
v -4 4 -5
v -3 4 -5
v -3 6 -5
v -3 8 -5
v -3 10 -5
v -2 2 -5
v -2 6 -5
v -1 0 -5
v -1 2 -5
v -1 6 -5
v -1 8 -5
v 1 0 -5
v 1 2 -5
v 1 6 -5
v 1 8 -5
v 2 2 -5
v 2 6 -5
v 3 4 -5
v 3 6 -5
v 3 8 -5
v 3 10 -5
v 4 2 -5
v 4 4 -5
v 5 0 -5
v 5 2 -5
v 5 4 -5
v 5 10 -5
v -5 0 5
v -1 0 5
v 1 0 5
v 5 0 5
v -4 0 4
v -1 0 4
v 1 0 4
v 4 0 4
v -5 0 1
v -4 0 1
v 4 0 1
v 5 0 1
v -5 0 -1
v -4 0 -1
v 4 0 -1
v 5 0 -1
v -4 0 -4
v -1 0 -4
v 1 0 -4
v 4 0 -4
v -5 0 -5
v -1 0 -5
v 1 0 -5
v 5 0 -5
v -4 4 5
v -3 4 5
v 3 4 5
v 4 4 5
v -5 4 4
v -4 4 4
v -3 4 4
v 3 4 4
v 4 4 4
v 5 4 4
v -5 4 3
v -4 4 3
v 4 4 3
v 5 4 3
v -5 4 -3
v -4 4 -3
v 4 4 -3
v 5 4 -3
v -5 4 -4
v -4 4 -4
v -3 4 -4
v 3 4 -4
v 4 4 -4
v 5 4 -4
v -4 4 -5
v -3 4 -5
v 3 4 -5
v 4 4 -5
v -3 6 5
v -2 6 5
v -1 6 5
v 1 6 5
v 2 6 5
v 3 6 5
v -3 6 4
v -2 6 4
v -1 6 4
v 1 6 4
v 2 6 4
v 3 6 4
v -5 6 3
v -4 6 3
v 4 6 3
v 5 6 3
v -5 6 2
v -4 6 2
v 4 6 2
v 5 6 2
v -5 6 1
v -4 6 1
v 4 6 1
v 5 6 1
v -5 6 -1
v -4 6 -1
v 4 6 -1
v 5 6 -1
v -5 6 -2
v -4 6 -2
v 4 6 -2
v 5 6 -2
v -5 6 -3
v -4 6 -3
v 4 6 -3
v 5 6 -3
v -3 6 -4
v -2 6 -4
v -1 6 -4
v 1 6 -4
v 2 6 -4
v 3 6 -4
v -3 6 -5
v -2 6 -5
v -1 6 -5
v 1 6 -5
v 2 6 -5
v 3 6 -5
v -4 2 5
v -2 2 5
v -1 2 5
v 1 2 5
v 2 2 5
v 4 2 5
v -5 2 4
v -4 2 4
v -2 2 4
v -1 2 4
v 1 2 4
v 2 2 4
v 4 2 4
v 5 2 4
v -5 2 2
v -4 2 2
v 4 2 2
v 5 2 2
v -5 2 1
v -4 2 1
v 4 2 1
v 5 2 1
v -5 2 -1
v -4 2 -1
v 4 2 -1
v 5 2 -1
v -5 2 -2
v -4 2 -2
v 4 2 -2
v 5 2 -2
v -5 2 -4
v -4 2 -4
v -2 2 -4
v -1 2 -4
v 1 2 -4
v 2 2 -4
v 4 2 -4
v 5 2 -4
v -4 2 -5
v -2 2 -5
v -1 2 -5
v 1 2 -5
v 2 2 -5
v 4 2 -5
v -3 8 5
v -1 8 5
v 1 8 5
v 3 8 5
v -3 8 4
v -1 8 4
v 1 8 4
v 3 8 4
v -5 8 3
v -4 8 3
v 4 8 3
v 5 8 3
v -5 8 1
v -4 8 1
v 4 8 1
v 5 8 1
v -5 8 -1
v -4 8 -1
v 4 8 -1
v 5 8 -1
v -5 8 -3
v -4 8 -3
v 4 8 -3
v 5 8 -3
v -3 8 -4
v -1 8 -4
v 1 8 -4
v 3 8 -4
v -3 8 -5
v -1 8 -5
v 1 8 -5
v 3 8 -5
v -4 9 4
v -3 9 4
v 3 9 4
v 4 9 4
v -4 9 3
v 4 9 3
v -2 9 2
v 2 9 2
v -2 9 -2
v 2 9 -2
v -4 9 -3
v 4 9 -3
v -4 9 -4
v -3 9 -4
v 3 9 -4
v 4 9 -4
v -5 10 5
v -3 10 5
v 3 10 5
v 5 10 5
v -4 10 4
v -3 10 4
v 3 10 4
v 4 10 4
v -5 10 3
v -4 10 3
v 4 10 3
v 5 10 3
v -2 10 2
v 2 10 2
v -2 10 -2
v 2 10 -2
v -5 10 -3
v -4 10 -3
v 4 10 -3
v 5 10 -3
v -4 10 -4
v -3 10 -4
v 3 10 -4
v 4 10 -4
v -5 10 -5
v -3 10 -5
v 3 10 -5
v 5 10 -5

# faces
f 5/3/1 2/3/1 1/3/1
f 6/3/1 2/3/1 5/3/1
f 7/3/1 2/3/1 6/3/1
f 8/2/1 3/2/1 2/2/1
f 8/3/1 2/3/1 7/3/1
f 9/3/1 4/3/1 3/3/1
f 9/2/1 3/2/1 8/2/1
f 10/3/1 4/3/1 9/3/1
f 11/3/1 4/3/1 10/3/1
f 12/3/1 4/3/1 11/3/1
f 13/4/1 6/4/1 5/4/1
f 14/4/1 6/4/1 13/4/1
f 17/4/1 12/4/1 11/4/1
f 18/4/1 12/4/1 17/4/1
f 19/3/1 15/3/1 14/3/1
f 19/3/1 14/3/1 13/3/1
f 20/4/1 8/4/1 7/4/1
f 21/4/1 8/4/1 20/4/1
f 22/4/1 10/4/1 9/4/1
f 23/4/1 10/4/1 22/4/1
f 24/3/1 18/3/1 17/3/1
f 24/3/1 17/3/1 16/3/1
f 25/3/1 19/3/1 13/3/1
f 25/3/1 21/3/1 20/3/1
f 25/3/1 20/3/1 19/3/1
f 26/2/1 22/2/1 21/2/1
f 26/3/1 21/3/1 25/3/1
f 27/3/1 24/3/1 23/3/1
f 27/2/1 22/2/1 26/2/1
f 27/3/1 23/3/1 22/3/1
f 28/3/1 18/3/1 24/3/1
f 28/3/1 24/3/1 27/3/1
f 29/3/1 25/3/1 13/3/1
f 30/3/1 25/3/1 29/3/1
f 31/3/1 18/3/1 28/3/1
f 32/3/1 18/3/1 31/3/1
f 39/1/1 34/1/1 33/1/1
f 40/1/1 34/1/1 39/1/1
f 41/1/1 38/1/1 37/1/1
f 42/1/1 38/1/1 41/1/1
f 43/1/1 34/1/1 40/1/1
f 44/1/1 34/1/1 43/1/1
f 45/1/1 36/1/1 35/1/1
f 46/1/1 36/1/1 45/1/1
f 47/1/1 41/1/1 37/1/1
f 48/1/1 41/1/1 47/1/1
f 53/1/1 50/1/1 49/1/1
f 53/1/1 52/1/1 51/1/1
f 53/1/1 51/1/1 50/1/1
f 54/1/1 52/1/1 53/1/1
f 59/4/1 56/4/1 55/4/1
f 60/4/1 56/4/1 59/4/1
f 61/4/1 58/4/1 57/4/1
f 62/4/1 58/4/1 61/4/1
f 65/1/1 64/1/1 63/1/1
f 66/1/1 64/1/1 65/1/1
f 71/4/1 68/4/1 67/4/1
f 72/4/1 68/4/1 71/4/1
f 73/4/1 70/4/1 69/4/1
f 74/4/1 70/4/1 73/4/1
f 79/3/1 76/3/1 75/3/1
f 80/3/1 76/3/1 79/3/1
f 81/3/1 78/3/1 77/3/1
f 82/3/1 78/3/1 81/3/1
f 87/3/1 84/3/1 83/3/1
f 88/3/1 86/3/1 85/3/1
f 89/3/1 87/3/1 83/3/1
f 90/3/1 87/3/1 89/3/1
f 91/3/1 86/3/1 88/3/1
f 92/3/1 86/3/1 91/3/1
f 97/4/1 94/4/1 93/4/1
f 98/4/1 94/4/1 97/4/1
f 99/4/1 96/4/1 95/4/1
f 100/4/1 96/4/1 99/4/1
f 105/3/1 102/3/1 101/3/1
f 106/3/1 102/3/1 105/3/1
f 107/3/1 104/3/1 103/3/1
f 108/3/1 104/3/1 107/3/1
f 109/4/2 110/4/2 113/4/2
f 113/4/2 110/4/2 114/4/2
f 111/4/2 112/4/2 115/4/2
f 115/4/2 112/4/2 116/4/2
f 117/3/2 118/3/2 121/3/2
f 121/3/2 118/3/2 122/3/2
f 119/3/2 120/3/2 123/3/2
f 123/3/2 120/3/2 124/3/2
f 125/3/2 126/3/2 129/3/2
f 129/3/2 126/3/2 130/3/2
f 127/3/2 128/3/2 131/3/2
f 131/3/2 128/3/2 132/3/2
f 133/3/2 134/3/2 137/3/2
f 135/3/2 136/3/2 138/3/2
f 133/3/2 137/3/2 139/3/2
f 139/3/2 137/3/2 140/3/2
f 138/3/2 136/3/2 141/3/2
f 141/3/2 136/3/2 142/3/2
f 143/4/2 144/4/2 147/4/2
f 147/4/2 144/4/2 148/4/2
f 145/4/2 146/4/2 149/4/2
f 149/4/2 146/4/2 150/4/2
f 151/4/2 152/4/2 155/4/2
f 155/4/2 152/4/2 156/4/2
f 153/4/2 154/4/2 157/4/2
f 157/4/2 154/4/2 158/4/2
f 159/1/2 160/1/2 161/1/2
f 161/1/2 160/1/2 162/1/2
f 163/1/2 164/1/2 169/1/2
f 169/1/2 164/1/2 170/1/2
f 167/1/2 168/1/2 171/1/2
f 171/1/2 168/1/2 172/1/2
f 170/1/2 164/1/2 173/1/2
f 173/1/2 164/1/2 174/1/2
f 165/1/2 166/1/2 175/1/2
f 175/1/2 166/1/2 176/1/2
f 167/1/2 171/1/2 177/1/2
f 177/1/2 171/1/2 178/1/2
f 179/1/2 180/1/2 183/1/2
f 181/1/2 182/1/2 183/1/2
f 180/1/2 181/1/2 183/1/2
f 183/1/2 182/1/2 184/1/2
f 185/3/2 186/3/2 189/3/2
f 189/3/2 186/3/2 190/3/2
f 190/3/2 186/3/2 191/3/2
f 186/2/2 187/2/2 192/2/2
f 191/3/2 186/3/2 192/3/2
f 187/3/2 188/3/2 193/3/2
f 192/2/2 187/2/2 193/2/2
f 193/3/2 188/3/2 194/3/2
f 194/3/2 188/3/2 195/3/2
f 195/3/2 188/3/2 196/3/2
f 189/4/2 190/4/2 197/4/2
f 197/4/2 190/4/2 198/4/2
f 195/4/2 196/4/2 201/4/2
f 201/4/2 196/4/2 202/4/2
f 198/3/2 199/3/2 203/3/2
f 197/3/2 198/3/2 203/3/2
f 191/4/2 192/4/2 204/4/2
f 204/4/2 192/4/2 205/4/2
f 193/4/2 194/4/2 206/4/2
f 206/4/2 194/4/2 207/4/2
f 201/3/2 202/3/2 208/3/2
f 200/3/2 201/3/2 208/3/2
f 197/3/2 203/3/2 209/3/2
f 204/3/2 205/3/2 209/3/2
f 203/3/2 204/3/2 209/3/2
f 205/2/2 206/2/2 210/2/2
f 209/3/2 205/3/2 210/3/2
f 207/3/2 208/3/2 211/3/2
f 210/2/2 206/2/2 211/2/2
f 206/3/2 207/3/2 211/3/2
f 208/3/2 202/3/2 212/3/2
f 211/3/2 208/3/2 212/3/2
f 197/3/2 209/3/2 213/3/2
f 213/3/2 209/3/2 214/3/2
f 212/3/2 202/3/2 215/3/2
f 215/3/2 202/3/2 216/3/2
f 221/3/3 218/3/3 217/3/3
f 221/4/3 219/4/3 218/4/3
f 222/3/3 220/3/3 219/3/3
f 222/4/3 219/4/3 221/4/3
f 223/3/3 220/3/3 222/3/3
f 224/3/3 220/3/3 223/3/3
f 225/3/3 220/3/3 224/3/3
f 226/3/3 220/3/3 225/3/3
f 227/3/3 221/3/3 217/3/3
f 228/3/3 225/3/3 224/3/3
f 229/3/3 227/3/3 217/3/3
f 230/4/3 228/4/3 227/4/3
f 230/3/3 227/3/3 229/3/3
f 231/3/3 225/3/3 228/3/3
f 231/4/3 228/4/3 230/4/3
f 232/3/3 225/3/3 231/3/3
f 233/2/3 230/2/3 229/2/3
f 234/2/3 230/2/3 233/2/3
f 235/2/3 232/2/3 231/2/3
f 236/2/3 232/2/3 235/2/3
f 237/3/3 234/3/3 233/3/3
f 237/4/3 235/4/3 234/4/3
f 238/3/3 236/3/3 235/3/3
f 238/4/3 235/4/3 237/4/3
f 240/3/3 236/3/3 238/3/3
f 241/3/3 236/3/3 240/3/3
f 243/3/3 237/3/3 233/3/3
f 244/3/3 241/3/3 240/3/3
f 244/3/3 240/3/3 239/3/3
f 244/3/3 242/3/3 241/3/3
f 245/3/3 243/3/3 233/3/3
f 246/4/3 244/4/3 243/4/3
f 246/3/3 243/3/3 245/3/3
f 247/3/3 242/3/3 244/3/3
f 247/4/3 244/4/3 246/4/3
f 248/3/3 242/3/3 247/3/3
f 251/1/3 250/1/3 249/1/3
f 255/1/3 251/1/3 249/1/3
f 255/1/3 252/1/3 251/1/3
f 256/1/3 252/1/3 255/1/3
f 259/1/3 254/1/3 253/1/3
f 260/1/3 258/1/3 257/1/3
f 261/1/3 258/1/3 260/1/3
f 262/1/3 254/1/3 259/1/3
f 265/1/3 264/1/3 263/1/3
f 266/1/3 264/1/3 265/1/3
f 267/1/3 254/1/3 262/1/3
f 268/1/3 254/1/3 267/1/3
f 269/1/3 265/1/3 263/1/3
f 270/1/3 265/1/3 269/1/3
f 273/4/3 272/4/3 271/4/3
f 274/4/3 272/4/3 273/4/3
f 277/1/3 276/1/3 275/1/3
f 278/1/3 276/1/3 277/1/3
f 281/4/3 280/4/3 279/4/3
f 282/4/3 280/4/3 281/4/3
f 285/4/3 284/4/3 283/4/3
f 286/4/3 284/4/3 285/4/3
f 289/4/3 288/4/3 287/4/3
f 290/4/3 288/4/3 289/4/3
f 295/3/3 292/3/3 291/3/3
f 296/3/3 292/3/3 295/3/3
f 297/3/3 294/3/3 293/3/3
f 298/3/3 294/3/3 297/3/3
f 299/3/3 294/3/3 298/3/3
f 305/3/3 301/3/3 300/3/3
f 306/3/3 301/3/3 305/3/3
f 307/3/3 304/3/3 303/3/3
f 307/3/3 303/3/3 302/3/3
f 308/3/3 304/3/3 307/3/3
f 311/4/3 310/4/3 309/4/3
f 312/4/3 310/4/3 311/4/3
f 315/3/3 314/3/3 313/3/3
f 316/3/3 314/3/3 315/3/3
f 321/3/3 318/3/3 317/3/3
f 322/3/3 318/3/3 321/3/3
f 323/4/3 320/4/3 319/4/3
f 324/4/3 320/4/3 323/4/3
f 325/4/4 326/4/4 327/4/4
f 327/4/4 326/4/4 328/4/4
f 329/3/4 330/3/4 331/3/4
f 331/3/4 330/3/4 332/3/4
f 333/3/4 334/3/4 337/3/4
f 337/3/4 334/3/4 338/3/4
f 335/4/4 336/4/4 339/4/4
f 339/4/4 336/4/4 340/4/4
f 341/3/4 342/3/4 345/3/4
f 345/3/4 342/3/4 346/3/4
f 343/3/4 344/3/4 347/3/4
f 347/3/4 344/3/4 348/3/4
f 348/3/4 344/3/4 349/3/4
f 350/3/4 351/3/4 355/3/4
f 355/3/4 351/3/4 356/3/4
f 353/3/4 354/3/4 357/3/4
f 352/3/4 353/3/4 357/3/4
f 357/3/4 354/3/4 358/3/4
f 359/4/4 360/4/4 361/4/4
f 361/4/4 360/4/4 362/4/4
f 363/4/4 364/4/4 365/4/4
f 365/4/4 364/4/4 366/4/4
f 367/4/4 368/4/4 369/4/4
f 369/4/4 368/4/4 370/4/4
f 371/1/4 372/1/4 373/1/4
f 373/1/4 372/1/4 374/1/4
f 375/4/4 376/4/4 377/4/4
f 377/4/4 376/4/4 378/4/4
f 379/1/4 380/1/4 381/1/4
f 379/1/4 381/1/4 385/1/4
f 381/1/4 382/1/4 385/1/4
f 385/1/4 382/1/4 386/1/4
f 383/1/4 384/1/4 389/1/4
f 387/1/4 388/1/4 390/1/4
f 390/1/4 388/1/4 391/1/4
f 389/1/4 384/1/4 392/1/4
f 393/1/4 394/1/4 395/1/4
f 395/1/4 394/1/4 396/1/4
f 392/1/4 384/1/4 397/1/4
f 397/1/4 384/1/4 398/1/4
f 393/1/4 395/1/4 399/1/4
f 399/1/4 395/1/4 400/1/4
f 401/3/4 402/3/4 405/3/4
f 402/4/4 403/4/4 405/4/4
f 403/3/4 404/3/4 406/3/4
f 405/4/4 403/4/4 406/4/4
f 406/3/4 404/3/4 407/3/4
f 407/3/4 404/3/4 408/3/4
f 408/3/4 404/3/4 409/3/4
f 409/3/4 404/3/4 410/3/4
f 401/3/4 405/3/4 411/3/4
f 408/3/4 409/3/4 412/3/4
f 401/3/4 411/3/4 413/3/4
f 411/4/4 412/4/4 414/4/4
f 413/3/4 411/3/4 414/3/4
f 412/3/4 409/3/4 415/3/4
f 414/4/4 412/4/4 415/4/4
f 415/3/4 409/3/4 416/3/4
f 413/2/4 414/2/4 417/2/4
f 417/2/4 414/2/4 418/2/4
f 415/2/4 416/2/4 419/2/4
f 419/2/4 416/2/4 420/2/4
f 417/3/4 418/3/4 421/3/4
f 418/4/4 419/4/4 421/4/4
f 419/3/4 420/3/4 422/3/4
f 421/4/4 419/4/4 422/4/4
f 422/3/4 420/3/4 424/3/4
f 424/3/4 420/3/4 425/3/4
f 417/3/4 421/3/4 427/3/4
f 424/3/4 425/3/4 428/3/4
f 423/3/4 424/3/4 428/3/4
f 425/3/4 426/3/4 428/3/4
f 417/3/4 427/3/4 429/3/4
f 427/4/4 428/4/4 430/4/4
f 429/3/4 427/3/4 430/3/4
f 428/3/4 426/3/4 431/3/4
f 430/4/4 428/4/4 431/4/4
f 431/3/4 426/3/4 432/3/4
f 437/3/5 434/3/5 433/3/5
f 438/2/5 435/2/5 434/2/5
f 438/3/5 434/3/5 437/3/5
f 439/3/5 436/3/5 435/3/5
f 439/2/5 435/2/5 438/2/5
f 440/3/5 436/3/5 439/3/5
f 441/3/5 437/3/5 433/3/5
f 442/1/5 438/1/5 437/1/5
f 442/3/5 437/3/5 441/3/5
f 442/1/5 439/1/5 438/1/5
f 442/1/5 440/1/5 439/1/5
f 443/3/5 436/3/5 440/3/5
f 443/1/5 440/1/5 442/1/5
f 444/3/5 436/3/5 443/3/5
f 445/2/5 442/2/5 441/2/5
f 446/1/5 443/1/5 442/1/5
f 446/2/5 442/2/5 445/2/5
f 447/2/5 444/2/5 443/2/5
f 447/1/5 443/1/5 446/1/5
f 448/2/5 444/2/5 447/2/5
f 449/3/5 446/3/5 445/3/5
f 449/1/5 447/1/5 446/1/5
f 450/1/5 447/1/5 449/1/5
f 451/1/5 447/1/5 450/1/5
f 452/3/5 448/3/5 447/3/5
f 452/1/5 447/1/5 451/1/5
f 453/3/5 449/3/5 445/3/5
f 453/3/5 450/3/5 449/3/5
f 454/2/5 451/2/5 450/2/5
f 454/3/5 450/3/5 453/3/5
f 455/3/5 452/3/5 451/3/5
f 455/2/5 451/2/5 454/2/5
f 456/3/5 448/3/5 452/3/5
f 456/3/5 452/3/5 455/3/5
f 462/3/5 458/3/5 457/3/5
f 463/3/5 458/3/5 462/3/5
f 464/3/5 460/3/5 459/3/5
f 465/3/5 460/3/5 464/3/5
f 467/3/5 462/3/5 461/3/5
f 468/3/5 462/3/5 467/3/5
f 469/3/5 466/3/5 465/3/5
f 470/3/5 466/3/5 469/3/5
f 475/3/5 472/3/5 471/3/5
f 476/3/5 472/3/5 475/3/5
f 479/3/5 474/3/5 473/3/5
f 480/3/5 474/3/5 479/3/5
f 481/3/5 477/3/5 476/3/5
f 482/3/5 477/3/5 481/3/5
f 483/3/5 479/3/5 478/3/5
f 484/3/5 479/3/5 483/3/5
f 491/3/5 486/3/5 485/3/5
f 492/3/5 486/3/5 491/3/5
f 493/2/5 488/2/5 487/2/5
f 494/2/5 488/2/5 493/2/5
f 495/3/5 490/3/5 489/3/5
f 496/3/5 490/3/5 495/3/5
f 501/3/5 498/3/5 497/3/5
f 502/3/5 498/3/5 501/3/5
f 503/3/5 500/3/5 499/3/5
f 504/3/5 500/3/5 503/3/5
f 509/2/5 506/2/5 505/2/5
f 510/2/5 506/2/5 509/2/5
f 511/2/5 508/2/5 507/2/5
f 512/2/5 508/2/5 511/2/5
f 517/3/5 514/3/5 513/3/5
f 518/3/5 514/3/5 517/3/5
f 519/3/5 516/3/5 515/3/5
f 520/3/5 516/3/5 519/3/5
f 527/3/5 522/3/5 521/3/5
f 528/3/5 522/3/5 527/3/5
f 529/2/5 524/2/5 523/2/5
f 530/2/5 524/2/5 529/2/5
f 531/3/5 526/3/5 525/3/5
f 532/3/5 526/3/5 531/3/5
f 533/3/6 534/3/6 540/3/6
f 540/3/6 534/3/6 541/3/6
f 535/2/6 536/2/6 542/2/6
f 542/2/6 536/2/6 543/2/6
f 537/3/6 538/3/6 544/3/6
f 544/3/6 538/3/6 545/3/6
f 539/3/6 540/3/6 547/3/6
f 547/3/6 540/3/6 548/3/6
f 545/3/6 546/3/6 549/3/6
f 549/3/6 546/3/6 550/3/6
f 551/2/6 552/2/6 555/2/6
f 555/2/6 552/2/6 556/2/6
f 553/2/6 554/2/6 557/2/6
f 557/2/6 554/2/6 558/2/6
f 559/3/6 560/3/6 563/3/6
f 563/3/6 560/3/6 564/3/6
f 561/3/6 562/3/6 569/3/6
f 569/3/6 562/3/6 570/3/6
f 564/3/6 565/3/6 571/3/6
f 571/3/6 565/3/6 572/3/6
f 566/2/6 567/2/6 573/2/6
f 573/2/6 567/2/6 574/2/6
f 568/3/6 569/3/6 575/3/6
f 575/3/6 569/3/6 576/3/6
f 577/3/6 578/3/6 581/3/6
f 578/2/6 579/2/6 582/2/6
f 581/3/6 578/3/6 582/3/6
f 579/3/6 580/3/6 583/3/6
f 582/2/6 579/2/6 583/2/6
f 583/3/6 580/3/6 584/3/6
f 585/3/6 586/3/6 589/3/6
f 589/3/6 586/3/6 590/3/6
f 587/3/6 588/3/6 591/3/6
f 591/3/6 588/3/6 592/3/6
f 589/2/6 590/2/6 593/2/6
f 593/2/6 590/2/6 594/2/6
f 591/2/6 592/2/6 595/2/6
f 595/2/6 592/2/6 596/2/6
f 593/3/6 594/3/6 597/3/6
f 597/3/6 594/3/6 598/3/6
f 595/3/6 596/3/6 599/3/6
f 599/3/6 596/3/6 600/3/6
f 601/3/6 602/3/6 605/3/6
f 602/2/6 603/2/6 606/2/6
f 605/3/6 602/3/6 606/3/6
f 603/3/6 604/3/6 607/3/6
f 606/2/6 603/2/6 607/2/6
f 607/3/6 604/3/6 608/3/6
f 609/1/6 610/1/6 613/1/6
f 611/1/6 612/1/6 613/1/6
f 610/1/6 611/1/6 613/1/6
f 613/1/6 612/1/6 614/1/6
f 613/1/6 614/1/6 615/1/6
f 615/1/6 614/1/6 616/1/6
f 613/1/6 615/1/6 617/1/6
f 616/1/6 614/1/6 618/1/6
f 613/1/6 617/1/6 619/1/6
f 617/1/6 618/1/6 619/1/6
f 618/1/6 614/1/6 620/1/6
f 619/1/6 618/1/6 620/1/6
f 619/1/6 620/1/6 621/1/6
f 621/1/6 620/1/6 622/1/6
f 622/1/6 620/1/6 623/1/6
f 623/1/6 620/1/6 624/1/6
f 625/3/6 626/3/6 629/3/6
f 629/3/6 626/3/6 630/3/6
f 627/3/6 628/3/6 631/3/6
f 631/3/6 628/3/6 632/3/6
f 625/3/6 629/3/6 633/3/6
f 633/3/6 629/3/6 634/3/6
f 632/3/6 628/3/6 635/3/6
f 635/3/6 628/3/6 636/3/6
f 637/1/6 638/1/6 639/1/6
f 639/1/6 638/1/6 640/1/6
f 641/3/6 642/3/6 645/3/6
f 643/3/6 644/3/6 648/3/6
f 645/3/6 646/3/6 649/3/6
f 641/3/6 645/3/6 649/3/6
f 649/3/6 646/3/6 650/3/6
f 647/3/6 648/3/6 651/3/6
f 648/3/6 644/3/6 652/3/6
f 651/3/6 648/3/6 652/3/6
